<svg width="26" height="30" viewBox="0 0 26 30" fill="none" xmlns="http://www.w3.org/2000/svg">
<path d="M22.5989 16.0332C26.1685 13.0594 26.5129 7.33601 23.6922 3.69534C21.3853 0.694242 18.1054 0 14.4812 0H0.060606C-0.803097 9.83965 7.85033 12.1629 7.85033 12.1629V6.14978C10.6492 6.14978 16.05 5.01822 17.2417 8.4293C17.4358 9.00654 17.4794 9.62374 17.3684 10.2225C17.2575 10.8213 16.9956 11.3819 16.6076 11.8513C13.8197 15.1312 7.94326 13.8302 4.8055 11.895C3.49797 11.0718 2.30505 10.0792 1.25776 8.94315C0.935242 8.60423 0.164469 7.99198 0.060606 7.5164C2.45492 16.3994 9.55587 18.4493 9.55587 18.4493C14.0384 19.5098 18.9637 19.0616 22.5989 16.0332Z" fill="#333333"/>
<path d="M19.0566 18.9687C15.3777 20.9366 9.84013 19.5918 9.84013 19.5918L16.3015 29.9781H25.6164L19.0566 18.9687Z" fill="#333333"/>
<path d="M0.000474772 21.844V30H7.85033V21.844L3.9254 25.3972L0.000474772 21.844Z" fill="#333333"/>
<path d="M1.73335 19.1108L0.268332 20.7507L3.9254 24.0962L7.85033 20.6469L6.21039 19.1108H1.73335Z" fill="#333333"/>
</svg>
