<svg width="93" height="34" viewBox="0 0 93 34" fill="none" xmlns="http://www.w3.org/2000/svg">
<path d="M28.9475 8.09138L13.9488 33.9314C15.1771 34.0303 16.4093 33.7953 17.5144 33.2514C21.5009 31.5634 24.8626 28.6809 27.134 25.003C28.3954 23.0199 29.0362 20.7071 28.9747 18.3594C28.927 14.9594 28.9407 11.5254 28.9475 8.09138Z" fill="#5463E8"/>
<path d="M10.9491 33.0748L12.8103 29.8584L12.8443 29.7768V29.7088C12.8443 29.7088 12.8443 29.6612 12.8443 29.634C12.8443 29.6068 12.8443 29.5864 12.8443 29.5592C12.8443 29.532 12.8443 29.5116 12.8443 29.4844C12.8443 29.4572 12.8443 29.43 12.8443 29.4096C12.8443 29.3892 12.8443 29.362 12.8443 29.3348C12.8443 29.3076 12.8443 29.2804 12.8443 29.26V29.192L12.8103 29.1104L5.7677 16.8976H9.71507L14.3169 24.8536C14.3446 24.8974 14.3766 24.9384 14.4124 24.976L14.4465 25.01C14.4921 25.052 14.5424 25.0885 14.5965 25.1188C14.719 25.1828 14.8538 25.2199 14.9919 25.2276C15.13 25.2199 15.2648 25.1828 15.3873 25.1188C15.4414 25.0885 15.4917 25.052 15.5373 25.01L15.5714 24.976C15.6071 24.9384 15.6391 24.8974 15.6668 24.8536L27.2703 4.8344C25.8863 4.75502 24.5148 4.52704 23.1798 4.1544C20.168 3.3142 17.329 1.94902 14.7942 0.121995C14.7113 0.0464971 14.603 0.00463867 14.4908 0.00463867C14.3785 0.00463867 14.2703 0.0464971 14.1874 0.121995C12.9534 0.876795 11.7399 1.6724 10.465 2.3456C7.84195 3.76823 4.94225 4.61015 1.96349 4.814C1.32946 4.8548 0.681787 4.814 0.00684703 4.814V5.3512C2.94582e-05 9.82559 2.94585e-05 14.2796 2.94585e-05 18.754C-0.0132397 20.6228 0.456352 22.4636 1.36354 24.0988C3.49074 28.0413 6.83874 31.1922 10.9081 33.0816L10.9491 33.0748Z" fill="#5463E8"/>
<path d="M41.5872 18.6592L35.7923 9.31599H38.9216L43.0121 16.2044L47.0413 9.31599H50.041L44.2802 18.6592V24.684H41.5872V18.6592Z" fill="#5463E8"/>
<path d="M53.143 9.31599H64.2352V11.6416H55.836V15.64H63.608V17.8364H55.836V22.338H64.3852V24.684H53.143V9.31599Z" fill="#5463E8"/>
<path d="M67.644 9.31599H78.7362V11.6416H70.3437V15.64H78.1158V17.8364H70.3437V22.338H78.893V24.684H67.644V9.31599Z" fill="#5463E8"/>
<path d="M82.1518 9.31599H84.8788V22.3584H92.7122V24.684H82.1518V9.31599Z" fill="#5463E8"/>
</svg>
