<svg width="50" height="50" viewBox="0 0 50 50" fill="none" xmlns="http://www.w3.org/2000/svg">
<path d="M7.87689 5.14658C6.82246 5.42495 5.91986 6.13353 5.47278 7.02769C4.97509 8.00621 5.00039 6.92647 5.00039 25.0037C5.00039 43.2665 4.96665 42.0265 5.52339 43.0725C6.00422 43.9751 7.02491 44.7005 8.11309 44.9114C8.72888 45.0295 25.6504 45.0295 26.2662 44.9114C27.4219 44.6921 28.4173 43.9498 28.915 42.9375C29.3199 42.1193 29.3789 41.6975 29.3789 39.6899V37.9437L28.7969 37.716C28.4763 37.5894 28.198 37.4882 28.1727 37.4882C28.1473 37.4882 28.1136 37.9184 28.0967 38.433C28.0714 39.209 28.0292 39.4621 27.8774 39.7742C27.6159 40.3057 27.1604 40.7612 26.6458 40.9974L26.2156 41.1998H17.1897H8.1637L7.73349 40.9974C7.21893 40.7612 6.76341 40.3057 6.50191 39.7742L6.30789 39.3862V23.7384V8.09056L6.51034 7.71097C6.78028 7.1964 7.15144 6.80837 7.65757 6.54687L8.07934 6.31911L10.3147 6.29381L12.5501 6.27694L13.0731 6.90116C14.0432 8.04839 15.4013 8.73166 16.7679 8.74853C17.5946 8.75697 18.1766 8.63044 19.0033 8.2424C19.5263 7.99777 19.7709 7.80376 20.4542 7.10361L21.2724 6.2685L23.7862 6.29381L26.3 6.31911L26.7218 6.54687C27.2279 6.80837 27.6075 7.1964 27.869 7.71097C28.0292 8.02308 28.0714 8.26771 28.1136 9.12813L28.1558 10.1741L28.6788 8.92568L29.2102 7.66879L28.9572 7.14579C28.5016 6.15884 27.599 5.43339 26.4687 5.13815C25.7432 4.95256 8.57704 4.95256 7.87689 5.14658ZM19.2479 6.58061C18.5984 7.24702 17.2656 7.66035 16.3292 7.46634C15.6966 7.33981 14.9121 6.96865 14.4903 6.58905L14.1529 6.28537L16.8438 6.27694H19.5432L19.2479 6.58061ZM6.81402 41.9168C7.71662 42.4567 7.06709 42.423 17.1897 42.423C27.3122 42.423 26.6627 42.4567 27.5653 41.9168C27.8352 41.7566 28.063 41.6216 28.0799 41.6216C28.1305 41.6216 27.9618 42.1024 27.7931 42.423C27.5822 42.8447 27.1773 43.2328 26.6796 43.4858L26.3 43.6883H17.1897H8.07934L7.69975 43.4858C7.20205 43.2328 6.79715 42.8447 6.58626 42.423C6.41755 42.1024 6.24885 41.6216 6.29946 41.6216C6.31633 41.6216 6.54409 41.7566 6.81402 41.9168Z" fill="black"/>
<path d="M39.5015 5.0707C39.0291 5.23941 36.5575 6.31915 36.3972 6.42881C36.2876 6.4963 36.1442 6.66501 36.0767 6.79154C35.8405 7.24705 35.9248 7.64352 36.5659 9.12817C36.8949 9.90423 37.2492 10.6466 37.3336 10.7815C37.5191 11.043 37.9409 11.2539 38.2868 11.2539C38.5567 11.2539 41.4248 10.0476 41.7284 9.81144C41.9899 9.60899 42.2346 8.97633 42.1587 8.70639C42.0574 8.3521 40.9102 5.7371 40.7499 5.50934C40.5222 5.16349 39.8642 4.93573 39.5015 5.0707ZM40.345 7.58447C40.6234 8.22557 40.8427 8.79918 40.8174 8.84979C40.7837 8.95102 38.3374 10.0392 38.2868 9.98015C38.2277 9.91267 37.2239 7.5423 37.2239 7.46638C37.2239 7.4242 37.5782 7.23862 38.0084 7.05304C38.4302 6.86746 38.9954 6.61439 39.2484 6.50473C39.5015 6.39507 39.7377 6.31915 39.7714 6.35289C39.8052 6.3782 40.0582 6.93494 40.345 7.58447Z" fill="black"/>
<path d="M30.6105 7.96405C30.3827 8.1665 30.1803 8.55453 29.6404 9.82829C28.8137 11.7684 28.78 12.0721 29.3199 12.6626C29.4886 12.8482 32.2976 14.0882 32.8206 14.2147C33.1664 14.2907 33.6135 14.1726 33.8919 13.9279C34.1112 13.7423 35.4018 10.8068 35.5031 10.2838C35.5621 9.93795 35.3259 9.3559 35.0391 9.15345C34.921 9.06909 34.1197 8.70637 33.2677 8.35208C31.4372 7.59288 31.0913 7.54227 30.6105 7.96405ZM32.8881 9.54148C33.6304 9.84516 34.2378 10.1067 34.2462 10.1151C34.2546 10.1151 33.9931 10.7731 33.6641 11.566C33.3352 12.3674 33.0399 13 33.0146 12.9916C32.9893 12.9747 32.3566 12.7048 31.6143 12.3927C30.872 12.0806 30.2478 11.8106 30.2309 11.7938C30.1634 11.7347 31.3613 8.9763 31.454 8.9763C31.5047 8.9763 32.1542 9.22937 32.8881 9.54148Z" fill="black"/>
<path d="M8.29026 11.9878C8.22278 12.0131 8.07094 12.1143 7.96971 12.2155C7.55637 12.5867 7.53107 12.7217 7.53107 14.7293C7.53107 16.4586 7.54794 16.6357 7.69978 16.8888C7.79257 17.0406 7.98658 17.2347 8.13842 17.3274C8.39149 17.4793 8.56863 17.4962 10.2979 17.4962C12.3224 17.4962 12.4321 17.4793 12.8454 17.0322C13.0563 16.8044 13.0563 16.8044 13.0816 14.8137C13.1154 12.5867 13.0816 12.4264 12.5502 12.0974C12.2971 11.9456 12.1284 11.9287 10.3485 11.9372C9.28565 11.9372 8.35774 11.9625 8.29026 11.9878ZM11.9006 14.6871L11.9175 16.2308H10.357H8.79639V14.6703V13.1097L10.3401 13.1266L11.8753 13.1519L11.9006 14.6871Z" fill="black"/>
<path d="M14.9458 12.1228C14.4144 12.477 14.3638 12.6795 14.3638 14.6703C14.3638 16.3489 14.3722 16.467 14.5578 16.8213C14.8699 17.454 15.0302 17.4962 17.1897 17.4962C19.3491 17.4962 19.5094 17.454 19.83 16.8213C20.0071 16.467 20.0155 16.3489 20.0155 14.6703C20.0155 12.6795 19.9649 12.477 19.4335 12.1228C19.1551 11.9372 19.0876 11.9287 17.1897 11.9287C15.2917 11.9287 15.2242 11.9372 14.9458 12.1228ZM18.7502 14.6703V16.2308H17.1897H15.6291V14.6703V13.1097H17.1897H18.7502V14.6703Z" fill="black"/>
<path d="M21.8376 12.089C21.7026 12.1818 21.5255 12.3673 21.4327 12.5023C21.2808 12.7385 21.2724 12.9156 21.2977 14.7799L21.323 16.8044L21.5339 17.0322C21.9304 17.4624 22.0991 17.4961 23.5331 17.4877H24.8659L25.119 17.0912C25.4142 16.6273 26.0638 16.1633 26.5193 16.0958L26.8483 16.0368V14.4425C26.8483 12.7301 26.823 12.5867 26.3843 12.1818L26.1565 11.9709L24.1236 11.9456C22.2256 11.9287 22.0653 11.9371 21.8376 12.089ZM25.5829 14.6702V16.2308H24.0224H22.4618V14.7293C22.4618 13.9026 22.4871 13.194 22.5209 13.1687C22.5462 13.135 23.2547 13.1097 24.0814 13.1097H25.5829V14.6702Z" fill="black"/>
<path d="M28.1136 14.7292V16.197L28.7462 16.4585L29.3789 16.7285V15.4378V14.1388L29.109 14.0291C28.9571 13.9701 28.6703 13.7676 28.4763 13.5905L28.1136 13.253V14.7292Z" fill="black"/>
<path d="M36.3888 13.8773C36.2791 13.9194 35.5705 14.4846 34.8198 15.1426C33.4111 16.3489 33.2592 16.5429 33.2592 17.108C33.2592 17.5045 33.4532 17.7829 34.6342 19.1326C35.7899 20.4569 35.9586 20.6003 36.3972 20.6678C36.8527 20.7437 37.1817 20.5497 38.5736 19.335C40.6403 17.5383 40.6487 17.5045 38.7929 15.3788C37.5613 13.9616 37.3336 13.776 36.8106 13.7929C36.6925 13.7929 36.4984 13.8351 36.3888 13.8773ZM37.8566 16.197C38.5736 17.0237 38.8351 17.378 38.776 17.4623C38.7338 17.5214 38.2108 17.9938 37.6204 18.5083C36.7009 19.3097 36.5237 19.4278 36.4394 19.3266C36.3803 19.2507 35.9417 18.7361 35.4524 18.1709C34.9632 17.6057 34.5667 17.1165 34.5667 17.0827C34.5667 17.0321 36.7937 15.0498 36.8527 15.0498C36.8612 15.0498 37.3082 15.5644 37.8566 16.197Z" fill="black"/>
<path d="M26.6205 17.4034C26.4265 17.4961 26.2156 17.6564 26.1397 17.7661C25.9288 18.0951 24.655 21.174 24.655 21.368C24.655 21.638 24.8575 22.0682 25.0852 22.2791C25.3552 22.5237 28.4594 23.8228 28.7884 23.8228C29.109 23.8228 29.5476 23.6456 29.7332 23.4347C29.8091 23.3419 30.1803 22.5406 30.5514 21.6548C31.6312 19.082 31.6227 19.0483 29.2102 18.0191C28.3076 17.6311 27.4303 17.2937 27.27 17.2768C27.0844 17.2515 26.8398 17.3021 26.6205 17.4034ZM28.5016 19.0651C29.2439 19.3688 29.8766 19.6472 29.9188 19.6894C29.9863 19.7569 28.9149 22.4393 28.78 22.5153C28.7041 22.5659 25.9963 21.4271 25.9878 21.3427C25.9794 21.2837 27.1182 18.5084 27.1519 18.5084C27.1604 18.5084 27.7677 18.7615 28.5016 19.0651Z" fill="black"/>
<path d="M8.20591 18.9133C8.04563 18.9892 7.82631 19.1832 7.72508 19.3435C7.5395 19.6218 7.53107 19.6978 7.53107 21.5198C7.53107 23.6624 7.57324 23.848 8.11311 24.177C8.40836 24.3626 8.49271 24.371 10.3148 24.371C13.166 24.371 13.0985 24.4385 13.0985 21.5789C13.0985 19.6893 13.09 19.6218 12.9045 19.3435C12.5502 18.8036 12.3477 18.7614 10.3148 18.7614C8.75421 18.7614 8.45897 18.7783 8.20591 18.9133ZM11.9006 21.562L11.8753 23.1057L10.3401 23.131L8.79639 23.1479V21.5873V20.0267H10.357H11.9175L11.9006 21.562Z" fill="black"/>
<path d="M15.0133 18.9386C14.7771 19.0567 14.6421 19.217 14.524 19.487C14.3722 19.8244 14.3553 20.0184 14.3806 21.7055C14.4059 23.7384 14.4144 23.7722 14.988 24.1939C15.2073 24.3627 15.3338 24.3711 17.1896 24.3711C19.0454 24.3711 19.172 24.3627 19.3913 24.1939C19.9649 23.7722 19.9733 23.7384 19.9987 21.7055C20.024 20.0184 20.0071 19.8244 19.8552 19.487C19.7372 19.2086 19.6022 19.0652 19.3491 18.9386C19.037 18.7784 18.8683 18.7615 17.1728 18.7615C15.4941 18.7699 15.3085 18.7868 15.0133 18.9386ZM18.7502 21.5874V23.1479H17.1896H15.6291V21.5874V20.0268H17.1896H18.7502V21.5874Z" fill="black"/>
<path d="M21.9557 18.9133C21.7954 18.9892 21.5761 19.1832 21.4749 19.3435C21.2893 19.6218 21.2808 19.6893 21.2808 21.5789C21.2808 24.4385 21.2134 24.371 24.0814 24.371C25.3552 24.371 26.03 24.3373 26.0891 24.2782C26.1565 24.2107 25.9625 24.0926 25.4058 23.8565C24.9756 23.6793 24.5285 23.4516 24.402 23.3419C24.2079 23.1816 24.0645 23.1479 23.3391 23.131L22.504 23.1057L22.4787 21.562L22.4618 20.0267H23.1282H23.7946L23.9211 19.7062C23.9971 19.5375 24.1152 19.2507 24.1826 19.0735L24.3176 18.7614H23.2885C22.4702 18.7614 22.1919 18.7952 21.9557 18.9133Z" fill="black"/>
<path d="M41.1549 19.4785C40.9187 19.5628 40.4547 19.9593 39.6028 20.8028C38.9363 21.4692 38.3374 22.1103 38.2699 22.2369C38.1181 22.5321 38.1181 23.0888 38.2699 23.3841C38.3374 23.5106 38.9532 24.1686 39.6449 24.8434C41.526 26.7077 41.5429 26.7077 43.4831 24.7759C45.4654 22.7936 45.4654 22.8189 43.4409 20.8028C42.6817 20.0521 42.0069 19.4363 41.9394 19.4363C41.8719 19.4363 41.7454 19.4194 41.6526 19.3941C41.5598 19.3688 41.332 19.411 41.1549 19.4785ZM42.648 21.7813L43.7193 22.8526L42.6395 23.9324L41.5682 25.0037L40.4716 23.9071L39.375 22.8105L40.4294 21.756C41.0115 21.174 41.5007 20.7016 41.526 20.7016C41.5513 20.7016 42.0575 21.1824 42.648 21.7813Z" fill="black"/>
<path d="M34.1365 23.4769C33.9594 23.6034 33.3098 24.2277 32.694 24.8519C30.9648 26.6233 30.9648 26.7077 32.9049 28.6479C34.8704 30.6049 34.921 30.6049 36.819 28.7406C37.5023 28.0658 38.118 27.391 38.1855 27.2391C38.3542 26.8933 38.3542 26.4125 38.2024 26.1172C38.059 25.8473 35.6549 23.46 35.3934 23.3251C35.0391 23.1479 34.4908 23.2154 34.1365 23.4769ZM36.0007 25.5942L37.0974 26.6908L36.0007 27.7874L34.9041 28.8841L33.7906 27.7706L32.6687 26.6486L33.74 25.5773C34.3305 24.9784 34.8366 24.4976 34.862 24.4976C34.8873 24.4976 35.4018 24.9869 36.0007 25.5942Z" fill="black"/>
<path d="M28.1136 26.9439V28.8419L28.6028 28.9431C28.8643 28.9937 29.1512 29.0612 29.2355 29.0949C29.3705 29.154 29.3789 29.0274 29.3789 27.1041V25.0459H28.7462L28.1136 25.0375V26.9439Z" fill="black"/>
<path d="M8.45053 25.6701C8.07937 25.7882 7.801 26.016 7.66603 26.3112C7.55637 26.539 7.53107 26.927 7.53107 28.4876C7.53107 30.3096 7.5395 30.3856 7.72508 30.6639C8.07937 31.2038 8.28182 31.246 10.3148 31.246C12.3477 31.246 12.5502 31.2038 12.9045 30.6639C13.09 30.3856 13.0985 30.3181 13.0985 28.4285C13.0985 25.5942 13.1491 25.6448 10.4413 25.6195C9.47123 25.6111 8.56863 25.6364 8.45053 25.6701ZM11.9006 28.437L11.9175 29.9806H10.357H8.79639V28.4201V26.8595L10.3401 26.8764L11.8753 26.9017L11.9006 28.437Z" fill="black"/>
<path d="M15.2579 25.6786C15.123 25.7207 14.9205 25.8388 14.8024 25.9485C14.4059 26.3197 14.3638 26.5558 14.3638 28.437C14.3638 30.0397 14.3806 30.2084 14.5409 30.5458C14.853 31.1954 15.0555 31.246 17.1897 31.246C19.3238 31.246 19.5263 31.1954 19.8384 30.5374C20.0155 30.1831 20.024 30.065 19.9987 28.302C19.9734 26.269 19.9649 26.2353 19.3913 25.8135C19.1804 25.6448 19.0286 25.6364 17.3331 25.6195C16.3292 25.6111 15.3929 25.6364 15.2579 25.6786ZM18.7502 28.4201V29.9806H17.1897H15.6291V28.4201V26.8595H17.1897H18.7502V28.4201Z" fill="black"/>
<path d="M22.0991 25.7123C21.3146 25.9991 21.2809 26.1256 21.2809 28.4454C21.2809 30.3096 21.2893 30.3856 21.4749 30.6639C21.8292 31.1954 22.0485 31.246 23.9043 31.246H25.5577L25.8276 30.6471C25.971 30.3181 26.2663 29.871 26.4687 29.6517L26.8483 29.2468V27.914C26.8483 26.404 26.7724 26.1425 26.2663 25.8304C25.9794 25.6448 25.8698 25.6364 24.1911 25.6195C22.8499 25.6026 22.3438 25.6279 22.0991 25.7123ZM25.583 28.4201V29.9806H24.0224H22.4619V28.4791C22.4619 27.6525 22.4872 26.9439 22.5209 26.9186C22.5462 26.8848 23.2548 26.8595 24.0815 26.8595H25.583V28.4201Z" fill="black"/>
<path d="M27.734 30.2253C27.346 30.3855 27.1098 30.782 26.4434 32.4185C26.0638 33.3464 25.7517 34.1815 25.7517 34.2827C25.7517 34.5358 25.9541 34.9744 26.1566 35.1516C26.3169 35.3034 28.8812 36.4422 29.5223 36.6531C29.9188 36.7796 30.3406 36.6868 30.678 36.3916C30.8973 36.1976 31.1082 35.7842 31.6481 34.502C32.0192 33.6079 32.3314 32.7475 32.3314 32.5956C32.3314 32.2076 32.0952 31.7605 31.7915 31.5749C31.6481 31.4906 30.8383 31.1279 30.0032 30.782C28.5101 30.1662 28.122 30.0734 27.734 30.2253ZM29.6151 31.9714C30.3406 32.2751 30.9732 32.5534 31.007 32.5956C31.066 32.6462 30.0453 35.2528 29.9019 35.3962C29.8598 35.4384 27.1604 34.3755 27.0592 34.2659C27.0423 34.249 27.1351 33.9959 27.2616 33.6922C27.3882 33.3886 27.6581 32.7559 27.8521 32.2751C28.0546 31.8027 28.2317 31.4147 28.2486 31.4147C28.2655 31.4147 28.8812 31.6677 29.6151 31.9714Z" fill="black"/>
<path d="M38.2784 30.6976C36.237 31.5834 36.1105 31.6593 35.8911 32.0895C35.7646 32.3426 35.7056 32.5619 35.7393 32.7306C35.7815 33.0427 37.0131 35.9108 37.2324 36.2313C37.418 36.5012 37.8735 36.729 38.2278 36.729C38.3627 36.729 39.0966 36.4591 39.8558 36.1301C41.855 35.2697 41.9225 35.2275 42.125 34.8985C42.4371 34.3924 42.378 34.0718 41.6441 32.3847C40.9103 30.6892 40.7753 30.453 40.4294 30.2759C39.9908 30.0481 39.6112 30.124 38.2784 30.6976ZM40.3788 32.5787C40.6488 33.2114 40.9271 33.8525 40.9862 33.9875L41.0958 34.249L39.6956 34.8563C38.9195 35.1937 38.2615 35.4384 38.2278 35.4046C38.194 35.3709 37.8988 34.7298 37.5782 33.9875C37.0637 32.8149 37.0046 32.6294 37.1312 32.5703C37.9157 32.2076 39.7293 31.4231 39.7968 31.4231C39.8474 31.4231 40.1089 31.9377 40.3788 32.5787Z" fill="black"/>
<path d="M8.13842 32.68C7.56481 33.0343 7.53107 33.1777 7.53107 35.2781C7.53107 37.3026 7.54794 37.4123 7.99502 37.8256L8.22278 38.0365L10.2389 38.0618C12.1453 38.0871 12.2802 38.0787 12.5417 37.9184C13.0816 37.581 13.1154 37.4291 13.0816 35.1937L13.0563 33.1861L12.7358 32.874L12.4236 32.5534L10.416 32.5281C8.53489 32.5113 8.39992 32.5197 8.13842 32.68ZM11.9006 35.3118L11.8753 36.8555L10.3401 36.8808L8.79639 36.8977V35.3372V33.7766H10.357H11.9175L11.9006 35.3118Z" fill="black"/>
<path d="M14.9711 32.68C14.4397 33.0005 14.3638 33.3295 14.3638 35.3371C14.3638 37.3279 14.4144 37.5304 14.9458 37.8847C15.2242 38.0702 15.2917 38.0787 17.1897 38.0787C19.0792 38.0787 19.1551 38.0702 19.4251 37.8847C19.9734 37.5135 20.0155 37.3195 20.0155 35.3371C20.0155 33.3295 19.9396 33.0005 19.4082 32.68C19.1467 32.5281 18.9864 32.5113 17.1897 32.5113C15.3929 32.5113 15.2326 32.5281 14.9711 32.68ZM18.7502 35.3371V36.8977H17.1897H15.6291V35.3371V33.7766H17.1897H18.7502V35.3371Z" fill="black"/>
<path d="M21.9979 32.5956C21.9051 32.6294 21.7195 32.7812 21.5761 32.9331L21.3231 33.1946L21.2977 35.2191C21.2724 37.1255 21.2809 37.2605 21.4412 37.522C21.7786 38.0618 21.9304 38.0956 24.1658 38.0618C26.1566 38.0365 26.1566 38.0365 26.3843 37.8256C26.6374 37.5894 26.8483 37.2267 26.8483 37.0327C26.8483 36.9146 25.8698 36.3916 25.6589 36.3916C25.6167 36.3916 25.583 36.5097 25.583 36.6447V36.8977L24.0477 36.8809L22.504 36.8556L22.4787 35.3119L22.4618 33.7766H23.491H24.5285L24.7141 33.2873C24.8153 33.0258 24.925 32.739 24.9587 32.6547C25.0094 32.5197 24.9081 32.5113 23.5922 32.5197C22.8077 32.5197 22.0907 32.5535 21.9979 32.5956Z" fill="black"/>
</svg>
