<svg width="76" height="76" viewBox="0 0 76 76" fill="none" xmlns="http://www.w3.org/2000/svg">
<path d="M70.5052 54.0602C69.9937 54.0602 69.1411 53.4633 68.8854 52.9517C67.6918 50.7347 66.6687 48.4325 65.9014 46.6418C65.6457 45.9597 65.5604 45.1923 65.5604 44.4249C65.5604 31.8051 65.5604 19.5265 65.5604 7.41835C65.5604 6.73621 65.4751 6.05406 65.0489 5.71298C64.7078 5.37191 64.1963 5.20138 63.429 5.20138C55.415 5.20138 47.4863 5.20138 41.5184 5.20138H21.0571V7.67416C21.0571 9.12372 21.0571 10.5733 21.0571 11.9376C21.0571 14.8367 19.5226 16.2863 16.6239 16.3715C15.8566 16.3715 15.004 16.3715 14.2367 16.3715H9.8887C9.8887 16.3715 9.8887 31.0377 9.8887 35.6422C9.8887 35.8128 9.8887 35.898 9.8887 36.0686C9.8887 36.4096 9.88871 36.7507 9.80345 36.9212C9.63294 37.2623 9.20666 37.6034 9.03615 37.6034C8.86564 37.6034 8.43936 37.2623 8.26885 36.9212C8.1836 36.7507 8.18359 36.4949 8.18359 36.1538C8.18359 36.0686 8.18359 35.898 8.18359 35.8128V31.6346C8.18359 26.689 8.1836 21.5729 8.26885 16.5421C8.26885 15.7747 8.69512 14.8367 9.20665 14.3251C12.4464 10.9144 15.6861 7.67416 18.9258 4.60449C19.5226 4.00761 20.5456 3.58127 21.3129 3.58127C28.4744 3.58127 36.1473 3.49601 44.7581 3.49601C51.067 3.49601 57.3759 3.49601 63.6848 3.49601C64.7931 3.49601 65.7309 3.41073 66.5835 2.04644C67.3508 0.767411 68.8001 0 70.42 0C70.9315 0 71.3578 0.0852659 71.784 0.170534C73.9154 0.767413 75.2795 2.55805 75.2795 4.68976C75.3648 6.99201 75.2795 9.37953 75.2795 11.6818C75.2795 12.6197 75.2795 13.5577 75.2795 14.4104V22.0845C75.2795 29.0765 75.2795 36.3244 75.2795 43.4869C75.2795 45.3628 74.9385 46.8977 74.2564 48.262C73.9154 48.9441 73.5744 49.7115 73.2334 50.3937C72.8071 51.2463 72.4661 52.099 71.9546 52.9517C71.6988 53.4633 70.9315 54.0602 70.5052 54.0602ZM67.2655 16.0305C67.2655 18.5033 67.2655 20.976 67.2655 23.4488C67.2655 29.5029 67.3508 35.8127 67.1803 41.9521C67.095 45.1923 68.2886 47.8356 69.6527 50.5642C69.8232 50.9053 70.42 52.2696 70.42 52.2696L70.6757 51.5874C70.9315 50.9053 71.2725 50.3084 71.5283 49.7115C72.6366 47.4093 73.5744 45.1923 73.5744 42.4637C73.4039 36.2391 73.4892 29.844 73.4892 23.7046C73.4892 21.2318 73.4892 18.6738 73.4892 16.201V13.8988H67.2655V16.0305ZM11.9348 14.6662H12.7021C13.0431 14.6662 13.4694 14.6662 13.8104 14.6662C14.2367 14.6662 14.663 14.6662 15.1745 14.6662C15.7713 14.6662 16.3681 14.6662 16.9649 14.6662C18.329 14.5809 19.1815 13.7282 19.2668 12.4492C19.352 11.3407 19.352 10.1469 19.2668 9.209C19.2668 8.78265 19.2668 8.3563 19.2668 8.01523V7.24782L11.9348 14.6662ZM67.436 11.8523H73.4892V9.03846H67.436V11.8523ZM70.3347 2.04644C69.8232 2.04644 69.3116 2.13171 68.8854 2.30225C67.095 3.15493 67.1803 4.94558 67.3508 6.48041L67.436 7.07728H73.4892L73.5744 6.39513C73.7449 4.94557 73.9154 3.2402 72.2956 2.30225C71.6988 2.13171 71.0168 2.04644 70.3347 2.04644Z" fill="black"/>
<path d="M19.0972 75.3773C18.6709 75.3773 18.1594 75.3773 17.7331 75.3773C15.8575 75.3773 15.0049 74.6099 14.7492 72.734C14.7492 72.4782 14.7492 72.2224 14.6639 72.0518C14.6639 71.796 14.6639 71.4549 14.5786 71.1991C14.4081 70.3465 13.9819 69.8348 13.2998 69.8348C12.9588 69.8348 12.6178 69.9201 12.2768 70.1759C10.5717 71.3697 9.54859 72.0518 8.86655 72.0518C8.01399 72.0518 7.2467 71.1991 5.54159 69.579C5.37108 69.4085 5.28583 69.3232 5.11532 69.1527C4.7743 68.8116 4.51853 68.5558 4.17751 68.2147C3.06919 67.021 3.06919 65.9125 4.007 64.6335C4.007 64.5482 4.09225 64.5482 4.17751 64.4629C4.26276 64.3777 4.34802 64.2071 4.43327 64.0366C4.68904 63.525 4.9448 63.0134 5.20057 62.5018L5.62684 61.5638L5.28583 61.4785C5.03006 61.3933 4.85955 61.308 4.60378 61.2227C4.09225 61.0522 3.58072 60.7964 2.98394 60.7111C0.767298 60.4553 0.0852553 59.6879 0 57.5562C0 56.3624 0 55.0834 0 53.8896C0 51.9285 0.767295 51.0758 2.72817 50.9052C2.89868 50.9052 3.15444 50.9052 3.32495 50.9052C3.66597 50.9052 4.00699 50.9053 4.34801 50.82C5.03006 50.6495 5.37108 50.3936 5.54159 49.9673C5.71211 49.541 5.62685 49.1146 5.28583 48.603C2.81342 44.8512 2.81343 44.8512 5.96787 41.6963C6.13838 41.5257 6.22364 41.4405 6.39415 41.2699C6.73517 40.9288 7.07619 40.5878 7.41721 40.2467C7.92874 39.8204 8.52553 39.5645 9.12232 39.5645C9.63385 39.5645 10.1454 39.7351 10.6569 40.1614C10.8274 40.332 10.9979 40.4172 11.2537 40.5878C11.5095 40.8436 11.7652 41.0141 12.1063 41.2699C12.6178 41.611 13.0441 41.6963 13.3851 41.6963C13.4703 41.6963 13.6408 41.6963 13.7261 41.611C14.2376 41.4405 14.4934 40.7583 14.6639 40.1614C14.7492 39.8204 14.7492 39.4793 14.7492 39.1382C14.7492 38.8824 14.7492 38.6266 14.8344 38.3708C15.0902 36.9212 15.9427 36.1538 17.4773 36.1538C18.0741 36.1538 18.6709 36.1538 19.2677 36.1538C19.9497 36.1538 20.717 36.1538 21.3991 36.1538C23.3599 36.1538 24.2125 36.9212 24.383 38.8824C24.383 39.0529 24.383 39.3087 24.383 39.4793C24.383 39.8204 24.383 40.1614 24.4683 40.5025C24.724 41.611 25.3208 41.8668 25.6618 41.8668C25.9176 41.8668 26.2586 41.7815 26.6849 41.5257L26.7702 41.4405C28.4753 40.2467 29.4131 39.5645 30.0951 39.5645C30.8624 39.5645 31.715 40.332 33.2496 41.9521L33.6758 42.3784C33.9316 42.6342 34.1874 42.89 34.5284 43.2311C35.9777 44.6807 36.063 45.7892 34.7842 47.4093C34.6989 47.5798 34.5284 47.7503 34.4431 47.8356C34.2726 48.0914 34.1021 48.2619 33.9316 48.5177C33.5906 49.0293 33.4201 49.541 33.5906 49.9673C33.7611 50.3936 34.1874 50.7347 34.7842 50.82C39.1322 51.6727 39.1322 51.6727 39.1322 56.1919V56.6182C39.1322 56.9593 39.1322 57.3004 39.1322 57.6415C39.1322 59.6879 38.3649 60.5406 36.3188 60.7111C36.2335 60.7111 36.063 60.7111 35.9777 60.7111H35.722C35.3809 60.7111 35.0399 60.7111 34.6989 60.8817C34.2726 61.0522 33.6758 61.6491 33.5906 62.246C33.5906 62.4165 33.5906 62.7576 34.1874 63.525C34.8694 64.3777 36.2335 65.5714 36.9155 65.5714H38.3649C42.9687 65.5714 47.4872 65.5714 52.091 65.5714C57.0358 65.5714 61.9806 65.5714 66.9254 65.5714C68.7158 65.5714 69.5683 64.7187 69.5683 62.8428C69.5683 61.1375 69.5683 59.3468 69.5683 57.7267C69.5683 57.0446 69.7388 56.7035 69.8241 56.533C69.9093 56.4477 70.0799 56.3624 70.2504 56.3624C70.3356 56.3624 70.3356 56.3624 70.4209 56.3624C70.6766 56.3624 71.2734 57.1298 71.2734 57.5562C71.3587 59.1763 71.4439 60.8817 71.2734 63.0986C71.1882 65.5714 69.5683 67.1063 67.0959 67.1063C65.0498 67.1063 62.9184 67.1063 60.8723 67.1063C59.5082 67.1063 45.1001 67.1063 45.1001 67.1063C42.9687 67.1063 40.1552 67.1063 37.2566 67.1915C36.404 67.1915 35.5515 67.7031 35.0399 68.1295C34.3579 68.7263 33.7611 69.3232 33.1643 69.9201C32.8233 70.2612 32.4823 70.6875 32.056 71.0286C31.3739 71.6255 30.7772 71.9665 30.0951 71.9665C29.4983 71.9665 28.9015 71.7107 28.2195 71.1991C28.1342 71.1991 28.1342 71.1139 28.049 71.0286C27.9637 70.9433 27.7932 70.7728 27.6227 70.6875C27.1112 70.4317 26.6849 70.2612 26.1734 70.0906L25.3208 69.7496L25.2356 70.0906C25.1503 70.2612 25.0651 70.517 24.9798 70.6875C24.8093 71.1139 24.5535 71.6255 24.5535 72.1371C24.2978 74.6951 23.6157 75.3773 21.0581 75.3773H19.0972ZM13.2146 67.8737C13.6408 67.8737 14.0671 67.9589 14.4934 68.1295C16.1133 68.8116 16.1985 69.8348 16.2838 71.1139C16.369 71.8813 16.369 72.6487 16.7953 73.3308L16.8805 73.5014H22.1664L22.2516 73.3308C22.6779 72.6487 22.6779 71.8813 22.7632 71.1139C22.8484 69.9201 22.9337 68.8116 24.6388 68.1295C25.1503 67.9589 25.4913 67.8737 25.9176 67.8737C26.8554 67.8737 27.4522 68.4705 28.1343 69.0674C28.6458 69.4938 29.1573 70.0054 29.7541 70.1759L29.9246 70.2612L34.1021 66.1683L33.9316 65.9125C33.7611 65.6567 33.5053 65.4862 33.3348 65.2303C32.8233 64.6335 32.3118 64.0366 31.8855 63.4397C31.6297 63.0986 31.3739 62.5018 31.4592 62.1607C31.9707 59.7732 32.397 59.3468 34.9547 59.091C35.0399 59.091 35.2104 59.091 35.2957 59.091C35.6367 59.091 35.9777 59.0058 36.3188 58.9205C36.6598 58.75 37.2566 58.3236 37.2566 57.8973C37.3418 56.7888 37.3418 55.595 37.2566 54.4865C37.2566 54.1454 37.2566 53.2075 37.2566 53.2075L37.0861 53.1222C36.3188 52.7812 35.6367 52.6959 34.8694 52.6106C33.5906 52.5253 32.4823 52.3548 31.8002 50.6494C31.1182 48.9441 31.8855 48.0914 32.738 47.2387C33.1643 46.7271 33.6758 46.3008 33.8464 45.6186L33.9316 45.4481L30.0099 41.2699L29.8394 41.3552C29.1573 41.611 28.6458 42.0373 28.1343 42.4637C27.4522 43.0606 26.8554 43.6574 25.8323 43.6574C25.4061 43.6574 24.9798 43.5722 24.5535 43.4016C22.9337 42.7195 22.8484 41.6963 22.7632 40.4172C22.6779 39.6498 22.6779 38.8824 22.2516 38.2003L22.1664 38.0297H16.7953L16.71 38.2003C16.369 38.8824 16.2838 39.6498 16.1985 40.332C16.1133 41.611 16.028 42.6342 14.3229 43.3164C13.8113 43.4869 13.4703 43.5722 13.0441 43.5722C12.1062 43.5722 11.5095 42.9753 10.8274 42.3784C10.3159 41.9521 9.80436 41.4405 9.12232 41.1847L8.95181 41.0994L4.85955 45.2775L5.03006 45.5333C5.20057 45.7891 5.45633 45.9597 5.62684 46.2155C6.13837 46.8124 6.6499 47.4092 7.07618 48.0061C7.33195 48.3472 7.58771 48.9441 7.50246 49.2852C6.99092 51.6727 6.56466 52.099 4.007 52.3548C3.92174 52.3548 3.75122 52.3548 3.66597 52.3548C3.32495 52.3548 2.98393 52.4401 2.64291 52.5254C2.30189 52.6959 1.70511 53.1222 1.70511 53.5486C1.61985 54.6571 1.61985 55.8508 1.70511 56.9593C1.70511 57.3004 1.70511 58.2383 1.70511 58.2383L1.87561 58.3236C2.64291 58.6647 3.32495 58.7499 4.09224 58.8352C5.37107 58.9205 6.4794 59.091 7.16144 60.7964C7.84348 62.5018 7.07618 63.3544 6.22363 64.2071C5.79735 64.7187 5.28583 65.1451 5.11532 65.8272L5.03006 65.9978L8.95181 70.1759L9.12232 70.0906C9.80436 69.8348 10.3159 69.4085 10.7422 68.9822C11.68 68.3853 12.2768 67.8737 13.2146 67.8737Z" fill="black"/>
<path d="M50.5562 39.2235C47.4017 39.2235 44.162 39.2235 41.0076 39.2235C39.0467 39.2235 38.5352 38.7119 38.5352 36.8359C38.5352 34.8748 38.5352 33.0841 38.5352 31.2935C38.5352 29.7587 39.1319 29.247 40.6665 29.1618C41.0076 29.1618 41.3486 29.1618 41.7749 29.1618H43.9062L43.9915 28.906C44.0767 28.4796 44.0768 27.968 44.0768 27.5417C44.0768 26.2627 44.162 25.5805 45.1851 25.2394C46.0376 24.9836 46.9754 24.9836 47.9132 24.9836C48.3395 24.9836 48.851 24.9836 49.2773 24.8984H49.4478L49.5331 24.7278C49.7036 24.2162 49.7036 23.6193 49.7036 23.1077C49.7036 21.9992 49.7036 21.3171 50.6414 21.0613C51.494 20.8055 52.517 20.8055 53.4548 20.8055C53.8811 20.8055 54.3926 20.8055 54.8189 20.8055H55.0747L55.16 20.5497C55.7567 16.7979 55.7567 16.7979 59.2522 16.7979H59.6785C62.4919 16.7979 62.6624 16.9684 62.6624 19.7822V23.2783C62.6624 27.8828 62.6624 32.402 62.6624 37.0065C62.6624 38.9677 62.1509 39.394 60.2753 39.4793C56.9503 39.2235 53.7959 39.2235 50.5562 39.2235ZM45.9524 37.3476H49.5331V37.0065C49.5331 36.8359 49.5331 36.6654 49.5331 36.5801C49.5331 36.2391 49.6184 35.9833 49.6184 35.7275C49.6184 33.5957 49.6184 31.5493 49.6184 29.4176V26.9448H45.9524V37.3476ZM40.3255 37.3476H43.9915V31.0377H40.3255V37.3476ZM57.1208 37.3476H60.7868V18.3327H57.1208V37.3476ZM51.494 37.2623H55.16V22.4256H51.494V37.2623Z" fill="black"/>
<path d="M46.8907 53.2076C45.6971 53.2076 44.4183 53.2076 43.2247 53.2076C42.2869 53.2076 41.8606 53.1224 41.7754 52.3549C41.7754 52.0139 41.8606 51.8433 41.9459 51.6728C42.2017 51.417 42.7132 51.417 43.2247 51.417C45.9529 51.417 48.6811 51.417 51.4092 51.417C54.1374 51.417 56.8656 51.417 59.5085 51.417C60.6168 51.417 60.8726 51.5875 60.9578 52.2697C60.9578 52.6108 60.8726 52.7813 60.7873 52.9518C60.5315 53.2076 60.02 53.2076 59.5085 53.2076C58.3149 53.2076 51.4092 53.2076 51.4092 53.2076H46.8907Z" fill="black"/>
<path d="M17.0517 27.7123C16.796 27.7123 16.0287 27.7123 15.7729 27.3713C15.6877 27.2007 15.6024 27.0302 15.6877 26.7744C15.7729 26.5186 16.5402 26.007 17.0517 25.9217C18.1601 25.8364 19.3536 25.8364 20.803 25.8364C21.485 25.8364 22.2523 25.8364 22.9344 25.8364C23.6164 25.8364 24.3837 25.8364 25.0657 25.8364C25.7478 25.8364 26.5151 25.8364 27.1971 25.8364C27.8792 25.8364 28.6465 25.8364 29.3285 25.8364C30.8631 25.8364 32.0567 25.8364 33.165 25.9217C33.6765 25.9217 34.5291 26.5186 34.5291 26.7744C34.6143 27.0302 34.5291 27.2007 34.4438 27.3713C34.188 27.6271 33.5913 27.7123 33.165 27.7123C30.4368 27.7123 27.7086 27.7123 24.8952 27.7123C22.4228 27.7123 19.7799 27.7123 17.0517 27.7123Z" fill="black"/>
<path d="M50.1307 47.7503C49.2782 47.7503 48.4256 47.7503 47.5731 47.7503C47.1468 47.7503 46.6353 47.7503 46.3795 47.4945C46.2942 47.3239 46.209 47.1534 46.209 46.8976C46.209 46.2155 46.55 46.0449 47.5731 46.0449C49.6192 46.0449 51.5801 46.0449 53.6262 46.0449C55.5871 46.0449 57.5479 46.0449 59.5088 46.0449C59.9351 46.0449 60.4466 46.0449 60.6171 46.3007C60.7876 46.4713 60.7876 46.6418 60.7876 46.8976C60.7876 47.5798 60.3614 47.7503 59.4236 47.7503C58.571 47.7503 57.7185 47.7503 56.8659 47.7503H50.1307Z" fill="black"/>
<path d="M23.9556 22.2552C23.1031 22.2552 22.2505 22.2552 21.4832 22.2552C21.057 22.2552 20.5454 22.2552 20.2896 21.9994C20.2044 21.8288 20.1191 21.6583 20.1191 21.4025C20.1191 20.7203 20.4602 20.5498 21.4832 20.5498C23.4441 20.5498 25.405 20.5498 27.3658 20.5498H33.419C34.442 20.5498 34.783 20.8056 34.783 21.4025C34.783 22.0846 34.442 22.2552 33.419 22.2552C32.5664 22.2552 31.7139 22.2552 30.8613 22.2552H23.9556Z" fill="black"/>
<path d="M27.7928 33.1695C27.5371 33.1695 27.1961 33.1695 26.9403 33.1695C26.7698 33.1695 26.5993 33.1695 26.4288 33.1695H26.0877C25.7467 33.1695 25.491 33.1695 25.1499 33.1695C24.8942 33.1695 24.5532 33.1695 24.2974 33.1695C23.8711 33.1695 23.4448 33.1695 23.1038 33.0843C22.848 32.999 22.5923 32.7432 22.3365 32.4021C22.2513 32.3169 22.2513 32.2316 22.166 32.1463C22.2513 32.0611 22.3365 31.9758 22.3365 31.9758C22.5923 31.72 22.8481 31.4642 23.0186 31.4642C24.0416 31.3789 24.9794 31.3789 26.0025 31.3789C26.9403 31.3789 27.9634 31.3789 28.9012 31.4642C29.0717 31.4642 29.4127 31.8053 29.5832 32.0611C29.6685 32.1463 29.7537 32.2316 29.7537 32.3169C29.6685 32.4021 29.6685 32.4874 29.5832 32.4874C29.3274 32.7432 29.0717 33.0843 28.7307 33.0843C28.5602 33.0843 28.2191 33.1695 27.7928 33.1695Z" fill="black"/>
<path d="M50.4712 58.6647C50.0449 58.6647 49.6187 58.6647 49.2776 58.5794C49.0219 58.4942 48.7661 58.2384 48.5104 57.8973C48.4251 57.812 48.4251 57.7268 48.3398 57.6415C48.4251 57.5562 48.4251 57.471 48.5104 57.471C48.7661 57.2151 49.0219 56.9593 49.1924 56.8741C50.2155 56.7888 51.1533 56.7888 52.1763 56.7888C53.1994 56.7888 54.2225 56.7888 55.1603 56.8741C55.3308 56.8741 55.5865 57.2151 55.7571 57.471C55.8423 57.5562 55.8423 57.6415 55.9276 57.7268C55.8423 57.812 55.8423 57.8973 55.7571 57.8973C55.5013 58.1531 55.3308 58.4942 55.075 58.4942C54.734 58.5794 54.393 58.5794 53.8814 58.5794C53.6257 58.5794 53.2847 58.5794 53.0289 58.5794C52.7731 58.5794 52.4321 58.5794 52.1763 58.5794H51.9206C51.7501 58.5794 51.5795 58.5794 51.3238 58.5794C51.068 58.5794 50.727 58.6647 50.4712 58.6647Z" fill="black"/>
<path d="M16.7106 33.1694C16.0285 33.1694 15.6875 32.9988 15.6875 32.2314C15.6875 31.8903 15.7728 31.6345 15.858 31.5493C16.0285 31.3787 16.199 31.3787 16.6253 31.3787C16.7106 31.3787 16.8811 31.3787 16.9663 31.3787C17.0516 31.3787 17.2221 31.3787 17.3073 31.3787C17.5631 31.3787 17.6484 31.3787 17.8189 31.2935C17.9894 31.2935 18.1599 31.2935 18.3304 31.2935H18.8419C19.6945 31.2935 20.0355 31.464 20.0355 32.1461C20.0355 32.4872 19.9503 32.6578 19.865 32.8283C19.6945 32.9988 19.4387 33.0841 18.9272 33.0841C18.7567 33.0841 18.5862 33.0841 18.3304 33.0841C18.1599 33.0841 18.0747 33.0841 17.9041 33.0841H17.8189C17.6484 33.0841 17.4779 33.0841 17.2221 33.0841C17.0516 33.0841 16.8811 33.1694 16.7106 33.1694Z" fill="black"/>
<path d="M43.9908 58.6647C43.6497 58.6647 43.394 58.5794 43.053 58.4942C42.7119 58.4089 42.3709 58.0678 42.0299 57.812C41.9446 57.7268 41.9446 57.7268 41.8594 57.6415C41.9446 57.6415 41.9446 57.5562 42.0299 57.5562C42.3709 57.3004 42.7119 56.9594 43.053 56.7888C43.1382 56.7888 43.1382 56.7888 43.3087 56.7888C43.394 56.7888 43.5645 56.7888 43.6497 56.7888C43.8203 56.7888 43.9055 56.7888 44.076 56.7888C44.1613 56.7888 44.3318 56.7888 44.417 56.7888C44.5023 56.7888 44.5875 56.7888 44.6728 56.7888C44.7581 56.7888 44.8433 56.7888 44.8433 56.7888C45.1843 57.0446 45.5254 57.3004 45.8664 57.6415C45.9516 57.6415 45.9516 57.7268 46.0369 57.7268C45.9516 57.812 45.9516 57.812 45.8664 57.8973C45.5254 58.1531 45.2696 58.4089 44.9286 58.5794C44.6728 58.6647 44.3318 58.6647 43.9908 58.6647Z" fill="black"/>
<path d="M24.5531 9.80591C24.4679 9.63537 24.3826 9.5501 24.2974 9.37956C24.0416 9.03849 23.8711 8.69742 23.8711 8.52688C23.8711 8.35634 24.3826 7.84473 24.5531 7.84473C24.8941 7.93 25.4057 8.44161 25.4057 8.69741C25.4057 8.86795 25.1499 9.12376 24.8942 9.46484C24.8089 9.55011 24.6384 9.72064 24.5531 9.80591Z" fill="black"/>
<path d="M49.7888 9.46476C49.533 9.37949 49.1067 8.86788 49.0215 8.5268C49.1067 8.35627 49.6183 7.92993 49.7888 7.92993C49.9593 7.92993 50.3003 8.18573 50.5561 8.44153C50.6413 8.5268 50.8119 8.61207 50.8971 8.78261C50.7266 8.86788 50.6413 8.95315 50.4708 9.03842C50.3003 9.20895 49.9593 9.46476 49.7888 9.46476Z" fill="black"/>
<path d="M43.8213 47.5798C43.4803 47.4945 43.054 46.9829 42.9688 46.6418C42.9688 46.5565 43.2245 46.2155 43.395 46.0449C43.4803 45.9597 43.5655 45.7891 43.736 45.7039C43.8213 45.8744 43.9066 45.9597 43.9918 46.0449C44.2476 46.386 44.5033 46.7271 44.5033 46.8976C44.5033 47.0681 44.0771 47.5798 43.8213 47.5798Z" fill="black"/>
<path d="M37.1716 9.46483C37.0011 9.46483 36.4896 8.95322 36.4043 8.78268C36.4896 8.44161 36.9158 8.01526 37.2568 7.84473C37.3421 7.84473 37.6831 8.10053 37.8536 8.27107C37.9389 8.35634 38.1094 8.44161 38.2799 8.61215C38.1946 8.69742 38.0241 8.78267 37.9389 8.86794C37.6831 9.20901 37.3421 9.46483 37.1716 9.46483Z" fill="black"/>
<path d="M62.5772 9.46476C62.3214 9.37949 62.1509 9.12367 61.8951 8.86787C61.8099 8.7826 61.8099 8.78261 61.7246 8.69734C61.8099 8.61207 61.8099 8.61207 61.8951 8.5268C62.1509 8.271 62.4067 8.0152 62.5772 7.92993C62.6624 7.92993 62.9182 8.18573 63.174 8.44153C63.2592 8.5268 63.4297 8.61207 63.515 8.78261C63.4297 8.86788 63.2592 8.95314 63.174 9.12368C62.9182 9.20894 62.6624 9.46476 62.5772 9.46476Z" fill="black"/>
<path d="M17.7321 22.0846C17.4764 22.0846 16.9648 21.6583 16.9648 21.4878C16.9648 21.3172 17.1354 20.9762 17.3911 20.6351C17.4764 20.4645 17.5616 20.3793 17.6469 20.2087C17.7321 20.3793 17.9027 20.4646 17.9879 20.5498C18.2437 20.8909 18.4994 21.1467 18.4994 21.4025C18.4142 21.573 17.9027 22.0846 17.7321 22.0846Z" fill="black"/>
<path d="M32.9092 32.9989C32.6534 32.9137 32.4829 32.6579 32.2271 32.4021C32.1419 32.3168 32.1419 32.3168 32.0566 32.2315C32.1419 32.1463 32.1419 32.1463 32.2271 32.061C32.4829 31.8052 32.7387 31.5494 32.9945 31.4641C33.0797 31.4641 33.3355 31.7199 33.5912 31.9757C33.6765 32.061 33.847 32.1463 33.9323 32.3168C33.847 32.4021 33.6765 32.4873 33.5912 32.5726C33.3355 32.7431 32.9944 32.9137 32.9092 32.9989Z" fill="black"/>
<path d="M59.0811 58.4943C58.8253 58.409 58.6548 58.1532 58.399 57.8974C58.3138 57.8121 58.3138 57.8121 58.2285 57.7268C58.3138 57.6416 58.3138 57.6416 58.399 57.5563C58.5695 57.3858 58.8253 57.0447 58.9106 57.0447C59.0811 57.0447 59.3368 57.3005 59.6779 57.5563C59.7631 57.6416 59.9336 57.7268 60.0189 57.8121C59.8484 57.8974 59.7631 58.0679 59.5926 58.1532C59.4221 58.2384 59.1663 58.4943 59.0811 58.4943Z" fill="black"/>
<path d="M19.609 65.401C16.8808 65.401 14.2379 64.2926 12.4476 62.2461C9.29311 58.7501 9.1226 53.5487 12.0213 49.7969C13.8116 47.4947 16.6251 46.1304 19.609 46.1304C21.2289 46.1304 22.8487 46.5567 24.2128 47.3241C24.2981 47.3241 24.3833 47.4094 24.3833 47.4094C24.4686 47.4094 24.5538 47.4947 24.5538 47.4947C24.7243 47.8357 24.8948 48.2621 25.0653 48.6884L25.1506 48.7737C25.0654 48.7737 24.9801 48.859 24.8948 48.859C24.5538 48.9442 24.2128 49.0295 23.957 49.0295C23.8718 49.0295 23.7865 49.0295 23.7865 49.0295C23.1897 48.9442 22.6782 48.6884 22.0814 48.5179C21.2289 48.2621 20.3763 47.921 19.5238 47.921C19.4385 47.921 19.3532 47.921 19.268 47.921C15.0905 47.921 11.6803 51.417 11.6803 55.6804C11.6803 58.9206 13.5559 61.7345 16.5398 63.0135C17.4776 63.4399 18.5007 63.6104 19.609 63.6104C21.7404 63.6104 23.7865 62.7577 25.3211 61.2229C27.5378 58.9206 28.1345 55.5952 26.8557 52.6108C26.7705 52.4402 26.6852 52.2697 26.5999 52.0139C26.3442 51.5875 26.1737 51.1612 26.2589 50.9054C26.3442 50.7349 26.5147 50.5643 26.7705 50.4791C26.941 50.3938 27.1115 50.3085 27.282 50.3085C27.7935 50.3085 27.964 50.8201 28.3051 51.5875C28.3903 51.7581 28.3903 51.8433 28.4756 51.9286C30.3512 56.2773 28.8166 61.2229 24.8948 63.8662C23.275 64.8042 21.4846 65.401 19.609 65.401Z" fill="black"/>
<path d="M19.609 60.6257C18.3302 60.6257 17.0513 60.0288 16.1135 59.0909C15.1757 58.1529 14.6642 56.8739 14.7494 55.5949C14.8347 53.0368 17.0513 50.8198 19.609 50.8198H19.6942C22.3372 50.9051 24.5538 53.1221 24.4685 55.7654C24.4685 58.4087 22.2519 60.6257 19.609 60.6257ZM19.609 52.6105C18.7564 52.6105 17.9891 52.9515 17.3924 53.5484C16.7956 54.1453 16.5398 54.9127 16.5398 55.8507C16.6251 57.556 17.9039 58.8351 19.609 58.8351C20.5468 58.8351 21.3141 58.494 21.8256 57.8971C22.4224 57.3002 22.6782 56.4475 22.6782 55.5949C22.6782 53.8895 21.3141 52.6105 19.609 52.6105Z" fill="black"/>
</svg>
