<svg width="50" height="50" viewBox="0 0 50 50" fill="none" xmlns="http://www.w3.org/2000/svg">
<path d="M5.21097 5.21097L5 5.41351V22.6203V39.827L5.17722 40.0549L5.34599 40.2743H7.54008H9.72574V42.4599V44.654L9.94515 44.8228L10.173 45H27.3797H44.5865L44.789 44.789L45 44.5865V27.3797V10.173L44.8228 9.94515L44.654 9.72574H42.4599H40.2743V7.54008V5.34599L40.0549 5.17722L39.827 5H22.6203H5.4135L5.21097 5.21097ZM39.0928 7.95359V9.72574H22.6371H6.18143V7.95359V6.18143H22.6371H39.0928V7.95359ZM39.0928 25V39.0928H22.6371H6.18143V25V10.9072H22.6371H39.0928V25ZM43.8186 12.6371V14.3671H42.0464H40.2743V12.6371V10.9072H42.0464H43.8186V12.6371ZM43.8186 29.6835V43.8186H27.3629H10.9072V42.0464V40.2743H25.4388C38.8397 40.2743 39.9789 40.2658 40.1224 40.1308C40.2658 40.0042 40.2743 39.5063 40.2743 27.7679V15.5485H42.0464H43.8186V29.6835Z" fill="black"/>
<path d="M31.9367 7.4979C31.692 7.66667 31.6836 8.13925 31.9198 8.37554C32.0633 8.519 32.1983 8.54431 32.8144 8.54431C33.7595 8.54431 34.0295 8.40929 34.0295 7.92828C34.0295 7.48946 33.7848 7.36288 32.9072 7.36288C32.3333 7.36288 32.0717 7.39663 31.9367 7.4979Z" fill="black"/>
<path d="M35.8017 7.53165C35.5569 7.77638 35.5823 8.15613 35.8523 8.3671C36.038 8.519 36.1983 8.54431 36.8143 8.54431C37.692 8.54431 37.9367 8.41773 37.9367 7.95359C37.9367 7.48102 37.7004 7.36288 36.7637 7.36288C36.0802 7.36288 35.9451 7.38819 35.8017 7.53165Z" fill="black"/>
<path d="M9.48945 12.9747C9.02531 13.1772 8.66244 13.5063 8.40928 13.962L8.16455 14.4093V20.443V26.4768L8.3502 26.8228C8.58649 27.27 9.10126 27.7257 9.56539 27.9029C9.90295 28.0295 10.4937 28.038 15.8861 28.0211C21.827 27.9958 21.8354 27.9958 22.1814 27.8101C22.3671 27.7089 22.654 27.481 22.8059 27.3122C23.3882 26.6456 23.3544 27.0169 23.3544 20.4852C23.3544 14.9747 23.346 14.5527 23.2025 14.1814C23.0169 13.692 22.3755 13.0928 21.8945 12.9494C21.3629 12.789 9.86075 12.8143 9.48945 12.9747ZM21.7848 14.1645C22.2152 14.4683 22.2152 14.4683 22.2152 20.1899C22.2152 23.3882 22.1814 25.4979 22.1392 25.4726C22.097 25.4388 21.4051 24.4852 20.6034 23.3291C18.6371 20.5021 18.6456 20.5105 18.2658 20.5443C17.9283 20.5696 17.9873 20.5105 16.1224 23.1688L15.481 24.0802L14.519 22.9747C13.557 21.8692 13.3291 21.7004 12.9747 21.8439C12.865 21.8861 12.0042 22.8059 11.0675 23.8861L9.34599 25.8608L9.32067 20.3418C9.30379 16.3418 9.32911 14.7637 9.39662 14.5949C9.45569 14.4683 9.59071 14.2827 9.70885 14.1983C9.91139 14.038 10.0802 14.0295 15.751 14.0295C21.0084 14.0295 21.6076 14.0464 21.7848 14.1645ZM20.0127 24.5274C20.8565 25.7257 21.5401 26.7468 21.5401 26.7806C21.5401 26.8228 18.9578 26.8565 15.7932 26.8565H10.0464L10.2574 26.6118C11.1097 25.5991 13.1435 23.3122 13.1941 23.3122C13.2278 23.3122 13.6413 23.7595 14.1139 24.2996C15.1772 25.5148 15.2532 25.5907 15.5401 25.5907C15.8439 25.5907 15.9958 25.4135 17.2447 23.6245C18.0633 22.443 18.308 22.1477 18.384 22.2321C18.443 22.2911 19.1772 23.3291 20.0127 24.5274Z" fill="black"/>
<path d="M12.5359 15.2109C11.3882 15.4472 10.4852 16.5358 10.4852 17.7004C10.4852 18.654 11.1435 19.6413 12.0211 20.0211C13.2532 20.5527 14.7046 19.9958 15.3122 18.7637C15.5823 18.2152 15.5907 17.1856 15.3122 16.6371C14.8059 15.6076 13.616 15 12.5359 15.2109ZM13.7004 16.5274C14.1139 16.7384 14.3249 17.135 14.3249 17.7004C14.3249 18.097 14.2827 18.2658 14.1308 18.4852C13.5992 19.2194 12.443 19.2278 11.9198 18.5021C11.0759 17.3207 12.4008 15.8523 13.7004 16.5274Z" fill="black"/>
<path d="M27.0506 15.2109C26.5359 15.3122 26.2405 15.4979 25.8523 15.9367C25.4726 16.3755 25.3376 16.7384 25.3376 17.3628C25.3376 18.1983 25.9958 19.1012 26.7637 19.3291C26.9831 19.3966 28.0633 19.4304 30.1561 19.4304C33.6076 19.4304 33.5992 19.4304 34.2152 18.789C34.6287 18.3586 34.8059 17.9029 34.8059 17.2953C34.8059 16.2827 34.1055 15.4388 33.1013 15.2194C32.5949 15.1097 27.5907 15.1097 27.0506 15.2109ZM33.1013 16.4599C33.5232 16.6709 33.7426 17.1434 33.616 17.5738C33.5654 17.7595 33.4219 17.9789 33.2954 18.0717C33.0844 18.2405 32.9747 18.2489 30.1392 18.2489C28.038 18.2489 27.135 18.2236 26.9831 18.1477C26.5527 17.9536 26.3671 17.1519 26.654 16.7384C26.9409 16.3418 27.1266 16.3164 30.0633 16.308C32.5106 16.308 32.8397 16.3249 33.1013 16.4599Z" fill="black"/>
<path d="M30.038 20.7046C29.692 20.9072 29.7173 21.0675 30.4768 24.3671C31.2616 27.751 31.2785 27.7848 31.7595 27.7848C32.0633 27.7848 32.2489 27.5401 32.5949 26.6878C32.7553 26.3164 32.8987 26.0126 32.9241 26.0126C32.9578 26.0126 33.4304 26.4683 33.9873 27.0253C34.7468 27.7848 35.0506 28.038 35.211 28.038C35.3713 28.038 35.6498 27.8186 36.2911 27.1688C37.4388 26.0126 37.4473 26.097 36.1308 24.7806L35.1181 23.7595L35.8776 23.4388C36.7131 23.0928 36.9241 22.924 36.9241 22.5865C36.9241 22.1477 36.7722 22.0886 33.4641 21.3291C31.7342 20.9325 30.2911 20.6118 30.2574 20.6118C30.2236 20.6118 30.1224 20.654 30.038 20.7046ZM32.8819 22.4008L34.4684 22.7637L34.1646 22.8987C33.7173 23.0928 33.5232 23.3038 33.5232 23.5907C33.5232 23.8017 33.7004 24.0295 34.6371 24.9747L35.7511 26.097L35.481 26.3671L35.211 26.6456L34.0886 25.5232C33.0338 24.4768 32.9409 24.4008 32.6709 24.4261C32.4008 24.4515 32.2996 24.5443 31.962 25.1266C31.8945 25.2363 31.8017 24.9409 31.557 23.8439C31.3798 23.0675 31.211 22.3418 31.1857 22.2321C31.1603 22.1308 31.1772 22.0464 31.211 22.0464C31.2532 22.0464 32.0042 22.2067 32.8819 22.4008Z" fill="black"/>
<path d="M8.29959 30.1983C8.13081 30.4177 8.12238 30.5105 8.12238 33.5654C8.12238 36.6202 8.13081 36.713 8.29959 36.9324L8.46837 37.1519H12.249C15.8017 37.1519 16.038 37.1434 16.1646 37C16.2912 36.8565 16.308 36.4936 16.308 33.54V30.2405L16.1224 30.1139C15.9536 29.9957 15.4388 29.9789 12.2068 29.9789H8.46837L8.29959 30.1983ZM15.1266 33.5654V35.9704H12.2152H9.30381V33.5654V31.1603H12.2152H15.1266V33.5654Z" fill="black"/>
<path d="M10.8734 33.1434C10.6118 33.405 10.6456 33.8523 10.9409 34.0464C10.9916 34.0801 11.5907 34.1139 12.2658 34.1139C13.3544 34.1139 13.5148 34.097 13.6329 33.962C13.8186 33.751 13.8101 33.3291 13.6245 33.1603C13.4051 32.9578 11.076 32.9493 10.8734 33.1434Z" fill="black"/>
<path d="M18.5021 30.1476C18.3418 30.308 18.3333 30.4261 18.3333 33.5907C18.3333 36.6624 18.3418 36.8818 18.4852 37.0084C18.6287 37.1434 19.3966 37.1519 27.7595 37.1519C36.4768 37.1519 36.8819 37.1434 37.0084 37C37.135 36.8565 37.1519 36.5021 37.1519 33.5822C37.1519 30.4261 37.1435 30.308 36.9831 30.1476C36.8144 29.9789 36.7047 29.9789 27.7426 29.9789C18.7806 29.9789 18.6709 29.9789 18.5021 30.1476ZM35.9705 33.5654V35.9704H27.7426H19.5148V33.5654V31.1603H27.7426H35.9705V33.5654Z" fill="black"/>
<path d="M21.6836 33.1687C21.4979 33.3797 21.5063 33.8017 21.692 33.9704C21.827 34.0886 22.0549 34.1139 23.076 34.1139C24.1814 34.1139 24.3165 34.097 24.4515 33.9451C24.5274 33.8607 24.6034 33.6835 24.6034 33.5654C24.6034 33.4472 24.5274 33.27 24.4515 33.1856C24.3165 33.0337 24.1814 33.0168 23.0591 33.0168C21.962 33.0168 21.8017 33.0337 21.6836 33.1687Z" fill="black"/>
<path d="M26.3502 33.1856C26.1477 33.3882 26.1308 33.6666 26.3165 33.9282C26.443 34.1055 26.4937 34.1139 27.7426 34.1139C28.9916 34.1139 29.0422 34.1055 29.1688 33.9282C29.3544 33.6666 29.3376 33.3882 29.135 33.1856C28.9831 33.0337 28.8565 33.0168 27.7426 33.0168C26.6287 33.0168 26.5021 33.0337 26.3502 33.1856Z" fill="black"/>
<path d="M31.0507 33.1687C30.865 33.3797 30.8734 33.8017 31.0591 33.9704C31.1941 34.0886 31.422 34.1139 32.4431 34.1139C33.5485 34.1139 33.6836 34.097 33.8186 33.9451C33.8945 33.8607 33.9705 33.6835 33.9705 33.5654C33.9705 33.4472 33.8945 33.27 33.8186 33.1856C33.6836 33.0337 33.5485 33.0168 32.4262 33.0168C31.3291 33.0168 31.1688 33.0337 31.0507 33.1687Z" fill="black"/>
<path d="M33.481 41.6667C33.2194 41.9198 33.211 42.2152 33.4641 42.4515C33.6498 42.6203 33.7426 42.6371 34.8397 42.6371C35.9705 42.6371 36.038 42.6287 36.2068 42.4431C36.4599 42.173 36.443 41.8439 36.173 41.6329C35.9705 41.4726 35.8354 41.4557 34.8143 41.4557C33.7257 41.4557 33.6751 41.4642 33.481 41.6667Z" fill="black"/>
<path d="M38.9747 41.6329C38.7046 41.8439 38.6793 42.2236 38.9241 42.4684C39.0759 42.6203 39.2025 42.6371 40.308 42.6371C41.5232 42.6371 41.5316 42.6371 41.7004 42.4177C41.9283 42.1224 41.9198 41.9198 41.6667 41.6667C41.4726 41.4642 41.4219 41.4557 40.3333 41.4557C39.3122 41.4557 39.1772 41.4726 38.9747 41.6329Z" fill="black"/>
</svg>
