<svg width="50" height="50" viewBox="0 0 50 50" fill="none" xmlns="http://www.w3.org/2000/svg">
<path d="M5.12766 5.15159C5.04255 5.2367 5 5.77925 5 6.90691C5 8.39627 5.02128 8.53457 5.20213 8.64095C5.31915 8.69415 5.96809 8.74733 6.6383 8.74733H7.87234V21.6729V34.5984H6.48936C5.14894 34.5984 5.10638 34.609 5.05319 34.8324C5.02128 34.9707 5.01064 35.7686 5.02128 36.6197L5.05319 38.1622L14.7872 38.2154L24.5213 38.2686L24.5532 39.6729L24.5851 41.0771L24.234 41.2261C23.1383 41.6835 22.6915 43.1303 23.3404 44.0984C24.1596 45.3005 25.8404 45.3005 26.6596 44.0984C27.3085 43.1303 26.8617 41.6835 25.766 41.2261L25.4149 41.0771L25.4468 39.6729L25.4787 38.2686L35.1489 38.2367C42.734 38.2154 44.8511 38.1835 44.9149 38.0771C45.0106 37.9282 45.0319 35.0133 44.9362 34.7686C44.883 34.6303 44.6489 34.5984 43.5 34.5984H42.1277V21.6729V8.74733H43.3617C44.0319 8.74733 44.6809 8.69415 44.7979 8.64095C44.9787 8.53457 45 8.39627 45 6.90691C45 5.77925 44.9574 5.2367 44.8723 5.15159C44.6915 4.97074 5.30851 4.97074 5.12766 5.15159ZM44.1489 6.88563V7.78989H25H5.85106V6.88563V5.98138H25H44.1489V6.88563ZM41.1702 21.6729V34.5984H25H8.82979V21.6729V8.74733H25H41.1702V21.6729ZM44.1277 36.4282L44.1596 37.3644H25H5.85106V36.4814C5.85106 35.992 5.88298 35.5559 5.92553 35.5239C5.95745 35.4814 14.5638 35.4601 25.0426 35.4707L44.0957 35.5027L44.1277 36.4282ZM25.7766 42.3644C26.1809 42.8112 26.1702 43.3431 25.7553 43.758C24.8298 44.6729 23.3617 43.4388 24.1596 42.4282C24.617 41.8537 25.2766 41.8218 25.7766 42.3644Z" fill="black"/>
<path d="M14.8617 11.0983C12.234 11.4813 10.2766 14.2154 10.7234 16.8537C11.234 19.8005 14.0958 21.6728 16.9681 20.9281C19.4362 20.2792 21.0745 17.7898 20.6596 15.3111C20.1809 12.5132 17.6702 10.6834 14.8617 11.0983ZM15.4255 16.4388C15.5106 16.5132 16.234 17.0771 17.0213 17.6834C17.8085 18.2898 18.5 18.8217 18.5532 18.8643C18.6809 18.9813 18.1383 19.4388 17.5 19.7579C15.4894 20.7473 13.0638 19.9175 12 17.8856C11.6702 17.2366 11.6489 17.1409 11.6489 16.0877C11.6489 15.0983 11.6809 14.8962 11.9255 14.3749C12.4468 13.2579 13.4575 12.4068 14.5745 12.1196L15.1596 11.9707L15.2128 14.1303C15.2553 15.8643 15.2979 16.3217 15.4255 16.4388ZM17.5319 12.3856C18.2128 12.7047 19.0426 13.5664 19.3936 14.3005C19.8617 15.2898 19.8723 15.2898 18.2979 15.3962C17.7979 15.4281 17.117 15.4813 16.7872 15.5239L16.1702 15.5877V13.7685V11.96L16.5958 12.0558C16.8404 12.109 17.2553 12.2579 17.5319 12.3856ZM19.7447 16.6834C19.7128 16.96 19.5745 17.4175 19.4362 17.7047L19.2021 18.2154L18.0638 17.343C17.4468 16.8537 16.9894 16.4494 17.0532 16.4281C17.234 16.3962 19.0213 16.226 19.4575 16.2047L19.8192 16.1941L19.7447 16.6834Z" fill="black"/>
<path d="M35.8511 15.141C35.2128 15.407 34.766 16.0772 34.766 16.7793C34.766 17.2261 34.7553 17.2368 33.3298 18.4815L31.883 19.7368L31.5213 19.5559C30.7872 19.2049 29.9362 19.407 29.3936 20.0666L29.0745 20.4602L27.9681 20.0027C26.9574 19.5772 26.8617 19.5134 26.7979 19.2049C26.6808 18.6304 26.3511 18.173 25.8511 17.9176C25.2553 17.6198 24.8298 17.6198 24.2553 17.9283C23.7128 18.2155 23.2979 18.8857 23.2979 19.4921C23.2979 19.8538 23.2021 19.9815 21.7979 21.3006C20.3936 22.6304 20.2979 22.7049 20.0425 22.5878C19.383 22.29 18.3723 22.5453 17.9681 23.1304C16.7128 24.8964 19.1277 26.9496 20.6064 25.3857C20.9894 24.9708 21.117 24.4815 21.0319 23.8006L20.9681 23.3432L22.3723 22.024L23.7766 20.7049L24.2021 20.9496C24.8191 21.3219 25.5851 21.2474 26.1808 20.7793L26.6064 20.4283L27.7979 20.9176C28.9468 21.3964 29 21.4389 29.2553 21.9176C29.6064 22.5878 30.3085 22.9496 31.0213 22.8432C31.9574 22.7049 32.6808 21.7261 32.5106 20.8113C32.4468 20.4815 32.4894 20.4283 33.8404 19.2474L35.2447 18.0134L35.5532 18.2474C35.9894 18.5666 36.9894 18.5772 37.4149 18.2581C38.4574 17.4815 38.4681 16.0772 37.4255 15.3113C37.0957 15.0666 36.2447 14.9708 35.8511 15.141ZM37.117 16.2581C37.2447 16.4176 37.3404 16.6623 37.3404 16.8006C37.3404 17.1623 36.8936 17.5772 36.4894 17.5772C36.0851 17.5772 35.6383 17.1623 35.6383 16.8006C35.6383 16.3538 36.0213 15.9815 36.4894 15.9815C36.8085 15.9815 36.9468 16.0453 37.117 16.2581ZM25.617 18.8538C25.9255 19.141 25.9255 19.7368 25.6383 20.024C25.5106 20.1517 25.2872 20.2368 25.0532 20.2368C24.5745 20.2368 24.2553 19.9283 24.2553 19.4708C24.2553 18.7581 25.0957 18.3751 25.617 18.8538ZM31.4468 20.641C32.0106 21.3751 30.8723 22.3857 30.2128 21.7261C29.766 21.2793 29.9894 20.4176 30.5745 20.3219C30.8723 20.2687 31.2766 20.4176 31.4468 20.641ZM19.9042 23.6304C20.2553 23.9815 20.2766 24.1623 20.0532 24.5878C19.7979 25.0985 19.1915 25.1836 18.7766 24.7581C18.2447 24.2368 18.6277 23.3538 19.3936 23.3325C19.5 23.3219 19.734 23.4602 19.9042 23.6304Z" fill="black"/>
<path d="M34.6383 19.9814C34.4894 20.1303 34.4681 20.8537 34.4681 26.3644C34.4681 30.4495 34.5106 32.6623 34.5745 32.8006C34.6809 32.992 34.8192 33.0027 36.4894 33.0027C38.1596 33.0027 38.2979 32.992 38.4043 32.8006C38.4681 32.6623 38.5106 30.4495 38.5106 26.3644C38.5106 20.8537 38.4894 20.1303 38.3404 19.9814C38.2021 19.8431 37.883 19.8112 36.4894 19.8112C35.0958 19.8112 34.7766 19.8431 34.6383 19.9814ZM37.5532 26.4601V32.1516H36.4894H35.4255V26.4601V20.7686H36.4894H37.5532V26.4601Z" fill="black"/>
<path d="M23.2128 22.9176C23.0319 23.0984 23.0319 32.6942 23.2128 32.875C23.2979 32.9601 23.8617 33.0027 25.0532 33.0027C26.2447 33.0027 26.8085 32.9601 26.8936 32.875C27.0745 32.6942 27.0745 23.0984 26.8936 22.9176C26.7128 22.7367 23.3936 22.7367 23.2128 22.9176ZM26.117 27.8963V32.0984L25.0851 32.1303L24.0425 32.1623V27.8963V23.6303L25.0851 23.6623L26.117 23.6942V27.8963Z" fill="black"/>
<path d="M28.9574 24.5133C28.8617 24.609 28.8298 25.6941 28.8298 28.758C28.8298 32.4175 28.8511 32.8856 29 32.9388C29.3298 33.0665 32.5 33.0133 32.6383 32.875C32.8192 32.6941 32.8192 24.6941 32.6383 24.5133C32.4574 24.3324 29.1383 24.3324 28.9574 24.5133ZM31.8085 28.6941V32.1622L30.7766 32.1303L29.734 32.0984L29.7021 28.8005C29.6915 26.992 29.7021 25.4495 29.734 25.375C29.766 25.2793 30.0745 25.2367 30.7979 25.2367H31.8085V28.6941Z" fill="black"/>
<path d="M17.5745 27.2155C17.3404 27.375 17.3404 27.4069 17.3404 29.9814C17.3404 31.5772 17.383 32.6729 17.4468 32.8006C17.5532 32.992 17.6915 33.0027 19.3617 33.0027C21.0319 33.0027 21.1702 32.992 21.2766 32.8006C21.3404 32.6729 21.383 31.5878 21.383 30.0346C21.383 26.7899 21.5532 27.0452 19.383 27.0452C18.1383 27.0452 17.766 27.0772 17.5745 27.2155ZM20.4255 30.0772V32.1516H19.3617H18.2979V30.0772V28.0027H19.3617H20.4255V30.0772Z" fill="black"/>
</svg>
