<svg width="50" height="50" viewBox="0 0 50 50" fill="none" xmlns="http://www.w3.org/2000/svg">
<path d="M28.7592 5.28563C28.4777 5.58587 28.4121 6.0456 28.5997 6.41151C28.7123 6.61793 29.1626 6.89001 29.4066 6.89001C29.7068 6.89001 30.129 6.58978 30.251 6.28954C30.6451 5.35131 29.4535 4.55381 28.7592 5.28563Z" fill="black"/>
<path d="M20.1087 7.06836C19.5083 7.34045 19.1986 7.81895 19.1517 8.53201C19.1048 9.25445 19.3394 9.77986 19.8835 10.1364C20.8781 10.7932 22.2854 10.2959 22.595 9.17001C22.717 8.72903 22.717 8.61645 22.6044 8.18486C22.3136 7.14342 21.1126 6.60862 20.1087 7.06836Z" fill="black"/>
<path d="M29.735 7.80955C29.1439 7.91276 28.7029 8.48508 28.7029 9.14185C28.7029 9.63911 28.9187 10.0144 29.3597 10.2583C30.0165 10.6243 30.7483 10.4272 31.1424 9.77985C31.7241 8.82285 30.8515 7.61252 29.735 7.80955Z" fill="black"/>
<path d="M24.4902 8.93533C23.993 9.17927 23.7772 9.54518 23.7772 10.1081C23.7772 11.3747 25.2314 11.9189 26.0665 10.9713C26.6294 10.3333 26.4324 9.32938 25.6818 8.94471C25.2502 8.71953 24.903 8.71953 24.4902 8.93533Z" fill="black"/>
<path d="M9 13.8611V15.2966L13.0813 24.2943L17.1626 33.2826L16.9281 34.0238C16.3089 35.9847 16.459 38.1802 17.3503 40.0754C17.8476 41.145 18.4105 41.9144 19.3112 42.7494C22.5481 45.7518 27.5771 45.7518 30.7858 42.74C32.3996 41.2295 33.3097 39.353 33.5348 37.1012C33.6099 36.3131 33.4316 34.8964 33.1502 33.9957L32.925 33.2826L37.0063 24.2943L41.0876 15.2966V13.8611V12.4256H25.0438H9V13.8611ZM40.1213 15.6813C40.0556 15.9346 32.6341 32.2599 32.5497 32.3444C32.5122 32.3913 32.3714 32.2318 32.2307 31.9972C31.2456 30.3084 29.219 28.826 27.1548 28.2724C26.1697 28.0097 24.1056 27.9816 23.1392 28.2161C21.0469 28.7322 18.9828 30.1771 17.9601 31.8283C17.7631 32.1567 17.5661 32.3819 17.5286 32.3444C17.4535 32.2599 10.0321 15.9253 9.96638 15.6813C9.91947 15.5312 10.6794 15.5218 25.0438 15.5218C39.4082 15.5218 40.1682 15.5312 40.1213 15.6813ZM25.4191 31.0965V31.8471H26.9672H28.5153V32.1755V32.5039H26.9672H25.4191V34.3334V36.163H26.5825C27.624 36.163 27.7647 36.1818 28.0556 36.3788C28.5903 36.7353 28.7405 37.1669 28.778 38.4804C28.8249 39.7846 28.6842 40.3757 28.2432 40.7979C27.8867 41.1356 27.502 41.2295 26.3855 41.2295H25.4285L25.4003 41.9519L25.3722 42.6837H25.0438H24.7154L24.6873 41.9519L24.6591 41.2295H23.2143H21.76V40.8542V40.4789H23.2143H24.6685V38.6493V36.8198H23.8053C21.8913 36.8198 21.3096 36.3225 21.2158 34.6055C21.1408 33.1513 21.4504 32.4007 22.276 32.0254C22.5669 31.894 22.8859 31.8471 23.6646 31.8471H24.6685V31.0965V30.3459H25.0438H25.4191V31.0965Z" fill="black"/>
<path d="M25.5598 17.1543C25.0438 17.3889 24.828 17.7173 24.7811 18.3271C24.7436 18.8338 24.7623 18.8901 25.0344 19.2091C25.7099 19.969 26.7983 19.8565 27.2486 18.9933C27.5395 18.4303 27.3331 17.6141 26.8077 17.2669C26.4887 17.0605 25.8882 17.0042 25.5598 17.1543Z" fill="black"/>
<path d="M32.0242 17.586C31.4707 17.8112 31.3487 18.5618 31.7897 19.0028C32.484 19.6877 33.5817 18.9465 33.2064 18.0458C33.0188 17.5954 32.4934 17.3984 32.0242 17.586Z" fill="black"/>
<path d="M17.491 18.1488C16.9187 18.3834 16.656 19.1058 16.9187 19.6687C17.2565 20.3818 18.2604 20.5225 18.7858 19.9315C18.9828 19.7063 19.0391 19.5562 19.0391 19.1996C19.0391 18.9463 18.9734 18.6648 18.889 18.5429C18.6075 18.13 17.9601 17.9518 17.491 18.1488Z" fill="black"/>
<path d="M28.9844 19.7157C28.4121 20.0066 28.3183 20.8791 28.8249 21.2638C29.097 21.4796 29.7162 21.4796 29.9883 21.2638C30.1103 21.1794 30.2417 20.973 30.2792 20.8228C30.5137 19.9972 29.735 19.331 28.9844 19.7157Z" fill="black"/>
<path d="M20.1181 21.6579C19.771 21.8174 19.3675 22.2396 19.2362 22.5867C19.0485 23.084 19.1048 23.797 19.3863 24.2192C20.2401 25.5515 22.201 25.2232 22.6138 23.6844C22.8109 22.9339 22.3793 22.0332 21.6568 21.6579C21.3284 21.489 20.4934 21.489 20.1181 21.6579Z" fill="black"/>
<path d="M29.5004 22.5023C29.3409 22.568 29.0876 22.765 28.9469 22.9433C28.7123 23.2248 28.6842 23.3092 28.7217 23.7971C28.7499 24.2381 28.8155 24.3976 29.0313 24.6227C29.8757 25.5047 31.33 24.9417 31.33 23.7314C31.33 22.7932 30.3261 22.1176 29.5004 22.5023Z" fill="black"/>
<path d="M24.4058 23.5906C23.7584 23.9847 23.5614 24.7165 23.9273 25.3733C24.1713 25.8142 24.5466 26.03 25.0438 26.03C26.0853 26.03 26.7045 25.0074 26.226 24.0785C25.8976 23.4405 25.0344 23.2153 24.4058 23.5906Z" fill="black"/>
<path d="M22.5387 32.6445C22.0696 32.8509 21.9101 33.2544 21.9101 34.2864C21.9101 35.797 22.154 36.0503 23.6646 36.1347L24.6685 36.191V34.3521V32.5038H23.7584C23.1861 32.5132 22.7264 32.5601 22.5387 32.6445Z" fill="black"/>
<path d="M25.4191 38.6493V40.4789H26.4418C27.0047 40.4789 27.5395 40.4507 27.624 40.4226C28.0086 40.2725 28.2432 39.0528 28.0931 37.8987C28.0462 37.4765 27.9711 37.2889 27.7647 37.0825C27.502 36.8291 27.4738 36.8198 26.4605 36.8198H25.4191V38.6493Z" fill="black"/>
</svg>
