<svg width="73" height="73" viewBox="0 0 73 73" fill="none" xmlns="http://www.w3.org/2000/svg">
<path d="M51.2168 57.1147C47.38 58.6318 43.5432 58.2748 39.7957 58.2748C33.9066 58.2748 28.1068 58.2748 22.2177 58.2748C21.8608 58.2748 21.4147 58.3641 21.0578 58.2748C20.6117 58.0071 20.344 57.5609 19.8978 57.2932C20.2548 56.9362 20.6117 56.3115 21.0578 56.3115C22.7531 56.2223 24.4485 56.2223 26.1438 56.2223C29.1775 56.2223 32.122 56.2223 35.6019 56.2223C33.282 54.5267 31.5867 52.7419 28.6422 53.0988C26.5007 53.3665 24.27 53.1881 22.1285 53.1881C21.2363 53.1881 19.8978 53.4558 19.987 52.0279C19.987 50.6001 21.3255 50.957 22.2177 50.957C24.6269 50.957 27.0361 50.957 29.2668 50.957C28.1068 48.2798 26.9468 45.781 25.7869 43.0145C24.4484 43.0145 22.8423 43.1038 21.3255 42.9253C20.7901 42.9253 20.344 42.3006 19.8978 41.9436C20.344 41.5866 20.7901 40.962 21.3255 40.962C22.7531 40.7835 24.27 40.8727 25.7869 40.8727C25.7869 39.8018 25.7869 38.9094 25.7869 37.7492C24.3592 37.7492 22.9316 37.7492 21.5039 37.7492C20.7009 37.7492 19.987 37.66 19.987 36.6783C19.987 35.6967 20.7009 35.6075 21.5039 35.6075C22.7531 35.6075 24.0915 35.6967 25.3407 35.6075C25.6976 35.6075 26.233 35.3397 26.4115 34.9827C27.393 32.7517 28.2853 30.4314 29.2668 28.0219C27.2145 28.0219 25.0731 28.0219 22.8424 28.0219C22.3962 28.0219 21.8608 28.0219 21.4147 28.0219C20.6117 28.0219 19.8086 27.7542 19.987 26.8618C20.0763 26.4156 20.8793 25.8801 21.4147 25.8801C23.6454 25.7909 25.9653 25.6124 28.196 25.8801C31.2298 26.3263 33.1928 24.72 35.4235 22.8459C34.7989 22.8459 34.3527 22.7566 33.9066 22.7566C29.8021 22.7566 25.6977 22.7566 21.5932 22.7566C20.7901 22.7566 19.987 22.7566 19.987 21.6857C20.0763 20.7041 20.7901 20.7041 21.5932 20.7041C29.5345 20.7041 37.4757 20.7041 45.417 20.7933C47.2908 20.7933 49.2538 21.3288 51.2168 21.6857C51.2168 19.7224 51.2168 17.6699 51.2168 15.4388C48.1831 15.4388 45.1493 15.4388 42.1156 15.4388C39.1711 15.4388 38.1003 14.3679 38.1003 11.4229C38.1003 8.38872 38.1003 5.3545 38.1003 2.23104C37.4757 2.23104 36.9404 2.23104 36.405 2.23104C25.7869 2.23104 15.1687 2.23104 4.4614 2.23104C2.2307 2.23104 2.23069 2.32029 2.14146 4.55133C2.14146 6.87162 2.14146 9.28114 2.14146 11.6014C2.14146 12.4046 2.05225 13.2078 0.981513 13.2078C0.0892334 13.2078 0 12.4046 0 11.6014C0 8.83493 0 6.15768 0 3.39119C0 1.33863 1.33844 0 3.39068 0C15.0795 0 26.8576 0 38.5465 0C39.0818 0 39.7957 0.35697 40.2418 0.713936C44.3463 4.81906 48.54 8.92418 52.5552 13.0293C53.0014 13.4755 53.2691 14.2787 53.2691 14.9034C53.3583 17.0452 53.3583 19.2762 53.2691 21.418C53.2691 22.3997 53.5367 22.9351 54.3398 23.4706C58.712 26.1478 61.4781 30.0745 62.7272 35.072C62.8165 35.429 62.9949 35.8752 62.9057 36.1429C62.8165 36.4999 62.4596 37.1246 62.1919 37.1246C61.835 37.1246 61.2104 36.8568 61.0319 36.4999C60.7642 36.0537 60.7642 35.429 60.5858 34.8935C58.2658 26.7725 50.5922 21.775 42.1156 22.9351C34.2635 24.006 28.196 30.9669 28.0176 39.1771C27.8391 47.2981 33.8174 54.4374 41.8479 55.7761C51.2168 57.3824 60.0504 50.7785 61.1211 41.3189C61.1211 41.0512 61.1211 40.6942 61.2996 40.5157C61.5673 40.0695 62.0134 39.8018 62.3703 39.4448C62.7272 39.891 63.3518 40.4265 63.3518 40.7835C62.8165 43.193 62.1026 45.6025 61.3888 48.012C61.2104 48.6367 60.4965 49.4399 60.675 49.7076C61.2104 50.6 62.1026 51.8494 62.8165 51.8494C65.3148 51.8494 66.1179 53.902 67.5455 55.1514C69.0624 56.49 70.4901 57.9179 71.8285 59.5242C73.4346 61.4875 73.0777 64.3433 71.2931 66.1281C69.5085 67.9129 66.564 68.0914 64.6902 66.3958C62.2811 64.1648 59.9612 61.7553 57.6412 59.435C57.4628 59.2565 57.2843 58.9888 57.2843 58.8103C57.7305 57.3824 56.5705 56.7577 55.7675 55.9546C55.4998 55.6868 54.8752 55.4191 54.5183 55.5083C53.8044 55.5976 53.5368 56.133 53.5368 56.9362C53.626 60.7736 53.5368 64.611 53.5368 68.4484C53.5368 71.5719 52.466 72.6428 49.3431 72.6428C34.2635 72.6428 19.2732 72.6428 4.19372 72.6428C1.15997 72.6428 0.0892334 71.5719 0.0892334 68.5376C0.0892334 51.4925 0.0892334 34.4473 0.0892334 17.4914C0.0892334 17.1344 1.08894e-05 16.6882 0.178467 16.3312C0.446151 15.9743 0.803068 15.4388 1.15998 15.4388C1.51689 15.4388 1.96301 15.9743 2.14146 16.3312C2.31992 16.7774 2.2307 17.3129 2.2307 17.8483C2.2307 34.6258 2.2307 51.314 2.2307 68.0914C2.2307 70.4117 2.31994 70.501 4.63986 70.501C19.4517 70.501 34.2635 70.501 49.0754 70.501C51.3061 70.501 51.3953 70.4117 51.3953 68.1807C51.3953 64.968 51.3953 61.7553 51.3953 58.5426C51.2168 58.1856 51.2168 57.7394 51.2168 57.1147ZM59.6935 58.7211C61.6565 60.6844 63.6195 62.7369 65.6718 64.7002C66.8317 65.7711 68.527 65.6819 69.5978 64.611C70.6685 63.5401 70.847 61.7553 69.7762 60.6844C67.8132 58.6318 65.761 56.6685 63.798 54.7052C62.3703 56.133 61.0319 57.3824 59.6935 58.7211ZM49.0754 13.297C46.1308 10.352 43.1863 7.31782 40.1526 4.28361C40.1526 6.78237 40.0633 9.45962 40.2418 12.0476C40.2418 12.4938 40.9556 13.2078 41.3125 13.2078C43.9894 13.3863 46.6662 13.297 49.0754 13.297ZM56.6597 53.9912C57.4628 54.7944 58.1766 55.5083 58.8904 56.2223C59.6935 55.4191 60.4965 54.6159 61.1211 53.9912C60.4073 53.0988 59.6935 52.2956 59.0689 51.4925C58.1766 52.4741 57.4628 53.1881 56.6597 53.9912Z" fill="black"/>
<path d="M56.303 39.8018C56.1245 34.8042 53.9831 31.1453 49.6109 29.0928C45.2387 27.0402 40.8666 27.4864 37.119 30.5206C33.4606 33.5549 32.1222 37.4815 33.1037 42.2113C33.193 42.479 33.3714 42.836 33.2822 43.0145C33.1037 43.5499 32.836 43.9961 32.5684 44.4423C32.1222 44.1746 31.4084 43.9069 31.2299 43.5499C30.3377 40.7834 30.4269 38.1062 31.2299 35.3397C33.4606 28.4681 40.5989 24.4522 47.6479 26.0586C54.5184 27.6649 59.2475 34.4473 58.266 41.2296C57.1953 48.6367 50.9493 53.902 43.6326 53.4558C39.7958 53.188 36.4944 51.5817 33.996 48.726C33.4606 48.1013 32.5684 47.3873 33.5499 46.5841C34.5314 45.781 35.0667 46.6734 35.6021 47.2981C38.8143 50.7785 42.8296 52.1171 47.3802 50.957C51.9308 49.7969 54.7861 46.7626 55.8569 42.2113C56.2138 41.3189 56.2138 40.4265 56.303 39.8018Z" fill="black"/>
<path d="M43.3651 37.8385C44.4358 36.7676 45.5065 35.7859 46.488 34.8043C48.0049 33.2872 50.0572 33.1979 51.3956 34.6258C52.734 35.9644 52.6448 37.9277 51.2171 39.4449C49.5218 41.2297 47.8265 43.0145 46.0419 44.7101C44.3466 46.4057 42.562 46.4057 40.7775 44.7101C39.9744 43.9962 39.1714 43.193 38.4575 42.4791C36.8514 40.8727 36.7622 38.9987 38.0114 37.5708C39.3498 36.1429 41.2236 36.1429 42.9189 37.5708C43.0974 37.5708 43.1866 37.66 43.3651 37.8385ZM40.5098 38.4632C40.1529 38.8202 39.6175 38.9986 39.5283 39.2664C39.439 39.7126 39.5283 40.3373 39.796 40.6942C40.599 41.5867 41.4913 42.3898 42.3836 43.2822C43.0974 43.9962 43.8112 43.9069 44.4358 43.193C46.1311 41.4082 47.8265 39.7126 49.611 37.9277C50.1464 37.3923 50.4141 36.6784 49.7003 36.0537C49.0757 35.429 48.3618 35.7859 47.8265 36.3214C46.845 37.303 45.9527 38.2847 44.9712 39.2664C43.3651 40.8727 43.3651 40.8727 41.6697 39.3556C41.4021 38.9987 40.9559 38.8202 40.5098 38.4632Z" fill="black"/>
<path d="M7.31641 24.4522C7.31641 19.9009 7.49485 19.7224 11.9562 19.7224C16.5069 19.7224 16.6853 19.9009 16.6853 24.5415C16.6853 28.9143 16.5069 29.182 12.0455 29.182C11.9563 29.182 11.9563 29.182 11.867 29.182C7.40564 29.182 7.31641 29.0928 7.31641 24.4522ZM14.4546 27.0402C14.4546 25.2554 14.4546 23.649 14.4546 22.0427C12.7593 22.0427 11.1532 22.0427 9.54711 22.0427C9.54711 23.7383 9.54711 25.3446 9.54711 27.0402C11.2424 27.0402 12.7593 27.0402 14.4546 27.0402Z" fill="black"/>
<path d="M12.1348 49.9753C16.5069 49.9753 16.7746 50.1538 16.7746 54.6159C16.7746 59.2565 16.5962 59.435 12.0455 59.435C7.58416 59.435 7.40572 59.2565 7.40572 54.7052C7.31649 50.0646 7.40571 49.9753 12.1348 49.9753ZM14.5439 52.2064C12.7594 52.2064 11.1533 52.2064 9.54718 52.2064C9.54718 53.902 9.54718 55.5083 9.54718 57.1147C11.2425 57.1147 12.8486 57.1147 14.5439 57.1147C14.5439 55.4191 14.5439 53.902 14.5439 52.2064Z" fill="black"/>
<path d="M11.867 44.0855C7.49487 44.0855 7.31641 43.907 7.31641 39.5342C7.31641 38.6418 7.31641 37.7493 7.31641 36.8569C7.40563 35.5183 8.20869 34.7151 9.54711 34.7151C11.1532 34.6259 12.8486 34.6259 14.5439 34.7151C15.8823 34.8044 16.6854 35.6075 16.7746 36.8569C16.8638 38.4633 16.8638 40.1589 16.7746 41.8545C16.6854 43.1931 15.7931 43.9963 14.4547 44.0855C14.3654 44.0855 14.2762 44.0855 14.187 44.0855C13.3839 44.0855 12.6701 44.0855 11.867 44.0855ZM9.45788 41.8545C11.1532 41.8545 12.7593 41.8545 14.4547 41.8545C14.4547 40.1589 14.4547 38.5525 14.4547 36.8569C12.7593 36.8569 11.1532 36.8569 9.45788 36.8569C9.45788 38.6418 9.45788 40.2481 9.45788 41.8545Z" fill="black"/>
</svg>
