<svg width="69" height="69" viewBox="0 0 69 69" fill="none" xmlns="http://www.w3.org/2000/svg">
<path d="M37.7161 60.5248C37.2006 60.5248 36.6851 60.5248 36.1734 60.5248C26.853 60.5248 17.5325 60.5361 8.21214 60.5173C4.29132 60.5098 1.47302 58.6209 0.426968 55.2908C0.167336 54.4592 0.0243667 53.5562 0.020604 52.6832C-0.0057355 38.791 -0.00198742 24.8988 0.00553814 11.0066C0.00930092 6.70576 2.85397 3.48859 7.10967 2.93546C8.40783 2.76613 8.82172 3.10102 8.83301 4.41799C8.86311 7.43574 8.86688 10.4535 8.88569 13.4712C8.88569 13.5089 8.93086 13.5427 9.04375 13.7121C9.41626 13.7309 9.89037 13.7685 10.3607 13.7685C19.8128 13.7723 29.2687 13.761 38.7208 13.7911C39.6389 13.7948 40.2786 13.5277 40.922 12.873C44.7224 9.01611 48.5605 5.19689 52.3947 1.3739C54.2385 -0.466096 55.785 -0.45481 57.6476 1.38895C58.4039 2.13775 59.1602 2.8903 59.9052 3.65038C61.6135 5.39255 61.6135 6.95411 59.8714 8.71133C58.2835 10.3105 56.6579 11.8758 55.1528 13.776C57.1584 13.776 59.1677 13.776 61.1733 13.776C63.4422 13.776 63.4536 13.7873 63.4573 16.109C63.4573 22.3213 63.4573 28.5337 63.4573 35.19C64.4469 34.2079 65.1581 33.414 65.9708 32.7367C66.3998 32.3792 67.0018 32.2249 67.5249 31.9766C67.7469 32.5485 68.1646 33.1205 68.1646 33.6962C68.2022 44.5255 68.1946 55.3548 68.1909 66.1841C68.1909 67.7682 67.9538 68.009 66.3246 68.009C55.5404 68.0165 44.7563 68.024 33.9684 67.9827C33.3889 67.9789 32.8095 67.565 32.23 67.343C32.4896 66.7786 32.6289 66.0937 33.0352 65.6685C34.5893 64.0317 36.2336 62.4777 37.844 60.8936C37.8027 60.7656 37.7613 60.6452 37.7161 60.5248ZM61.5157 15.838C58.8855 15.838 56.4473 15.8794 54.0127 15.8192C53.0871 15.7966 52.4549 16.1014 51.8115 16.7486C45.554 23.0475 39.2777 29.3314 32.9675 35.5776C32.3353 36.2022 31.4849 36.6688 30.6571 37.0263C29.2837 37.617 27.8501 38.061 26.4428 38.569C32.5461 38.7872 38.5816 38.7835 44.6208 38.791C45.4336 38.791 46.5549 38.569 46.5511 39.7957C46.5436 41.0073 45.4148 40.7589 44.6058 40.8154C44.5192 40.8229 44.4289 40.8154 44.3386 40.8154C35.9476 40.8154 27.5566 40.8154 19.1656 40.8154C18.8119 40.8154 18.3905 40.9283 18.1158 40.7778C17.6718 40.5332 17.3256 40.1155 16.9381 39.7731C17.3331 39.4457 17.6944 38.8964 18.1271 38.8362C19.1242 38.6969 20.1552 38.791 21.205 38.791C22.2323 35.8861 23.2256 33.0528 24.2529 30.2307C24.4448 29.7039 24.6894 29.1432 25.0657 28.7444C26.4052 27.3258 27.8162 25.9712 29.1934 24.5865C29.724 24.056 30.39 23.7173 30.8641 24.4247C31.0748 24.7408 30.8604 25.6137 30.5443 25.9674C29.4154 27.2167 28.1586 28.3493 27.0787 29.4029C28.6741 30.9983 30.1943 32.5184 31.6505 33.9784C38.3897 27.2393 45.2304 20.3948 52.0185 13.6105C50.5585 12.1505 49.0572 10.6492 47.5106 9.10265C47.251 9.351 46.9312 9.6445 46.6226 9.94928C42.604 13.9679 38.5853 17.9866 34.5629 22.0015C34.3108 22.2536 34.0926 22.6186 33.7878 22.7126C33.3889 22.8406 32.7492 22.9233 32.5348 22.7089C32.2977 22.468 32.2902 21.8209 32.4257 21.4371C32.5611 21.057 32.9901 20.771 33.3099 20.4663C34.8037 19.0477 36.3088 17.6366 37.8064 16.2218C37.7199 16.1202 37.6371 16.0149 37.5506 15.9133C28.0345 15.9133 18.5184 15.9133 8.84431 15.9133C8.84431 16.4589 8.84431 16.933 8.84431 17.4109C8.84431 22.961 8.84431 28.5111 8.84431 34.0612C8.84431 34.46 8.9346 34.9078 8.78409 35.2465C8.63358 35.5926 8.20464 36.0856 7.96006 36.0517C7.59131 36.0028 7.16235 35.6115 6.96668 35.254C6.79736 34.9417 6.91023 34.4751 6.91023 34.0725C6.91023 24.9251 6.91023 15.7816 6.91023 6.63427C6.91023 6.14887 6.91023 5.66724 6.91023 4.97865C6.20283 5.23076 5.60079 5.36245 5.08529 5.64842C2.78247 6.93906 1.99979 9.01235 2.00355 11.556C2.02989 23.1905 2.01485 34.8213 2.01862 46.4558C2.01862 46.8584 2.07504 47.2648 2.09762 47.5432C3.7269 46.7305 5.25085 45.9704 6.91023 45.1463C6.91023 43.4719 6.91023 41.6093 6.91023 39.7505C6.91023 39.0205 6.8651 38.2228 7.91868 38.2416C8.88571 38.2604 8.84431 39.0168 8.84431 39.6941C8.84807 41.6469 8.77656 43.6036 8.87063 45.5527C8.93083 46.8358 8.49061 47.3363 7.19997 47.5131C3.9113 47.9684 1.84928 50.4933 2.09762 53.5486C2.33468 56.4798 4.70527 58.4967 7.97136 58.5005C18.3604 58.5117 28.7494 58.5155 39.1385 58.4741C39.7179 58.4704 40.4065 58.1543 40.8505 57.7667C41.9869 56.7771 42.9652 55.6069 44.1128 54.6323C44.4327 54.3614 45.1175 54.5194 45.633 54.478C45.5841 54.9973 45.5991 55.5354 45.4637 56.0283C45.3922 56.2879 45.0498 56.4761 44.8316 56.6943C42.0697 59.4562 39.304 62.2181 36.5459 64.9837C36.29 65.2396 36.0718 65.5368 35.7858 65.868C45.998 65.868 56.0522 65.868 66.1026 65.868C66.1026 64.2801 66.1026 62.7938 66.1026 61.157C65.4441 61.157 64.842 61.2774 64.3227 61.1156C63.9577 61.0027 63.4836 60.5173 63.4761 60.1899C63.4686 59.8852 63.9653 59.4148 64.334 59.2906C64.8533 59.1175 65.4553 59.1928 66.0837 59.1589C66.0837 58.1279 66.0837 57.191 66.0837 56.1337C65.4855 56.1337 64.9549 56.2654 64.541 56.096C64.1045 55.9192 63.7847 55.4564 63.4159 55.114C63.7809 54.8129 64.1045 54.3802 64.5259 54.241C64.9925 54.0905 65.5494 54.2071 66.1138 54.2071C66.1138 53.1159 66.1138 52.2053 66.1138 51.2119C65.5908 51.1856 65.1054 51.2797 64.7329 51.1179C64.2475 50.9034 63.8524 50.4895 63.4159 50.1584C63.8487 49.8272 64.2362 49.3908 64.7254 49.1989C65.1318 49.0371 65.651 49.165 66.0913 49.165C66.0913 48.0587 66.0913 47.1519 66.0913 46.3128C65.1318 45.8876 63.5438 46.7305 63.4874 45.2178C63.4159 43.423 65.2146 44.4803 66.1063 43.946C66.1063 41.2218 66.1063 38.4674 66.1063 35.476C65.5984 35.9576 65.2484 36.2737 64.9173 36.6048C59.7359 41.7824 54.5546 46.9638 49.377 52.1451C49.1249 52.3972 48.9029 52.781 48.6056 52.8563C48.1616 52.9692 47.5671 53.0105 47.2284 52.7885C47.0252 52.6606 47.0779 51.9269 47.2171 51.5393C47.3375 51.1969 47.7289 50.9448 48.0111 50.6626C52.248 46.4219 56.5037 42.2038 60.6992 37.9218C61.1582 37.4515 61.4932 36.6387 61.4969 35.9802C61.5571 29.7189 61.5308 23.4614 61.5308 17.2002C61.5157 16.8126 61.5157 16.4213 61.5157 15.838ZM56.9816 8.68875C59.7924 6.41603 59.7999 6.32949 57.3127 3.84229C54.8744 1.40401 54.8217 1.40777 52.549 4.04548C52.4926 4.10944 52.47 4.20352 52.4813 4.17718C53.9751 5.671 55.4388 7.14225 56.9816 8.68875ZM53.6553 11.8984C54.1557 11.3791 54.7201 10.7959 55.1227 10.3782C53.6854 8.91075 52.2141 7.4094 50.7353 5.89676C50.2311 6.37464 49.6667 6.91271 49.1512 7.40188C50.7165 8.96343 52.2103 10.4535 53.6553 11.8984ZM25.8972 31.7659C24.7082 34.1816 24.7345 34.2606 26.0703 35.5926C27.3911 36.9058 28.3393 35.397 29.4756 35.3556C28.2226 34.0988 27.0524 32.9248 25.8972 31.7659Z" fill="black"/>
<path d="M60.9889 54.4441C60.9889 56.0846 60.9738 57.7252 60.9926 59.3658C61.0077 60.4156 60.5674 60.9048 59.4837 60.8972C56.1574 60.8709 52.8311 60.9085 49.5048 60.8596C49.0495 60.8521 48.297 60.5623 48.2218 60.2689C48.1164 59.8399 48.3648 59.1551 48.6996 58.8127C52.0523 55.3923 55.4388 52.0058 58.8592 48.6531C59.2091 48.3107 59.9428 47.9909 60.3041 48.1376C60.6615 48.2844 60.9362 49.0257 60.9588 49.5223C61.0378 51.1629 60.9889 52.8035 60.9889 54.4441ZM58.8742 52.1111C56.6654 54.3199 54.3513 56.6265 52.2291 58.7487C54.2008 58.7487 56.5187 58.7487 58.8742 58.7487C58.8742 56.3518 58.8742 54.0678 58.8742 52.1111Z" fill="black"/>
</svg>
