<svg width="73" height="69" viewBox="0 0 73 69" fill="none" xmlns="http://www.w3.org/2000/svg">
<path d="M55.8568 68.9112H54.1946H53.8389C52.0926 68.9112 51.2841 68.3063 50.7473 66.6652V66.5622C50.6411 66.1412 50.4521 65.7453 50.1911 65.3974C49.9408 65.0874 49.6237 64.8374 49.2632 64.6658C48.9027 64.4943 48.508 64.4056 48.1084 64.4064C47.564 64.4121 47.0307 64.5609 46.5626 64.8375C46.0773 65.1347 45.5218 65.299 44.9522 65.3138C44.2775 65.2965 43.6282 65.054 43.1088 64.6252C42.2415 63.9738 41.4745 63.1998 40.8322 62.3277C40.4749 61.9037 40.2753 61.3702 40.2671 60.8169C40.2588 60.2637 40.4424 59.7245 40.7869 59.2902C41.0887 58.9501 41.2798 58.527 41.3353 58.0767C41.3907 57.6264 41.3077 57.1699 41.0974 56.7674C40.8944 56.2503 40.5383 55.8066 40.0763 55.4952C39.6143 55.1838 39.0683 55.0193 38.5103 55.0234C36.7963 55.0234 35.1147 55.0234 33.4331 55.0234H28.2912C27.8167 55.0439 27.3529 54.88 26.9976 54.5665C26.9219 54.4792 26.8674 54.3758 26.8383 54.2642C26.8091 54.1526 26.8061 54.0359 26.8294 53.923C26.9071 53.2086 27.3275 53.0928 28.3041 53.0863H29.2872H31.7385C32.8768 53.0863 34.0216 53.0863 35.1664 53.0863H35.244C35.445 53.1077 35.6483 53.0861 35.8402 53.0228C36.0321 52.9595 36.2081 52.8561 36.3565 52.7195C36.4763 52.5664 36.562 52.3896 36.6077 52.201C36.6535 52.0123 36.6582 51.8161 36.6217 51.6255C36.6021 51.3019 36.6021 50.9774 36.6217 50.6537C36.6217 50.5186 36.6217 50.3834 36.6217 50.2419C36.6217 48.1632 37.2167 47.3909 39.2088 46.8117C39.6203 46.6914 39.9995 46.4807 40.3182 46.1951C40.637 45.9094 40.8873 45.5563 41.0505 45.1616C41.2138 44.7669 41.2859 44.3407 41.2616 43.9146C41.2372 43.4885 41.117 43.0732 40.9098 42.6995C39.9849 40.9876 40.0884 40.1896 41.4272 38.7931C41.7959 38.407 42.1775 38.0337 42.5591 37.6605C43.5034 36.7402 44.0661 36.4184 44.7193 36.4184C45.4034 36.4733 46.0664 36.68 46.6596 37.0234C47.085 37.2369 47.5544 37.3492 48.0308 37.3516C48.6505 37.3468 49.2514 37.1395 49.7411 36.7615C50.2307 36.3836 50.582 35.8561 50.7408 35.2601C51.2582 33.5418 52.1508 32.8596 53.9165 32.8146H54.2205C54.5245 32.8146 54.822 32.8146 55.1259 32.8146C55.6776 32.8054 56.2286 32.8572 56.7688 32.969C57.2384 33.0165 57.6789 33.2181 58.0208 33.542C58.3627 33.8659 58.5866 34.2937 58.6574 34.7581C58.7309 35.2679 58.9332 35.7508 59.2454 36.1617C59.5576 36.5725 59.9695 36.8977 60.4425 37.107C60.8357 37.308 61.2713 37.4129 61.7134 37.4129C62.1554 37.4129 62.5911 37.308 62.9843 37.107C63.4047 36.914 63.754 36.7595 64.045 36.6372C65.6684 35.9293 65.746 35.8199 65.7072 34.2432C65.7072 33.8957 65.7072 33.471 65.7072 32.9562C65.7072 30.427 65.7072 27.8528 65.7072 25.3687V22.6915C65.7072 21.2436 65.5197 21.0634 64.0515 21.0634H3.79771C2.22605 21.0634 2.10316 21.1921 2.10316 22.7366V31.2121C2.10316 36.4635 2.10316 41.7127 2.10316 46.9598C2.08832 47.9642 2.23908 48.9642 2.54944 49.9201C2.79435 50.8629 3.35695 51.6936 4.14329 52.2734C4.92963 52.8532 5.89208 53.1469 6.86991 53.1057C7.8142 53.1057 8.76497 53.1057 9.70927 53.1057H14.0491C14.4273 53.0964 14.8053 53.1332 15.1745 53.2151C15.2825 53.2365 15.3851 53.2791 15.4763 53.3404C15.5675 53.4017 15.6455 53.4806 15.7057 53.5722C15.7659 53.6639 15.8072 53.7666 15.827 53.8744C15.8469 53.9821 15.8449 54.0927 15.8213 54.1997C15.8146 54.4085 15.7264 54.6066 15.5755 54.7519C15.4246 54.8973 15.2228 54.9785 15.0128 54.9784C14.7012 55.0096 14.3882 55.0246 14.075 55.0234H6.96046C6.0429 55.0426 5.13088 54.8773 4.27909 54.5373C3.42729 54.1974 2.65325 53.6897 2.00339 53.0449C1.35352 52.4001 0.84121 51.6314 0.497153 50.7848C0.153096 49.9382 -0.0156122 49.0312 0.0011352 48.1182C0.0011352 40.3956 0.0011352 32.6623 0.0011352 24.9182V13.1477C0.0011352 11.172 0.0011352 9.1899 0.0011352 7.21421C-0.0068582 6.12118 0.219793 5.03905 0.665953 4.0402C1.11211 3.04135 1.7675 2.14881 2.58824 1.42227C3.54279 0.505607 4.81892 -0.00460889 6.14552 3.13761e-05H31.8678C41.7506 3.13761e-05 51.6334 3.13761e-05 61.5161 3.13761e-05C64.7112 3.13761e-05 67.4794 3.02471 67.5635 6.60284C67.6152 8.66219 67.6088 10.7666 67.6023 12.8002C67.6023 13.6111 67.6023 14.4284 67.6023 15.2393V18.6951C67.6023 24.3111 67.6023 29.9293 67.6023 35.5496C67.5228 36.9558 67.9265 38.347 68.7471 39.4946C69.0724 39.9281 69.2567 40.4501 69.2751 40.9908C69.2936 41.5315 69.1455 42.0648 68.8506 42.5193C68.5759 42.9128 68.4043 43.3684 68.3515 43.8447C68.2987 44.3209 68.3662 44.8028 68.5481 45.2465C68.7299 45.6902 69.0202 46.0816 69.3927 46.3853C69.7652 46.689 70.208 46.8953 70.681 46.9855C72.2332 47.4617 72.8412 48.2726 72.8541 49.8943V50.4221C72.8541 51.1042 72.8541 51.8057 72.8541 52.4943C72.8559 53.0437 72.662 53.576 72.3068 53.9966C71.9516 54.4172 71.458 54.6989 70.9138 54.7918C70.438 54.8861 69.988 55.0808 69.5941 55.3628C69.2003 55.6447 68.8718 56.0074 68.6307 56.4264C68.4237 56.8524 68.3114 57.3177 68.3013 57.7908C68.2913 58.2639 68.3838 58.7336 68.5725 59.1679C68.8386 59.8682 68.9299 60.6223 68.8387 61.3655C68.7474 62.1086 68.4763 62.8186 68.0486 63.4346C67.6809 63.9916 67.1813 64.4502 66.5937 64.77C66.0061 65.0898 65.3486 65.2611 64.6789 65.2687H64.446C63.9727 65.2149 63.5127 65.0776 63.0878 64.8633L62.9132 64.7925C62.4398 64.5844 61.93 64.4707 61.4126 64.4579C60.1191 64.4579 59.1618 65.288 58.7156 66.7939C58.5859 67.4301 58.2239 67.996 57.6995 68.3822C57.1752 68.7685 56.5256 68.9477 55.8762 68.8855L55.8568 68.9112ZM47.4552 61.8901C47.8216 61.9012 48.1813 61.9912 48.5094 62.1539C49.2437 62.4845 50.0001 62.764 50.7732 62.9906C52.209 63.4539 52.7782 64.2777 52.7135 65.7128C52.6943 65.8557 52.7038 66.001 52.7416 66.1402C52.7793 66.2794 52.8445 66.4097 52.9334 66.5236C53.028 66.6122 53.1401 66.6803 53.2626 66.7235C53.3851 66.7667 53.5153 66.7841 53.6448 66.7746H56.0767C56.6394 66.7746 56.9175 66.4529 56.9111 65.8544C56.9111 64.1489 57.4867 63.3767 59.1748 62.894L59.4917 62.8104C59.8717 62.7353 60.2367 62.5983 60.5718 62.4049C61.05 62.0364 61.6249 61.8129 62.2276 61.7614C62.9204 61.8313 63.5606 62.1602 64.0191 62.6817L64.0903 62.746C64.2404 62.9234 64.4536 63.0364 64.6853 63.0614C64.7962 63.0552 64.9042 63.0235 65.0007 62.9688C65.0973 62.9141 65.1797 62.8378 65.2416 62.746C65.589 62.3648 65.9898 62.0354 66.4316 61.7678C66.5998 61.6584 66.7615 61.5426 66.9232 61.4267C67.0684 61.3497 67.194 61.2406 67.2904 61.1079C67.3868 60.9752 67.4514 60.8223 67.4794 60.6609C67.4573 60.4983 67.3988 60.3428 67.3081 60.2057C67.2174 60.0687 67.0969 59.9538 66.9555 59.8694C65.7784 58.9555 65.5585 58.0031 66.244 56.7932C66.6574 56.0766 66.9728 55.3082 67.1819 54.5086C67.2682 54.0816 67.4926 53.6945 67.8208 53.4064C68.1489 53.1182 68.5628 52.9448 68.9993 52.9126C70.6745 52.6874 70.7715 52.5715 70.7715 50.879V50.4607C70.7715 50.2676 70.7715 50.0745 70.7715 49.8815C70.7875 49.7383 70.7734 49.5934 70.7299 49.456C70.6865 49.3186 70.6147 49.1917 70.5193 49.0835C70.4275 48.9969 70.3185 48.9304 70.1993 48.8883C70.0801 48.8461 69.9533 48.8293 69.8272 48.8389H69.5879H69.2386C68.799 48.8611 68.3653 48.7307 68.0114 48.4702C67.6576 48.2097 67.4055 47.835 67.2983 47.4103C67.059 46.7281 66.7615 46.0717 66.4704 45.441L66.1406 44.7267C65.6296 43.5618 65.7072 42.7059 66.3799 42.1525C66.5663 42.0368 66.7256 41.8827 66.8472 41.7007C66.9688 41.5187 67.0499 41.3128 67.0849 41.097C67.0702 40.8461 67.0013 40.6013 66.883 40.3792C66.7647 40.1571 66.5997 39.9629 66.3993 39.8099L66.063 39.4431L65.9271 39.2951C65.358 38.6516 65.0734 38.362 64.6853 38.362C64.2973 38.362 64.0385 38.6387 63.4564 39.1921C63.2939 39.3787 63.096 39.5316 62.874 39.642C62.6521 39.7524 62.4104 39.8182 62.1629 39.8357C61.7749 39.8091 61.4015 39.6778 61.0828 39.456C60.2504 38.9582 59.3447 38.5934 58.3987 38.3748C57.1957 38.0724 56.8917 37.7313 56.7946 36.4442C56.8045 36.216 56.7655 35.9884 56.6805 35.7763C56.5954 35.5642 56.466 35.3724 56.301 35.2137C56.136 35.055 55.939 34.9329 55.7231 34.8554C55.5072 34.778 55.2772 34.747 55.0483 34.7645H54.0976H53.6448H53.5155C53.3785 34.7514 53.2404 34.7695 53.1115 34.8174C52.9826 34.8654 52.8664 34.9419 52.7717 35.0412C52.6832 35.1695 52.623 35.315 52.5951 35.468C52.5673 35.6211 52.5723 35.7784 52.61 35.9293C52.7268 36.4323 52.6431 36.9607 52.3766 37.4035C52.11 37.8463 51.6813 38.1691 51.1806 38.304L50.6179 38.5228C49.7318 38.8768 48.8069 39.2436 47.895 39.5718C47.641 39.6696 47.3717 39.7219 47.0995 39.7263C46.8061 39.7218 46.5187 39.6432 46.2642 39.498C46.0097 39.3528 45.7963 39.1457 45.6442 38.8961C45.5654 38.7466 45.4501 38.6193 45.3087 38.526C45.1674 38.4326 45.0048 38.3762 44.8357 38.362C44.6901 38.3727 44.5481 38.4125 44.4181 38.4788C44.2881 38.5451 44.1728 38.6367 44.079 38.7481C43.5486 39.2629 43.0248 39.7778 42.4815 40.2733C42.3652 40.3585 42.271 40.4701 42.2069 40.5988C42.1427 40.7276 42.1105 40.8697 42.1128 41.0134C42.1372 41.1519 42.1946 41.2826 42.2801 41.3945C42.3656 41.5065 42.4768 41.5964 42.6044 41.6569C43.5228 42.2297 43.7879 43.0727 43.4063 44.2311C42.9989 45.4557 42.4748 46.6388 41.8412 47.7642C41.6893 48.0483 41.4586 48.2831 41.1766 48.4405C40.8945 48.598 40.5729 48.6715 40.2501 48.6523C38.6396 48.6523 38.5103 48.8196 38.5103 50.4478V51.0913C38.5103 52.52 38.963 52.9512 40.373 53.022C41.5954 53.0735 42.0481 53.4403 42.3133 54.5794C42.496 55.3688 42.8418 56.1118 43.3287 56.761C43.6638 57.1485 43.8409 57.6467 43.8254 58.1577C43.8098 58.6686 43.6027 59.1552 43.2447 59.5218C43.0483 59.6687 42.8844 59.8542 42.7631 60.0667C42.6418 60.2793 42.5658 60.5144 42.5397 60.7574C42.5657 61.0228 42.645 61.2802 42.7728 61.5145C42.9005 61.7489 43.0742 61.9553 43.2835 62.1218C43.5251 62.3352 43.742 62.5748 43.9302 62.8361C44.1243 63.145 44.4089 63.4797 44.8099 63.4797C45.0006 63.4471 45.1815 63.3724 45.3393 63.261C45.4971 63.1496 45.6279 63.0044 45.7218 62.8361C45.9223 62.5606 46.1818 62.3328 46.4816 62.1692C46.7814 62.0056 47.1139 61.9103 47.4552 61.8901ZM42.7402 1.72474C30.8179 1.72474 18.9 1.74405 6.98632 1.78266C4.39921 1.78266 2.42009 3.35292 2.12904 5.58603C1.99968 6.61571 1.94793 7.64539 1.91559 8.51418C1.85091 10.4448 1.9156 12.3755 1.98675 14.216C2.02555 15.162 2.05788 16.1145 2.07728 17.0605V17.1249C2.07728 18.7916 2.22605 18.9075 3.90768 18.9075H63.9997C65.5455 18.9075 65.6684 18.7852 65.6684 17.2214V14.6472C65.6684 12.1159 65.6684 9.59105 65.6684 7.07263C65.6684 3.66826 63.6699 1.71831 60.229 1.71831H42.766L42.7402 1.72474Z" fill="black"/>
<path d="M13.5 42.7509C13.2869 42.7382 13.0792 42.6791 12.8914 42.578C12.7037 42.4768 12.5405 42.3359 12.4134 42.1653C11.2557 40.9232 10.0203 39.5911 8.79792 38.2461C8.02825 37.3966 7.98296 36.6758 8.64268 35.9164C9.59991 34.8031 10.583 33.7026 11.579 32.6343L12.4522 31.6433C12.5639 31.4942 12.7067 31.371 12.8708 31.2821C13.035 31.1933 13.2165 31.1408 13.403 31.1284H13.5323C13.69 31.1451 13.8402 31.2043 13.9667 31.2995C14.0932 31.3948 14.1912 31.5225 14.2502 31.669C14.313 31.8214 14.3335 31.9878 14.3097 32.1508C14.2858 32.3138 14.2184 32.4675 14.1144 32.5957C13.1959 33.7758 12.2067 34.8998 11.1522 35.9615C10.4343 36.6887 10.4407 37.2486 11.1522 37.9886C11.9865 38.8381 12.7756 39.7713 13.5388 40.6658L14.0691 41.3094C14.2063 41.4287 14.296 41.5929 14.3221 41.7723C14.3482 41.9517 14.309 42.1344 14.2114 42.2876C14.1401 42.425 14.0327 42.5407 13.9006 42.6223C13.7685 42.7039 13.6166 42.7484 13.4612 42.7509H13.5Z" fill="black"/>
<path d="M29.5848 42.7445C29.3624 42.7383 29.1512 42.6459 28.9962 42.4871C28.5241 42.0495 28.5435 41.644 29.0738 41.0391C29.3907 40.6787 29.7206 40.3119 30.0181 39.9386C30.5614 39.2951 31.1241 38.6515 31.7062 38.008C32.4953 37.1714 32.4953 36.4763 31.7062 35.6912C30.9171 34.9061 30.2122 34.0695 29.5201 33.2393L29.0027 32.5957C28.9068 32.513 28.8299 32.4107 28.7771 32.2957C28.7244 32.1808 28.6971 32.056 28.6971 31.9297C28.6971 31.8033 28.7244 31.6785 28.7771 31.5636C28.8299 31.4487 28.9068 31.3463 29.0027 31.2636C29.0841 31.1709 29.1832 31.0953 29.2942 31.0412C29.4052 30.987 29.526 30.9554 29.6495 30.9482C29.8983 30.9649 30.1306 31.0781 30.2962 31.2636C31.8509 32.813 33.2946 34.4688 34.6167 36.2189C34.6898 36.3404 34.7423 36.473 34.772 36.6115C34.785 36.6516 34.7958 36.6924 34.8043 36.7337C34.7837 37.1619 34.6011 37.5665 34.2933 37.8664L32.961 39.3916C32.1525 40.3183 31.344 41.245 30.5226 42.1717C30.4182 42.3299 30.2801 42.4633 30.118 42.5623C29.9559 42.6613 29.7738 42.7235 29.5848 42.7445Z" fill="black"/>
<path d="M20.0312 43.7163C19.9324 43.7134 19.8353 43.6892 19.7467 43.6455C19.6313 43.611 19.5241 43.554 19.4311 43.4778C19.3382 43.4016 19.2615 43.3077 19.2055 43.2016C19.1495 43.0956 19.1153 42.9794 19.1049 42.8601C19.0946 42.7407 19.1082 42.6204 19.1452 42.5064C19.5009 41.1292 19.8372 39.7198 20.1671 38.3555C20.1671 38.3555 20.7815 35.7813 20.9626 35.0155L21.8552 31.2958C21.9236 30.9974 22.037 30.711 22.1915 30.4463C22.2618 30.3081 22.3705 30.1928 22.5046 30.1141C22.6387 30.0354 22.7926 29.9966 22.9482 30.0022C23.0571 30.0031 23.1656 30.0161 23.2716 30.0409C23.692 30.1503 23.8796 30.4334 23.9184 31.0126L23.7308 31.8557C23.5821 32.4992 23.4333 33.1814 23.2716 33.8507C22.5644 36.708 21.8508 39.5611 21.1308 42.4099C21.0699 42.6995 20.9535 42.9749 20.788 43.2207C20.7051 43.3526 20.5946 43.4652 20.464 43.5507C20.3334 43.6362 20.1858 43.6927 20.0312 43.7163Z" fill="black"/>
<path d="M21.3382 55.0684C21.1933 55.0158 21.0673 54.9218 20.976 54.7981C20.7611 54.5928 20.624 54.3201 20.5879 54.0259C20.5879 53.8392 20.7108 53.2279 21.3058 53.2214C21.7262 53.2214 22.0173 53.4917 22.1919 54.0194C22.1439 54.2493 22.0413 54.4644 21.8928 54.6469C21.7443 54.8294 21.5541 54.9739 21.3382 55.0684Z" fill="black"/>
<path d="M55.6613 14.821H54.0896H49.4781H49.1935H45.19H42.7193C39.9899 14.821 38.1595 13.0383 38.1918 10.4448C38.1876 9.86036 38.3033 9.28119 38.5317 8.74271C38.76 8.20422 39.0964 7.71773 39.5201 7.31296C39.9439 6.9082 40.4461 6.59366 40.9962 6.38857C41.5462 6.18349 42.1325 6.09216 42.7193 6.12018C44.8213 6.12018 46.9233 6.12018 49.0253 6.12018C51.1274 6.12018 53.3717 6.12018 55.5384 6.12018C56.5487 6.09458 57.5373 6.41394 58.3398 7.02512C59.1424 7.6363 59.7104 8.50246 59.9494 9.4795C60.1916 10.4186 60.1066 11.4116 59.7084 12.2964C59.3101 13.1812 58.6222 13.9056 57.7568 14.3512C57.138 14.6916 56.4394 14.8626 55.7324 14.8467L55.6613 14.821ZM51.0886 12.723H53.0289C53.8891 12.723 54.7429 12.723 55.616 12.723C56.0361 12.7331 56.452 12.6376 56.8251 12.4452C57.1982 12.2528 57.5164 11.9699 57.7504 11.6225C57.9454 11.2929 58.0541 10.9198 58.0665 10.5375C58.0789 10.1552 57.9947 9.77594 57.8215 9.43445C57.5951 8.97393 57.233 8.59298 56.7836 8.34234C56.3341 8.09171 55.8185 7.98328 55.3056 8.03152C53.0418 8.03152 50.7781 8.02079 48.5144 7.99934C46.6388 7.99934 44.7696 7.99934 42.8939 7.99934C42.5369 7.98939 42.1814 8.05028 41.8483 8.17845C41.5152 8.30662 41.211 8.4995 40.9536 8.74585C40.5202 9.20449 40.2875 9.81558 40.3068 10.4448C40.3068 11.8542 41.3222 12.7037 42.9844 12.7165H51.0821L51.0886 12.723Z" fill="black"/>
<path d="M12.8568 14.7758C12.3157 14.7852 11.7782 14.6808 11.2752 14.4686C10.7722 14.2564 10.3135 13.9406 9.9256 13.5394C9.53766 13.1382 9.22806 12.6594 9.0146 12.1305C8.80113 11.6016 8.68798 11.0331 8.68168 10.4576C8.66414 9.86732 8.76273 9.27961 8.97113 8.73216C9.17952 8.18471 9.49311 7.68958 9.89185 7.27851C10.7807 6.44808 11.9346 6.01062 13.117 6.05577C13.6709 6.02981 14.2241 6.12285 14.7435 6.32934C15.2629 6.53583 15.7378 6.85154 16.14 7.2576C16.5421 7.66366 16.8632 8.15175 17.084 8.69271C17.3048 9.23368 17.4208 9.81643 17.4252 10.4062C17.4228 10.9503 17.3183 11.4885 17.1178 11.9891C16.9172 12.4897 16.6247 12.9427 16.2573 13.3214C15.3515 14.2659 14.1313 14.791 12.8628 14.7823L12.8568 14.7758ZM12.8568 7.99928C12.5374 7.99901 12.2211 8.06598 11.9262 8.19631C11.6313 8.32664 11.3635 8.51777 11.1383 8.75867C10.8219 9.09164 10.6089 9.51974 10.5281 9.98533C10.4474 10.4509 10.5027 10.9317 10.6866 11.3628C10.8705 11.794 11.1742 12.1549 11.5568 12.3969C11.9394 12.6389 12.3825 12.7504 12.8265 12.7165C13.1283 12.7408 13.4315 12.6977 13.7167 12.5901C14.002 12.4824 14.2629 12.3126 14.4828 12.0914C14.7027 11.8703 14.8767 11.6027 14.9937 11.3058C15.1107 11.0089 15.1681 10.6894 15.1621 10.3675C15.1574 9.73655 14.9179 9.13324 14.4961 8.68947C14.0743 8.2457 13.5045 7.99756 12.9112 7.99928H12.8568Z" fill="black"/>
<path d="M22.9779 14.7758C22.4368 14.7852 21.8993 14.6808 21.3963 14.4686C20.8933 14.2564 20.4346 13.9406 20.0467 13.5394C19.6588 13.1382 19.3492 12.6594 19.1357 12.1305C18.9222 11.6016 18.8091 11.0331 18.8028 10.4576C18.7852 9.86732 18.8838 9.27961 19.0922 8.73216C19.3006 8.18471 19.6142 7.68958 20.0129 7.27851C20.9018 6.44808 22.0557 6.01062 23.2381 6.05577C23.792 6.02981 24.3452 6.12285 24.8646 6.32934C25.384 6.53583 25.8589 6.85154 26.2611 7.2576C26.6632 7.66366 26.9842 8.15175 27.2051 8.69271C27.4259 9.23368 27.5419 9.81643 27.5462 10.4062C27.5439 10.9503 27.4394 11.4885 27.2389 11.9891C27.0383 12.4897 26.7458 12.9427 26.3784 13.3214C25.4726 14.2659 24.2524 14.791 22.9839 14.7823L22.9779 14.7758ZM22.9779 7.99928C22.6585 7.99901 22.3422 8.06598 22.0473 8.19631C21.7524 8.32664 21.4846 8.51777 21.2594 8.75867C20.9429 9.09164 20.73 9.51974 20.6492 9.98533C20.5685 10.4509 20.6238 10.9317 20.8077 11.3628C20.9916 11.794 21.2953 12.1549 21.6779 12.3969C22.0605 12.6389 22.5036 12.7504 22.9476 12.7165C23.2494 12.7408 23.5526 12.6977 23.8378 12.5901C24.1231 12.4824 24.384 12.3126 24.6039 12.0914C24.8238 11.8703 24.9978 11.6027 25.1148 11.3058C25.2318 11.0089 25.2892 10.6894 25.2832 10.3675C25.2784 9.73655 25.039 9.13324 24.6172 8.68947C24.1954 8.2457 23.6256 7.99756 23.0323 7.99928H22.9779Z" fill="black"/>
<path d="M55.0744 59.2517C53.8952 59.2629 52.7254 59.0411 51.633 58.5992C50.5405 58.1574 49.547 57.5042 48.7101 56.6775C47.9372 55.9094 47.3253 54.9962 46.9101 53.9908C46.4948 52.9855 46.2844 51.9081 46.2912 50.8212C46.3203 48.5972 47.2362 46.4759 48.8373 44.9238C50.4384 43.3718 52.5935 42.5161 54.8286 42.5451C57.0637 42.5742 59.1957 43.4855 60.7556 45.0785C62.3154 46.6716 63.1754 48.816 63.1462 51.04C63.1386 53.1824 62.2931 55.2376 60.7888 56.7704C59.2845 58.3032 57.2397 59.1931 55.0873 59.2517H55.0744ZM54.6216 44.5466C53.7849 44.5256 52.9527 44.6758 52.1767 44.988C51.4007 45.3001 50.6975 45.7676 50.1105 46.3613C49.5235 46.955 49.0653 47.6623 48.7643 48.4395C48.4634 49.2166 48.326 50.047 48.3608 50.8791C48.3389 52.558 48.9853 54.1775 50.1589 55.3839C50.7427 55.9513 51.4336 56.3981 52.1918 56.6986C52.9499 56.999 53.7604 57.1471 54.5764 57.1344C55.8214 57.11 57.0319 56.7227 58.0579 56.0205C59.0839 55.3183 59.8803 54.332 60.3484 53.1839C60.8166 52.0357 60.936 50.7762 60.6918 49.5612C60.4475 48.3462 59.8504 47.2292 58.9745 46.3485C58.415 45.7734 57.7459 45.3149 57.0063 45C56.2667 44.6851 55.4714 44.52 54.6669 44.5144L54.6216 44.5466Z" fill="black"/>
</svg>
