<svg width="50" height="50" viewBox="0 0 50 50" fill="none" xmlns="http://www.w3.org/2000/svg">
<path d="M6.87579 5.14241C6.26816 5.34495 5.80401 5.69096 5.50019 6.15512C4.96008 6.96529 4.9854 5.77535 5.01071 23.8438L5.03603 40.3004L5.27233 40.7814C5.55927 41.3722 6.1247 41.887 6.73232 42.1148C7.16273 42.2667 7.39059 42.2836 9.74514 42.2836H12.2938L12.4373 42.8743C12.682 43.8955 13.3149 44.5622 14.3108 44.8576C14.9522 45.0517 35.0545 45.0432 35.6874 44.8576C36.6748 44.5622 37.3753 43.7942 37.5863 42.7731L37.6875 42.2836H40.2446C42.5992 42.2836 42.827 42.2667 43.2574 42.1148C43.8651 41.887 44.4305 41.3722 44.7174 40.7814L44.9537 40.3004V23.675V7.04968L44.7343 6.57708C44.4558 5.9779 44.0001 5.52218 43.4009 5.24368L42.9283 5.02426L25.1215 5.00738C8.15856 4.99051 7.29775 4.99051 6.87579 5.14241ZM43.0211 6.55177C43.5781 6.96529 43.6035 7.04124 43.6288 8.74598L43.6541 10.2988H25.0033H6.34412V8.87256C6.34412 7.38725 6.39475 7.10876 6.70701 6.76275C7.12053 6.31547 6.04874 6.34079 25.0962 6.35767L42.7933 6.37454L43.0211 6.55177ZM43.6456 25.7848C43.6456 39.6843 43.6456 39.929 43.4769 40.2497C43.384 40.4354 43.1815 40.6548 43.0296 40.7561C42.7511 40.9249 42.6329 40.9333 40.1518 40.9333C38.2361 40.9333 37.5694 40.908 37.5694 40.832C37.5694 40.5114 36.5567 22.4091 36.5145 22.0378C36.4132 21.0673 35.7296 20.1812 34.8182 19.8352C34.4131 19.6833 34.1599 19.6664 32.683 19.6664H31.0121L30.9614 18.7549C30.8855 17.1262 30.3454 15.9025 29.2145 14.7716C28.4803 14.0374 27.763 13.5985 26.8093 13.2779C26.2101 13.0753 26.0076 13.05 24.9949 13.05C23.9822 13.05 23.7796 13.0753 23.1804 13.2779C22.2268 13.5985 21.5095 14.0374 20.7753 14.7716C19.6444 15.9025 19.1043 17.1262 19.0283 18.7549L18.9777 19.6664H17.3067C15.8298 19.6664 15.5767 19.6833 15.1716 19.8352C14.2517 20.1812 13.5766 21.0589 13.4753 22.0378C13.4331 22.4091 12.4204 40.5114 12.4204 40.832C12.4204 40.908 11.7537 40.9333 9.83797 40.9333C7.35683 40.9333 7.23868 40.9249 6.96018 40.7561C6.80828 40.6548 6.60573 40.4354 6.5129 40.2497C6.34412 39.929 6.34412 39.6843 6.34412 25.7848V11.6491H24.9949H43.6456V25.7848ZM26.6068 14.6197C27.8389 15.0754 28.8854 16.1134 29.3495 17.3456C29.5183 17.7929 29.5858 18.1473 29.6196 18.7971L29.6618 19.6664H24.9949H20.328L20.3702 18.7971C20.4039 18.1473 20.4714 17.8013 20.6402 17.354C21.1888 15.9278 22.3281 14.8982 23.8218 14.4762C24.5223 14.2821 25.8894 14.3496 26.6068 14.6197ZM19.003 22.1138C19.003 23.1771 19.0114 23.2277 19.214 23.4218C19.4587 23.675 19.8385 23.6919 20.1086 23.4725C20.3027 23.3206 20.3111 23.2531 20.3364 22.1644L20.3702 21.0167H24.9949H29.6196L29.6534 22.1644C29.6787 23.2531 29.6871 23.3206 29.8812 23.4725C30.1513 23.6919 30.531 23.675 30.7758 23.4218C30.9783 23.2277 30.9868 23.1771 30.9868 22.1138V21.0167H32.6155C34.4722 21.0167 34.6832 21.0757 35.0123 21.658C35.1895 21.9703 35.2148 22.4176 35.7634 32.2071C36.0756 37.8192 36.3035 42.5199 36.2782 42.638C36.1938 42.9503 35.814 43.3807 35.4849 43.5157C35.0798 43.693 14.91 43.693 14.5049 43.5157C14.1758 43.3807 13.796 42.9503 13.7116 42.638C13.6863 42.5199 13.9141 37.8192 14.2264 32.2071C14.7749 22.4176 14.8003 21.9703 14.9775 21.658C15.3066 21.0757 15.5176 21.0167 17.3742 21.0167H19.003V22.1138Z" fill="black"/>
<path d="M7.88006 7.87672C7.68595 8.0877 7.64376 8.43371 7.77878 8.69533C8.02352 9.15949 9.39912 9.12573 9.58479 8.65313C9.68606 8.3662 9.63542 8.02019 9.44976 7.8514C9.29785 7.71638 9.15438 7.68262 8.66491 7.68262C8.14167 7.68262 8.0404 7.70794 7.88006 7.87672Z" fill="black"/>
<path d="M11.2473 7.82607C10.9604 8.07081 10.9351 8.45058 11.1798 8.74595C11.3824 8.97381 11.433 8.99069 11.9984 8.99069C12.5554 8.99069 12.6229 8.97381 12.8086 8.75439C13.0702 8.45058 13.0702 8.15521 12.8002 7.89359C12.6229 7.70792 12.5217 7.68261 12.0153 7.68261C11.5765 7.68261 11.3824 7.7248 11.2473 7.82607Z" fill="black"/>
<path d="M14.5471 7.87671C14.2095 8.2396 14.3361 8.77971 14.7918 8.94006C15.3235 9.12572 16.0577 8.99913 16.2181 8.69532C16.3615 8.42526 16.3109 8.06237 16.1084 7.86827C15.948 7.71636 15.813 7.68261 15.3235 7.68261C14.8087 7.68261 14.699 7.70792 14.5471 7.87671Z" fill="black"/>
<path d="M37.1896 7.89359C36.9196 8.15521 36.9196 8.45058 37.1812 8.7544L37.3837 8.9907L39.4007 9.01601C41.5949 9.04133 41.8903 9.01601 42.135 8.77128C42.3629 8.54342 42.346 8.09613 42.1013 7.86827C41.9072 7.69105 41.8481 7.68261 39.6454 7.68261H37.3922L37.1896 7.89359Z" fill="black"/>
<path d="M17.2392 25.8186C16.986 26.0718 16.9354 26.384 17.0958 26.6372C17.2899 26.9242 17.5515 27.0085 18.2435 27.0085H18.8174L18.868 27.4052C18.8933 27.6331 19.1296 30.0889 19.3828 32.8738C19.6444 35.6588 19.8892 38.0387 19.9398 38.1737C19.9989 38.3003 20.1508 38.4944 20.2774 38.6125C20.4883 38.7898 20.5137 38.8404 20.4377 39.0345C20.3871 39.1526 20.3533 39.448 20.3533 39.6759C20.3533 40.7477 21.2226 41.6253 22.2859 41.6253C22.9188 41.6338 23.4083 41.4144 23.805 40.9671C24.1932 40.5282 24.362 39.9881 24.2944 39.4143L24.2438 38.9923H24.9949H25.7376L25.6954 39.4818C25.6363 40.1147 25.8895 40.7308 26.3705 41.1443C26.8093 41.5241 27.1722 41.6338 27.8305 41.5916C28.4634 41.5494 28.9276 41.2793 29.3411 40.6886C29.569 40.3595 29.5943 40.2666 29.5943 39.6674C29.5943 39.0429 29.6027 39.0007 29.7884 38.9501C30.3032 38.8235 30.4804 38.2243 30.1007 37.853L29.8981 37.642H25.5435C22.134 37.642 21.1888 37.6167 21.1635 37.5323C21.1382 37.4817 21.1044 37.1779 21.0791 36.8572L21.0369 36.2917H25.189H29.3496L29.7968 36.0723C30.5311 35.701 30.5986 35.5491 31.164 32.7388C31.4341 31.3885 31.6619 30.1986 31.6619 30.0973C31.6619 29.3378 30.9868 28.5276 30.2357 28.3673C29.9403 28.3082 28.2018 28.2744 25.0455 28.2744H20.2942L20.2098 27.3799C20.1255 26.4431 20.0326 26.2237 19.56 25.8777C19.3659 25.7258 19.1803 25.692 18.3701 25.6751C17.4924 25.6498 17.3996 25.6583 17.2392 25.8186ZM30.126 29.7597C30.2272 29.8273 30.3116 29.9707 30.3116 30.072C30.3116 30.4518 29.4508 34.5701 29.3327 34.7558L29.2061 34.9415L25.054 34.9246L20.9019 34.8993L20.674 32.4941C20.5559 31.1691 20.4461 29.9876 20.4461 29.8526L20.4377 29.6247H25.189C29.3496 29.6247 29.9572 29.6416 30.126 29.7597ZM22.7754 39.178C23.3071 39.6759 22.7416 40.5029 22.0665 40.216C21.788 40.0978 21.7036 39.9459 21.7036 39.5746C21.7036 39.0429 22.3703 38.7982 22.7754 39.178ZM28.1174 39.1611C28.2947 39.3383 28.3369 39.7434 28.2018 40.005C28.0077 40.3679 27.2229 40.3426 27.071 39.9628C26.8093 39.2708 27.6111 38.6547 28.1174 39.1611Z" fill="black"/>
</svg>
