<svg width="50" height="50" viewBox="0 0 50 50" fill="none" xmlns="http://www.w3.org/2000/svg">
<path d="M11 25V45H24.7553H38.5105V25V5H24.7553H11V25ZM37.6667 7.53165V9.21941L24.7806 9.20253L11.8861 9.17722L11.8608 7.50633L11.8439 5.84388H24.7553H37.6667V7.53165ZM37.6667 27.0675V44.1561H24.7553H11.8439V27.0675V9.9789H24.7553H37.6667V27.0675Z" fill="black"/>
<path d="M14.2827 6.81438C13.8186 7.06755 13.7595 7.79329 14.1814 8.1224C14.7131 8.5359 15.4726 8.18147 15.4726 7.51481C15.4726 6.87346 14.8481 6.51059 14.2827 6.81438Z" fill="black"/>
<path d="M18.2067 6.77215C17.7257 6.96624 17.6076 7.60759 17.9705 8.02953C18.1477 8.2405 18.2489 8.29114 18.5274 8.29114C19.3713 8.29114 19.6751 7.20253 18.9325 6.81434C18.6624 6.67088 18.4768 6.66245 18.2067 6.77215Z" fill="black"/>
<path d="M21.8776 6.93249C21.3629 7.44726 21.6835 8.29114 22.3924 8.29114C22.7806 8.29114 23.1181 8.03797 23.1941 7.69198C23.3713 6.90717 22.443 6.37553 21.8776 6.93249Z" fill="black"/>
<path d="M15.2194 19.5991V25.8439L24.7806 25.827L34.3333 25.8017L34.3586 19.5738L34.3755 13.3544H24.7975H15.2194V19.5991ZM32.308 14.3586C32.173 14.443 30.4008 15.5485 28.384 16.8143C26.3671 18.0802 24.6709 19.1181 24.6287 19.1181C24.5527 19.1181 17.3122 14.443 17.1266 14.2743C17.0759 14.2321 20.4177 14.1983 24.8059 14.1983C32.384 14.1983 32.5527 14.2067 32.308 14.3586ZM19.8861 17.0675C21.9873 18.4177 23.7089 19.5485 23.7173 19.5823C23.7342 19.6329 16.2743 24.4008 16.0548 24.4768C16.0127 24.4937 15.9789 22.4515 15.9789 19.5654C15.9789 16.8481 16.0042 14.6202 16.0295 14.6202C16.0548 14.6202 17.7932 15.7257 19.8861 17.0675ZM33.5316 19.6498C33.5316 24.1308 33.5232 24.5949 33.3966 24.5443C33.3207 24.519 31.4979 23.4051 29.346 22.0717C26.924 20.578 25.4726 19.6245 25.5316 19.5907C25.5907 19.557 27.3882 18.443 29.5232 17.1181C31.6582 15.7932 33.4304 14.7046 33.4726 14.7046C33.5063 14.7046 33.5316 16.9325 33.5316 19.6498ZM28.4852 22.5274L32.3671 24.9578L28.5274 24.9831C26.4093 24.9916 22.9409 24.9916 20.8059 24.9831L16.9325 24.9578L20.7384 22.5443C22.8312 21.211 24.5612 20.1224 24.5781 20.1139C24.5865 20.1055 26.3502 21.1941 28.4852 22.5274Z" fill="black"/>
<path d="M15.4051 29.27C15.2025 29.4135 15.1603 29.7173 15.3207 29.8776C15.4641 30.0211 34.0464 30.0211 34.1899 29.8776C34.3502 29.7173 34.308 29.4135 34.1055 29.27C33.9367 29.1519 32.9072 29.135 24.7553 29.135C16.6034 29.135 15.5738 29.1519 15.4051 29.27Z" fill="black"/>
<path d="M15.3207 34.2996C15.2616 34.3587 15.2194 34.4768 15.2194 34.5781C15.2194 34.6794 15.2616 34.7975 15.3207 34.8566C15.4641 35 34.0464 35 34.1899 34.8566C34.2489 34.7975 34.2911 34.6794 34.2911 34.5781C34.2911 34.4768 34.2489 34.3587 34.1899 34.2996C34.0464 34.1562 15.4641 34.1562 15.3207 34.2996Z" fill="black"/>
<path d="M26.865 39.557V41.6245H30.6202H34.3755L34.3586 39.5739L34.3333 37.5317L30.6034 37.5064L26.865 37.4895V39.557ZM33.5148 39.5739L33.4894 40.8228L30.6034 40.8481L27.7089 40.865V39.5992V38.3334H30.6202H33.5401L33.5148 39.5739Z" fill="black"/>
<path d="M15.3207 39.2785C15.1603 39.4388 15.2025 39.7426 15.4051 39.8861C15.5738 40.0042 16.173 40.0211 20.2152 40.0211C24.7299 40.0211 24.8397 40.0211 25.0084 39.8523C25.211 39.6498 25.211 39.6076 25.0422 39.3629L24.9156 39.1772H20.1645C16.5865 39.1772 15.3966 39.2026 15.3207 39.2785Z" fill="black"/>
</svg>
