<svg width="69" height="66" viewBox="0 0 69 66" fill="none" xmlns="http://www.w3.org/2000/svg">
<path d="M31.8453 65.7917C23.4015 65.7917 14.9577 65.7917 6.51382 65.7917C2.89503 65.7917 0 62.8962 0 59.2768C0 43.03 0 26.0593 0 8.76686C0 5.14751 2.89503 2.25204 6.51382 2.25204C10.1326 2.25204 12.9472 5.06708 13.1081 8.76686C13.1081 9.24944 13.1081 9.73202 13.1081 10.2146V11.3406H36.59L36.6704 10.6167C36.6704 10.295 36.7508 9.97331 36.7508 9.65159C36.7508 9.08858 36.7508 8.52557 36.7508 8.04299C36.7508 6.91697 36.7508 5.87138 36.8312 4.74536C37.0725 2.33247 39.0025 0.40215 41.415 0.0804302C41.9779 3.05617e-07 42.4604 0 43.0234 0H45.3555C48.3309 0 51.2259 0 54.2014 0C56.7747 0 59.3481 0 61.9215 0C66.0228 0 68.194 2.09118 68.194 6.1931C68.194 20.9118 68.194 35.6304 68.194 50.3491C68.194 53.7272 67.0682 55.3358 63.8515 56.6227L63.6102 56.7031V57.6682C63.6102 58.2312 63.6102 58.7138 63.6102 59.2768C63.5298 62.9766 60.6348 65.7917 57.0964 65.7917C48.6526 65.7917 40.2087 65.7917 31.8453 65.7917ZM6.35298 49.7057C3.86003 49.7861 1.93002 51.7164 1.68877 54.1293C1.60835 55.2553 1.60835 56.4618 1.60835 57.5878V58.3117C1.60835 62.2527 3.45796 64.0222 7.318 64.0222C10.3739 64.0222 13.3493 64.0222 16.4052 64.0222H43.4254C47.6876 64.0222 51.9497 64.0222 56.1314 64.0222C59.0264 64.0222 60.9565 62.7353 61.5194 60.4833C61.6802 59.679 61.7606 58.8747 61.7606 58.0704C61.7606 57.6682 61.7606 57.2661 61.841 56.8639V56.5422H43.1842C38.52 56.5422 36.59 54.5315 36.59 49.8665V46.1668H22.5973C21.1498 46.1668 19.7023 46.1668 18.3352 46.1668C17.7723 46.1668 17.4506 46.0059 17.2898 45.845C17.2093 45.6842 17.2093 45.4429 17.2898 45.2016C17.3702 44.9603 18.0939 44.6386 18.5764 44.5582C21.8736 44.5582 25.0098 44.4777 27.6636 44.4777H36.5095V40.3758C36.5095 40.3758 33.4537 40.3758 32.8907 40.3758C32.167 40.3758 31.3628 40.3758 30.6391 40.3758H30.5586C30.3978 40.3758 30.237 40.3758 30.0761 40.3758C29.9153 40.3758 29.7545 40.3758 29.5936 40.3758C28.9503 40.3758 28.6286 40.2149 28.6286 39.5715C28.6286 39.2498 28.709 39.0085 28.7895 38.9281C28.9503 38.7672 29.1915 38.7672 29.5132 38.7672C29.674 38.7672 29.8349 38.7672 29.9957 38.7672C30.1566 38.7672 30.3174 38.7672 30.4782 38.7672H30.5586C31.3628 38.7672 32.0866 38.7672 32.8907 38.7672C33.4537 38.7672 36.5095 38.7672 36.5095 38.7672V34.7457H26.5378C24.6077 34.7457 22.7581 34.7457 20.8281 34.7457C18.2548 34.7457 17.0485 33.5393 17.0485 31.0459C17.0485 28.4722 17.0485 25.8984 17.0485 23.3247V21.0726C17.0485 18.0967 18.0939 16.9707 21.0694 16.9707C22.8386 16.9707 24.6078 16.9707 26.3769 16.9707H34.5795C34.9012 16.9707 35.2229 16.9707 35.5445 16.9707H36.2683V13.1101H12.7864V53.2446C12.7864 53.4055 12.7864 53.4859 12.7864 53.6467C12.7864 53.888 12.8668 54.1293 12.7864 54.2902C12.4647 54.8532 12.143 55.1749 11.9822 55.1749C11.7409 55.1749 11.3389 54.5315 11.0976 54.3706C11.0172 54.2902 11.0172 54.1293 11.0172 53.9685C11.0172 53.8076 11.0172 53.7272 10.9368 53.5663C10.4543 51.2338 8.44383 49.6252 6.19214 49.6252C6.51381 49.7057 6.43339 49.7057 6.35298 49.7057ZM38.3591 44.3973C38.3591 45.1212 38.3591 45.845 38.3591 46.4885C38.3591 48.0971 38.3591 49.6252 38.3591 51.1534C38.4396 53.325 39.8871 54.7728 41.9779 54.7728C45.5163 54.7728 48.9743 54.7728 52.5126 54.7728C55.9706 54.7728 59.3481 54.7728 62.8061 54.7728C64.8969 54.7728 66.3444 53.325 66.4249 51.3143C66.5053 49.7057 66.5053 48.1775 66.4249 46.4885C66.4249 45.7646 66.4249 45.0407 66.4249 44.3169V43.9952H38.3591V44.3973ZM6.51382 48.0971C7.96134 48.0971 9.40885 48.5797 10.9368 49.6252L11.4193 49.947L11.4997 48.9818C11.4997 48.8209 11.4997 48.6601 11.4997 48.5797C11.4997 35.4696 11.4997 22.4399 11.4997 9.32987C11.4997 8.84729 11.4193 8.28428 11.3389 7.8017C10.9368 5.54966 9.00676 3.94107 6.67465 3.86064H6.51382C3.61879 3.86064 1.60835 6.03224 1.60835 9.24944C1.60835 20.6705 1.60835 32.0915 1.60835 43.5126V48.3384C1.60835 48.5797 1.60835 48.7405 1.68877 48.9818C1.68877 49.0622 1.76918 49.2231 1.76918 49.3035L1.8496 49.7861L2.25169 49.4644C3.77962 48.5797 5.14672 48.0971 6.51382 48.0971ZM38.3591 42.1453H66.3444V10.7776H38.3591V42.1453ZM24.2861 32.2524L24.3665 32.9763H36.59V27.1853L24.2861 32.2524ZM18.9785 32.6545L35.3033 25.8984L18.9785 19.1423V32.6545ZM24.0448 19.5445L36.59 24.692V18.8206H24.2861L24.0448 19.5445ZM52.6735 1.52817C49.1351 1.52817 45.5967 1.52817 41.9779 1.52817C40.1283 1.52817 38.6808 2.73462 38.4396 4.50407C38.2787 5.46923 38.3591 6.43439 38.3591 7.39955C38.3591 7.8017 38.3591 8.28428 38.3591 8.68643V9.00815H66.3444V8.68643C66.3444 8.28428 66.3444 7.88213 66.3444 7.47998C66.3444 6.67568 66.3444 5.87138 66.3444 5.06708C66.1836 2.97591 64.7361 1.52817 62.7256 1.52817C59.4285 1.52817 56.051 1.52817 52.6735 1.52817Z" fill="black"/>
<path d="M22.4358 40.5367C22.1945 40.5367 21.8729 40.5367 21.6316 40.5367C21.3903 40.5367 21.0687 40.5367 20.8274 40.5367C20.5862 40.5367 20.2645 40.5367 20.0233 40.5367C19.782 40.5367 19.5407 40.5367 19.2191 40.5367C18.817 40.5367 18.4953 40.5367 18.1737 40.4563C17.9324 40.3758 17.6911 40.1345 17.4499 39.8932C17.3695 39.8128 17.3695 39.8128 17.2891 39.7324C17.3695 39.652 17.3695 39.5715 17.4499 39.4911C17.6107 39.2498 17.9324 38.9281 18.0932 38.9281C18.9778 38.8477 19.9428 38.8477 20.8274 38.8477C21.712 38.8477 22.5966 38.8477 23.4812 38.9281C23.642 38.9281 23.9637 39.2498 24.1245 39.4911C24.205 39.5715 24.205 39.652 24.2854 39.652C24.205 39.7324 24.205 39.8128 24.1245 39.8128C23.8833 40.0541 23.5616 40.3758 23.3204 40.4563C23.1595 40.5367 22.8379 40.5367 22.4358 40.5367Z" fill="black"/>
<path d="M52.3512 27.9093H47.2045C45.9982 27.9093 44.8724 27.9093 43.6661 27.9093C41.9773 27.9093 41.334 27.2659 41.334 25.6573C41.334 22.5205 41.334 19.2229 41.334 16.0057C41.334 14.4775 42.0577 13.7537 43.5857 13.7537C46.5611 13.7537 49.617 13.7537 52.5924 13.7537C55.4875 13.7537 58.3825 13.7537 61.2775 13.7537C62.8859 13.7537 63.6096 14.4775 63.6096 16.0861C63.6096 19.3033 63.6096 22.5205 63.6096 25.6573C63.6096 27.2659 62.8859 27.9898 61.2775 27.9898C60.0713 27.9898 58.865 27.9898 57.6587 27.9898L52.3512 27.9093ZM52.4316 22.1184C51.7883 22.1184 51.2253 22.3597 50.5016 22.8422C49.617 23.4857 48.652 24.0487 47.687 24.6117C47.2849 24.853 46.8828 25.0943 46.4003 25.3356L46.159 25.4964L46.5611 26.1399H58.3021L58.5433 25.416H58.3021C57.9 25.1747 57.4979 24.9334 57.0154 24.6921C56.0504 24.1291 55.0854 23.5661 54.2008 22.9227C53.6379 22.3597 52.9945 22.1184 52.4316 22.1184ZM42.9423 25.5769L50.7428 20.7511L42.9423 16.0057V25.5769ZM53.9595 20.7511L61.76 25.4964V16.0057L53.9595 20.7511ZM47.687 16.8904C49.1345 17.7752 50.4212 18.5795 51.7078 19.3033C51.8687 19.3838 52.1903 19.4642 52.4316 19.4642C52.5924 19.4642 52.8337 19.4642 52.9945 19.3033C54.3616 18.499 55.7287 17.6947 57.1762 16.81L59.5888 15.2818H45.194L47.687 16.8904Z" fill="black"/>
<path d="M52.8345 37.0781H43.8277C42.7823 37.0781 42.541 36.9172 42.541 36.2738C42.541 36.0325 42.6214 35.7912 42.7019 35.7108C42.9431 35.4695 43.3452 35.4695 43.8277 35.4695C45.2752 35.4695 50.7436 35.4695 50.7436 35.4695H58.0616C59.4287 35.4695 60.7958 35.4695 62.1629 35.4695C62.6454 35.4695 63.1279 35.4695 63.3692 35.7108C63.53 35.8716 63.53 36.0325 63.53 36.2738C63.53 36.8368 63.2083 37.0781 62.1629 37.0781C62.1629 37.0781 55.8903 37.0781 52.8345 37.0781Z" fill="black"/>
<path d="M54.8457 32.4937C54.0415 32.4937 53.3178 32.4937 52.7549 32.4133C52.3528 32.4133 51.7094 31.9307 51.629 31.609C51.5486 31.3677 51.629 31.2068 51.7094 31.1264C51.8703 30.9655 52.1919 30.8047 52.6744 30.8047C52.6744 30.8047 56.6953 30.8047 57.4191 30.8047C58.7862 30.8047 60.5554 30.8047 62.3246 30.8851C62.7266 30.8851 63.37 31.3677 63.37 31.6894C63.4504 31.9307 63.37 32.0916 63.2896 32.172C63.1287 32.3329 62.8071 32.4937 62.3246 32.4937C61.6812 32.4937 60.9575 32.4937 60.3141 32.4937H57.4995C57.017 32.4937 56.6149 32.4937 56.1324 32.4937C55.7303 32.4937 55.3282 32.4937 54.8457 32.4937Z" fill="black"/>
<path d="M44.1497 32.4936C43.828 32.4936 43.5064 32.4936 43.2651 32.4132C42.9434 32.3327 42.4609 31.8502 42.4609 31.6893C42.4609 31.5284 42.9434 30.9654 43.1847 30.9654C43.9084 30.885 44.6322 30.885 45.356 30.885C46.1601 30.885 46.9643 30.885 47.7685 30.9654C47.9293 30.9654 48.4118 31.448 48.4118 31.6089C48.3314 31.9306 47.9293 32.3327 47.6881 32.4132C47.4468 32.4936 47.2056 32.4936 46.8839 32.4936C46.6426 32.4936 46.4818 32.4936 46.2406 32.4936C45.9993 32.4936 45.7581 32.4936 45.5168 32.4936H45.1951C45.0343 32.4936 44.9539 32.4936 44.793 32.4936C44.6322 32.4936 44.391 32.4936 44.1497 32.4936Z" fill="black"/>
<path d="M52.2707 52.0382C49.7778 52.0382 49.2148 51.4752 49.2148 48.9014C49.2148 46.1668 49.6973 45.7646 52.4315 45.7646C54.9245 45.7646 55.407 46.3277 55.407 48.9818C55.4874 51.5556 55.0049 52.0382 52.2707 52.0382ZM50.984 50.1883H53.7986V47.5341H50.984V50.1883Z" fill="black"/>
<path d="M53.7996 6.19307C53.5583 6.19307 53.3975 6.19307 53.1562 6.19307C52.915 6.19307 52.6737 6.19307 52.5129 6.19307C52.2716 6.19307 52.0304 6.19307 51.7891 6.19307C51.5479 6.19307 51.3066 6.19307 51.1458 6.19307C50.8241 6.19307 50.5829 6.19307 50.3416 6.11264C50.1004 6.03221 49.8591 5.79092 49.6179 5.4692C49.5374 5.38877 49.5374 5.30834 49.457 5.30834C49.5374 5.22791 49.5374 5.14748 49.6179 5.14748C49.7787 4.90619 50.0199 4.6649 50.1808 4.6649C50.9045 4.58447 51.6283 4.58447 52.4325 4.58447C53.1562 4.58447 53.9604 4.58447 54.6842 4.6649C54.845 4.6649 55.0863 4.98662 55.2471 5.22791C55.3275 5.30834 55.3275 5.38877 55.4079 5.38877C55.3275 5.4692 55.3275 5.54963 55.2471 5.54963C55.0058 5.79092 54.7646 6.11264 54.5233 6.19307C54.2821 6.11264 54.0408 6.19307 53.7996 6.19307Z" fill="black"/>
</svg>
