<svg width="73" height="56" viewBox="0 0 73 56" fill="none" xmlns="http://www.w3.org/2000/svg">
<path d="M37.1188 55.8168C37.0456 55.8168 36.8992 55.8168 36.8259 55.8168C36.6795 55.8168 36.6063 55.8168 36.4599 55.8168H19.6942C15.8871 55.8168 12.0801 55.8168 8.27303 55.8168C3.22135 55.8168 0.0732126 52.7593 0 47.8531V40.2449C0 29.5793 0 18.4871 0 7.60814C0 3.3419 3.36778 0 7.61411 0C8.85873 0 10.1033 0.284416 11.2747 0.924353C12.2997 1.42208 12.6658 2.06202 12.6658 3.12858C12.5926 5.47502 12.5926 7.75035 12.5926 10.1679C12.5926 11.0922 12.5926 12.0877 12.5926 13.0121V13.2965H56.2273V10.0968C56.2273 9.45685 56.2273 8.81691 56.2273 8.17698C56.2273 6.75489 56.2273 5.1906 56.2273 3.76852C56.3005 1.49319 57.7648 0.142209 60.1076 0.142209H60.6933C60.7665 0.142209 60.9129 0.142209 60.9861 0.142209C61.4254 0.142209 61.8647 0.0711031 62.2307 0.0711031C64.1343 0.0711031 65.3057 0.426625 66.0378 1.20877C66.9163 2.06202 67.2092 3.4841 67.0628 6.04385C66.9895 7.60814 66.9895 9.17243 66.9895 10.8789C66.9895 11.6611 66.9895 12.4432 66.9895 13.2254V13.5098H67.2824C67.7217 13.5098 68.0877 13.5098 68.527 13.5098C68.8931 13.5098 69.3324 13.5098 69.6984 13.5098C70.2841 13.5098 70.7234 13.5098 71.1627 13.5098C71.2359 13.5098 71.3091 13.5098 71.3823 13.5098C71.8948 13.5098 72.1876 13.5809 72.4073 13.7942C72.6269 14.0075 72.7733 14.4341 72.7733 15.003C72.7733 27.1618 72.7733 40.1027 72.7733 54.5369C72.7733 55.1057 72.7001 55.4612 72.4805 55.6745C72.2608 55.8879 71.8948 55.959 71.3091 55.959C66.3306 55.959 61.4254 55.959 56.4469 55.959H42.9026C42.8294 55.959 42.7562 55.959 42.683 55.959C42.6097 55.959 42.5365 55.959 42.4633 55.959C42.3901 55.959 42.3901 55.959 42.3901 55.959H42.3169C42.0973 55.8168 41.5848 55.4612 41.5116 55.319C41.5848 55.0346 42.024 54.5369 42.2437 54.5369C42.6097 54.4658 43.049 54.4658 43.6347 54.4658C43.9276 54.4658 44.1472 54.4658 44.4401 54.4658C44.7329 54.4658 44.9525 54.4658 45.2454 54.4658H71.0894V15.003H67.0628V19.3403V20.0514C67.0628 20.6202 67.0628 21.1179 67.0628 21.6868C67.0628 21.829 67.0628 21.9712 67.0628 22.1134C67.0628 22.54 67.0628 23.0377 66.8431 23.2511C66.6967 23.3933 66.5503 23.3933 66.2574 23.3933C65.8913 23.3933 65.7449 23.3222 65.5985 23.18C65.3789 22.9666 65.3789 22.4689 65.3789 22.0423C65.3789 21.9001 65.3789 21.7579 65.3789 21.6157C65.3789 20.2647 65.3789 18.8426 65.3789 17.4916C65.3789 16.9228 65.3789 16.354 65.3789 15.7851V9.31464H57.9112V40.8138H65.2324C65.2324 40.8138 65.2324 40.2449 65.3057 40.0316C65.3057 39.6761 65.3789 39.3206 65.3789 38.9651C65.3789 36.6897 65.3789 34.4144 65.3789 32.1391V27.9439C65.3789 27.0196 65.5253 26.593 66.1842 26.593C66.9163 26.593 66.9895 27.0196 66.9895 27.9439C66.9895 29.366 66.9895 30.717 66.9895 32.068C66.9895 34.9832 66.9895 37.9696 66.9895 40.8849C66.9895 41.4537 66.8431 41.9514 66.6235 42.3781C65.1592 45.2222 63.8414 47.782 62.5236 50.1995C62.3039 50.6262 61.7914 51.0528 61.645 51.0528C61.279 50.9817 60.7665 50.4839 60.5468 50.1284C59.0094 47.3554 57.7648 44.9378 56.5933 42.5914C56.3005 42.0226 56.1541 41.2404 56.1541 40.4583C56.1541 34.3433 56.1541 28.0861 56.1541 22.0423V14.9319H12.6658V16.9228C12.6658 18.6293 12.6658 20.3358 12.6658 21.9712C12.6658 22.0423 12.6658 22.1845 12.6658 22.2556C12.6658 22.54 12.6658 22.8955 12.5926 23.0377C12.4461 23.3222 12.0069 23.6066 11.714 23.6066C11.5676 23.6066 11.2015 23.3222 11.0551 23.0377C10.9087 22.7533 10.9087 22.3978 10.9819 22.0423C10.9819 21.9712 10.9819 21.829 10.9819 21.7579V17.9894C10.9819 13.2965 10.9819 8.46139 10.9819 3.69742C10.9819 2.55975 10.5426 1.99092 9.44443 1.7065C8.85872 1.56429 8.27303 1.49319 7.68733 1.49319C4.6124 1.49319 2.04995 3.76852 1.68389 6.75489C1.61068 7.11041 1.61068 7.53704 1.61068 7.89256C1.61068 19.127 1.61068 30.3615 1.61068 41.5959C1.61068 41.8092 1.61068 42.0226 1.61068 42.2359V42.5203V42.8758L1.97674 42.7336C2.41601 42.5203 2.85529 42.3781 3.29457 42.1648C4.24633 41.7381 5.12488 41.3115 6.07665 41.0982C6.51592 41.0271 7.10162 40.956 7.68733 40.956C8.1266 40.956 8.56588 40.956 9.00515 41.0271C9.51764 41.0271 10.0301 41.0982 10.5426 41.0982H10.8355V36.6186C10.8355 33.9167 10.8355 31.2147 10.8355 28.5128V28.4417C10.8355 28.0861 10.8355 27.7306 10.9819 27.4462C11.0551 27.304 11.2015 27.0907 11.714 27.0907C12.5194 27.0907 12.5926 27.5173 12.5926 28.4417V28.5839C12.5926 33.1345 12.5926 37.6852 12.5926 42.2359C12.5926 43.8002 12.1533 43.8002 11.9337 43.8002C11.6408 43.8002 11.2015 43.6579 10.689 43.3735C9.66406 42.8047 8.56588 42.5203 7.5409 42.5203C6.29628 42.5203 5.05167 42.9469 3.95348 43.8002C1.97674 45.2933 1.24461 47.3554 1.83032 49.9151C2.3428 52.1904 4.31954 53.8969 6.9552 54.2525C7.5409 54.3236 8.19981 54.3236 8.85873 54.3236C14.3497 54.3236 19.7674 54.3236 25.2584 54.3236H36.2402C36.3867 54.3236 36.5331 54.3236 36.6063 54.3236C36.7527 54.3236 36.8259 54.3236 36.9724 54.3236C37.192 54.3236 37.4116 54.3236 37.4849 54.3947C37.7777 54.5369 38.1438 54.8924 38.1438 55.1057C38.1438 55.319 37.8509 55.6745 37.4849 55.8168C37.4116 55.8168 37.2652 55.8168 37.1188 55.8168ZM61.7182 48.7063L64.9396 42.5203H58.4969L61.7182 48.7063ZM61.7182 1.56429C61.1325 1.56429 60.5468 1.56429 60.0343 1.63539C58.7897 1.7065 58.0576 2.41754 57.9844 3.4841C57.9112 4.33735 57.9844 5.1906 57.9844 6.11496C57.9844 6.47048 57.9844 6.8971 57.9844 7.32373V7.60814H65.5253V7.32373C65.5253 6.8971 65.5253 6.54158 65.5253 6.11496C65.5253 5.1906 65.5253 4.33735 65.5253 3.4841C65.4521 2.34644 64.72 1.63539 63.4753 1.63539C62.8164 1.56429 62.2307 1.56429 61.7182 1.56429Z" fill="black"/>
<path d="M16.9125 51.2663C16.4 51.2663 16.034 51.1952 15.8143 50.9819C15.5947 50.7685 15.5215 50.4841 15.5215 49.9864C15.5947 47.9955 15.5215 46.1468 15.5215 44.4403C15.5215 43.9425 15.5947 43.6581 15.8143 43.4448C16.034 43.2315 16.3268 43.1604 16.8393 43.1604H16.9125C17.8643 43.1604 18.8161 43.1604 19.841 43.1604C20.4999 43.1604 24.3802 43.1604 24.3802 43.1604V41.1695C24.3802 39.9607 24.3802 38.8942 24.3802 37.7565C24.3802 36.1922 24.4534 36.1211 26.1373 36.1211C27.2355 36.1211 28.2605 36.1211 29.3587 36.1211C30.5301 36.1211 31.7015 36.1211 32.8729 36.1211C34.7764 36.1211 34.7764 36.1211 34.7764 37.9698C34.7764 38.112 34.7764 38.1831 34.7764 38.3964L34.8496 38.9653H41.5852C43.4155 38.9653 43.4155 38.9653 43.4887 40.7429C43.4887 40.814 43.4887 40.9562 43.4887 41.0273C43.4887 41.2406 43.4887 41.4539 43.4887 41.6672C43.4155 42.1649 43.4887 42.5205 43.7083 42.7338C43.928 42.9471 44.294 43.0893 44.8065 43.0893H44.8797C45.3922 43.0893 45.9047 43.0893 46.344 43.0893C46.7833 43.0893 47.2225 43.0893 47.6618 43.0893C48.1011 43.0893 48.5404 43.0893 48.9797 43.0893C49.5654 43.0893 50.2243 43.0893 50.81 43.0893H50.9564C51.4689 43.0893 51.8349 43.1604 52.0546 43.3737C52.2742 43.587 52.4206 44.0136 52.3474 44.5825C52.2742 46.3601 52.2742 48.2088 52.3474 49.9153C52.3474 50.413 52.2742 50.6974 52.0546 50.9108C51.8349 51.1241 51.4689 51.1952 50.9564 51.1952C45.3922 51.1952 39.7549 51.1952 34.1907 51.1952C28.3337 51.2663 22.6231 51.2663 16.9125 51.2663ZM25.9909 49.6309H32.9461V37.7565H25.9909V49.6309ZM17.2786 49.5598H24.2338V44.7958H17.2786V49.5598ZM43.6351 49.5598H50.4439V44.7247H43.6351V49.5598ZM34.7764 49.5598H41.7316V40.6718H34.7764V49.5598Z" fill="black"/>
<path d="M29.2849 32.2103C28.4796 32.2103 27.7475 32.2103 26.9421 32.2103C26.3564 32.2103 25.8439 32.2103 25.2582 32.2103C24.6725 32.2103 24.16 32.2103 23.5743 32.2103C22.9886 32.2103 20.7923 32.2103 20.2066 32.2103C19.4744 32.2103 18.6691 32.2103 17.937 32.2103H17.8638C17.4245 32.2103 17.1316 32.1392 16.912 31.9259C16.6924 31.7126 16.6191 31.4281 16.6191 30.9304C16.6191 27.3041 16.6191 23.6067 16.6191 19.9093C16.6191 19.4115 16.6924 19.1271 16.912 18.9138C17.1316 18.7005 17.4245 18.6294 17.8638 18.6294C19.8405 18.6294 21.744 18.6294 23.6476 18.6294C25.5511 18.6294 27.4546 18.6294 29.3581 18.6294C29.8706 18.6294 30.1635 18.7005 30.3099 18.9138C30.5295 19.1271 30.6028 19.4115 30.6028 19.9093C30.6028 22.8956 30.6028 26.8775 30.6028 30.9304C30.6028 31.4281 30.5295 31.7126 30.3099 31.9259C30.0903 32.1392 29.7974 32.2103 29.2849 32.2103ZM18.4495 30.5038H28.9189V20.2648H18.4495V30.5038Z" fill="black"/>
<path d="M61.7174 36.7609C61.1317 36.7609 60.9121 36.4054 60.9121 35.4099V21.4735C60.9121 19.1982 60.9121 16.9939 60.9121 14.7186C60.9121 13.652 61.1317 13.4387 61.4978 13.4387C61.571 13.4387 61.7174 13.4387 61.7907 13.5098C62.0103 13.5809 62.4496 14.3631 62.4496 14.8608C62.5228 20.0514 62.5228 25.3131 62.5228 30.4326V34.4855V34.77C62.5228 34.9833 62.5228 35.1966 62.5228 35.481C62.5228 35.9787 62.5228 36.4054 62.3031 36.6898C62.1567 36.6898 62.0103 36.7609 61.7174 36.7609Z" fill="black"/>
<path d="M46.5627 21.2602C45.977 21.2602 45.3181 21.2602 44.7324 21.2602C44.1467 21.2602 43.4878 21.2602 42.902 21.2602H39.0218C38.07 21.2602 37.1183 21.2602 36.1665 21.2602C35.8004 21.2602 35.3612 21.2602 35.1415 20.9757C34.9951 20.8335 34.9219 20.6913 34.9219 20.4069C34.9219 19.8381 35.2879 19.6248 36.1665 19.6248C38.9486 19.6248 49.6376 19.6248 49.6376 19.6248C50.2233 19.6248 50.6626 19.6959 50.809 19.9092C50.8822 20.0514 50.9554 20.1936 50.8822 20.4069C50.809 20.6202 50.0769 21.1179 49.5644 21.1179C48.7591 21.2601 47.7341 21.2602 46.5627 21.2602Z" fill="black"/>
<path d="M49.6376 26.2374C48.6858 26.2374 47.6609 26.2374 46.7091 26.2374H36.1665C35.8004 26.2374 35.3612 26.2374 35.1415 25.953C34.9951 25.8108 34.9219 25.6686 34.9219 25.3842C34.9219 24.8154 35.2147 24.6021 36.1665 24.6021C37.2647 24.6021 41.4378 24.6021 42.4628 24.6021C44.4395 24.6021 47.002 24.602 49.6376 24.6732C50.1501 24.6732 50.8822 25.1709 50.9554 25.4553C51.0287 25.6686 50.9554 25.8819 50.8822 25.953C50.6626 26.1663 50.2965 26.2374 49.6376 26.2374Z" fill="black"/>
<path d="M42.0958 31.2858C41.7297 31.2858 41.3637 31.2858 40.9976 31.2858C40.6315 31.2858 40.2655 31.2858 39.8994 31.2858C39.5333 31.2858 39.1673 31.2858 38.8012 31.2858C38.4352 31.2858 38.0691 31.2858 37.703 31.2858C37.0441 31.2858 36.5316 31.2858 36.0924 31.2147C35.6531 31.1436 34.9942 30.717 34.921 30.4325C34.8477 30.2192 34.9209 30.077 34.9942 29.9348C35.1406 29.7215 35.5067 29.6504 36.0924 29.6504H40.119C41.2904 29.6504 42.4619 29.6504 43.6333 29.6504C44.1457 29.6504 44.585 29.7215 44.7314 29.9348C44.8047 30.077 44.8779 30.2192 44.8047 30.4325C44.7314 30.717 44.0725 31.2147 43.56 31.2147C43.194 31.2147 42.6815 31.2858 42.0958 31.2858Z" fill="black"/>
<path d="M22.8421 27.873C22.6225 27.873 22.4028 27.8019 22.1832 27.5886C22.0368 27.4464 21.8904 27.3042 21.7439 27.2331C21.3779 26.8775 21.0118 26.5931 20.719 26.1665C20.5725 25.8821 20.5725 25.5977 20.6457 25.2421C20.6457 25.171 20.6457 25.0999 20.6457 25.0288C20.719 25.0288 20.7922 25.0288 20.8654 25.0288C21.2315 25.0288 21.5975 25.0999 21.9636 25.171C22.11 25.171 22.1832 25.3132 22.4029 25.5266C22.5493 25.6688 22.6957 25.811 22.8421 25.9532L23.0618 26.0954L23.2082 25.8821C23.4278 25.5977 23.7207 25.3844 23.9403 25.0999C24.526 24.46 25.0385 23.8912 25.6242 23.3934C25.7706 23.2512 26.1367 23.2512 26.5028 23.2512C26.576 23.2512 26.6492 23.2512 26.7956 23.2512C26.7956 23.3223 26.7956 23.4645 26.7956 23.5356C26.7956 23.8912 26.7956 24.3178 26.7224 24.46C26.0635 25.2421 25.2581 25.9532 24.526 26.6642C24.2332 26.9486 23.9403 27.2331 23.6475 27.5175C23.2814 27.7308 23.0618 27.873 22.8421 27.873Z" fill="black"/>
</svg>
