<svg width="44" height="40" viewBox="0 0 44 40" fill="none" xmlns="http://www.w3.org/2000/svg">
<path opacity="0.15" d="M16.4583 22.5833V40H0.375V26.25C0.375 18.8056 1.26389 13.4167 3.04167 10.0833C5.375 5.63889 9.06944 2.27778 14.125 0L17.7917 5.83333C14.7361 7.11111 12.4861 9.02778 11.0417 11.5833C9.59722 14.0833 8.79167 17.75 8.625 22.5833H16.4583ZM42.2917 22.5833V40H26.2083V26.25C26.2083 18.8056 27.0972 13.4167 28.875 10.0833C31.2083 5.63889 34.9028 2.27778 39.9583 0L43.625 5.83333C40.5694 7.11111 38.3194 9.02778 36.875 11.5833C35.4306 14.0833 34.625 17.75 34.4583 22.5833H42.2917Z" fill="white"/>
</svg>
