<svg width="50" height="50" viewBox="0 0 50 50" fill="none" xmlns="http://www.w3.org/2000/svg">
<path d="M7.00445 9.72606C6.19376 9.9755 5.45434 10.6526 5.16927 11.392C5.00891 11.8107 5 12.2472 5 24.3452C5 36.4432 5.00891 36.8797 5.16927 37.2984C5.38307 37.8597 5.93541 38.4566 6.51448 38.7595L6.95991 39H25H43.0401L43.4944 38.7595C44.029 38.4744 44.5457 37.931 44.8129 37.3608L45 36.951V24.3452V11.7394L44.8129 11.3296C44.5457 10.7595 44.029 10.216 43.4944 9.93096L43.0401 9.69042L25.1336 9.67261C15.2895 9.6637 7.12918 9.69042 7.00445 9.72606ZM43.0579 11.1782C43.7082 11.6058 43.7082 11.5969 43.7082 15.5167V19H25H6.29176V15.5167C6.29176 12.4877 6.30958 11.9978 6.4343 11.7305C6.59465 11.4009 6.95991 11.098 7.34298 10.9822C7.47661 10.9376 15.4855 10.9109 25.1425 10.9198L42.6926 10.9376L43.0579 11.1782ZM43.7082 28.4521C43.7082 37.6459 43.7528 37.0579 43.0579 37.5122L42.6926 37.7528H25H7.30735L6.94209 37.5122C6.24722 37.0579 6.29176 37.6459 6.29176 28.4521V20.2472H25H43.7082V28.4521Z" fill="black"/>
<path d="M10.7907 13.3608C9.89979 13.8241 9.53453 14.7951 9.93542 15.6593C10.3096 16.4967 11.3074 16.8976 12.1537 16.5501C13.5523 15.9622 13.6058 14.0735 12.2428 13.3786C11.8419 13.1737 11.1559 13.1648 10.7907 13.3608Z" fill="black"/>
<path d="M17.2851 13.3786C16.6437 13.6726 16.1804 14.5457 16.314 15.196C16.5635 16.3541 17.7127 16.9866 18.7194 16.5145C19.4232 16.1938 19.7439 15.6682 19.7439 14.8664C19.7439 13.6459 18.4432 12.853 17.2851 13.3786Z" fill="black"/>
<path d="M25.2316 27C24.1537 29.2895 22.9065 31.9532 22.4521 32.9243L21.6236 34.6793L22.2116 34.9465C22.5323 35.098 22.8085 35.2049 22.8174 35.196C22.8263 35.1782 23.9844 32.7016 25.4009 29.6904C26.8085 26.6793 28.0646 24.0245 28.1804 23.7929L28.3853 23.3652L27.8508 23.098C27.5568 22.9554 27.2895 22.8307 27.2539 22.8307C27.2183 22.8307 26.3007 24.7105 25.2316 27Z" fill="black"/>
<path d="M17.0267 26.1715L14.8887 28.5323V29.0134V29.4944L16.8129 31.6147C17.8731 32.7907 18.8352 33.8597 18.9599 34.0111L19.1916 34.2695L19.6904 33.8508L20.1893 33.4232L18.2205 31.2495C17.1426 30.0557 16.2517 29.0579 16.2428 29.0312C16.2339 29.0045 17.098 28.0245 18.1671 26.8486C19.2272 25.6726 20.1002 24.6748 20.1002 24.6214C20.1002 24.5323 19.3163 23.8107 19.2183 23.8107C19.1826 23.8107 18.2027 24.8708 17.0267 26.1715Z" fill="black"/>
<path d="M30.3274 24.176C30.0869 24.3719 29.8998 24.5768 29.8998 24.6214C29.8998 24.6659 30.7728 25.6726 31.8419 26.8486C32.902 28.0245 33.7662 29.0045 33.7572 29.0312C33.7483 29.0579 32.8575 30.0557 31.7795 31.2495L29.8196 33.4143L30.3096 33.8419L30.8085 34.2606L31.2806 33.735C31.539 33.4499 32.51 32.363 33.4454 31.3385L35.147 29.4677L35.1559 29.0223V28.5768L33.0178 26.216C31.8419 24.9154 30.8441 23.8463 30.8085 23.8374C30.7728 23.8196 30.559 23.9711 30.3274 24.176Z" fill="black"/>
</svg>
