<svg width="50" height="50" viewBox="0 0 50 50" fill="none" xmlns="http://www.w3.org/2000/svg">
<path d="M24.6928 5.15073C24.6058 5.23769 24.2386 6.03004 23.8811 6.91902C23.5236 7.79833 23.195 8.56169 23.1467 8.61967C23.0984 8.66798 22.2288 8.76461 21.2238 8.83225C19.5232 8.93854 19.3589 8.95786 19.1463 9.16078C18.8951 9.40235 18.8468 9.79853 19.04 10.0401C19.127 10.1464 20.7214 11.5088 21.8326 12.4268C21.8712 12.4655 21.6876 13.3061 21.4267 14.311C21.0789 15.6542 20.9823 16.1856 21.0402 16.3499C21.1658 16.6784 21.562 16.9103 21.8326 16.8234C21.9485 16.7944 22.7409 16.3306 23.5815 15.8088L25.1179 14.8522L26.7219 15.8668C27.6013 16.4272 28.4033 16.8813 28.4999 16.8813C28.7898 16.8813 29.0603 16.6978 29.157 16.4369C29.2246 16.2629 29.1376 15.7605 28.8091 14.4077C28.5675 13.4221 28.3839 12.5814 28.4033 12.5331C28.4226 12.4944 29.07 11.9243 29.8527 11.2866C30.6354 10.6392 31.3021 10.0208 31.3311 9.91448C31.4277 9.6246 31.2055 9.18011 30.9156 9.06416C30.7707 9.01584 29.8624 8.91921 28.8961 8.85157L27.1374 8.72596L26.4514 6.98666C26.0745 6.02038 25.6977 5.17972 25.6107 5.11208C25.3788 4.94781 24.8764 4.96713 24.6928 5.15073ZM25.5721 8.67764C25.7943 9.23808 26.0262 9.7792 26.1035 9.87583C26.2388 10.0691 26.9152 10.1947 27.9201 10.2044C28.8478 10.2237 28.8478 10.2527 27.8815 11.0644C27.3983 11.4799 26.9539 11.876 26.8959 11.9727C26.8282 12.0886 26.8766 12.4461 27.0698 13.2965C27.2244 13.9439 27.3307 14.485 27.3114 14.5043C27.2921 14.5236 26.8379 14.2627 26.3161 13.9245C25.7557 13.567 25.2532 13.3061 25.1083 13.3061C24.973 13.3061 24.4222 13.5863 23.8908 13.9245C23.3593 14.2627 22.9148 14.5236 22.8955 14.514C22.8762 14.5043 22.9921 13.9825 23.1564 13.3544C23.3496 12.5717 23.4173 12.1466 23.3593 12.0016C23.311 11.8857 22.8762 11.4412 22.3834 11.0257L21.4847 10.2623L22.7119 10.1657C23.7265 10.0884 23.9681 10.0401 24.1227 9.87583C24.2193 9.76954 24.4898 9.21876 24.7217 8.64865C24.944 8.07855 25.1469 7.6244 25.1566 7.63406C25.1662 7.64373 25.3595 8.1172 25.5721 8.67764Z" fill="black"/>
<path d="M10.788 14.166C10.6334 14.2916 10.3242 14.9293 9.87971 16.0406L9.20331 17.7315L8.43029 17.7895C8.00513 17.8185 7.16446 17.8765 6.56537 17.9055C5.29955 17.9828 5 18.1277 5 18.6495C5 18.8234 5.03865 19.007 5.0773 19.065C5.11595 19.123 5.7537 19.6834 6.49773 20.3115C7.24177 20.9396 7.86985 21.4904 7.87951 21.5387C7.89884 21.587 7.70558 22.447 7.45435 23.4519L6.98087 25.2782L7.18379 25.5487C7.55097 26.0415 7.78288 25.9739 9.53185 24.9013C10.4015 24.3602 11.1649 23.9447 11.2228 23.964C11.2808 23.993 11.9959 24.4279 12.8075 24.94C14.4116 25.9546 14.7981 26.0705 15.0879 25.655C15.3102 25.3458 15.2812 25.1332 14.8077 23.2587C14.5758 22.331 14.4116 21.5387 14.4502 21.5097C14.4889 21.4807 15.1556 20.9203 15.9479 20.2729C17.2814 19.1713 17.3684 19.0843 17.3684 18.7655C17.3684 18.5625 17.2911 18.35 17.1848 18.2437C16.9819 18.0408 16.7306 18.0118 14.4792 17.8475C13.7641 17.7992 13.1747 17.7412 13.1651 17.7315C13.1554 17.7122 12.8462 16.9489 12.4887 16.0212C12.1215 15.0936 11.7446 14.2529 11.648 14.1563C11.4258 13.9341 11.0779 13.9341 10.788 14.166ZM12.4887 19.0747C12.7012 19.1423 13.3197 19.2293 13.8608 19.2679L14.8464 19.3452L13.8801 20.1472C12.7592 21.0749 12.7689 21.0555 13.1651 22.5823C13.2907 23.0847 13.3776 23.5099 13.3583 23.5292C13.339 23.5582 12.8945 23.2973 12.3727 22.9688C11.8316 22.6112 11.3195 22.36 11.1745 22.36C11.0296 22.36 10.4981 22.6209 9.95701 22.9494C9.42555 23.278 8.9714 23.5485 8.94242 23.5485C8.91343 23.5485 9.01006 23.0847 9.16466 22.505C9.31926 21.9349 9.44488 21.3551 9.44488 21.2101C9.44488 20.9976 9.26129 20.7946 8.52692 20.1569C8.02445 19.7221 7.62828 19.3452 7.6476 19.3259C7.66693 19.2969 8.19838 19.2486 8.80714 19.2003C10.1309 19.1133 10.1696 19.0843 10.5561 18.1567C10.7107 17.7992 10.9136 17.316 11.0199 17.0745L11.2035 16.6396L11.6577 17.7992C12.1021 18.9394 12.1118 18.9587 12.4887 19.0747Z" fill="black"/>
<path d="M38.4042 14.1951C38.269 14.3304 37.9018 15.0841 37.5153 16.06C37.1481 16.9586 36.8485 17.7123 36.8389 17.722C36.8292 17.7317 35.9885 17.7993 34.9643 17.8573C33.3989 17.9636 33.0607 18.0022 32.8675 18.1568C32.6356 18.3404 32.5486 18.8236 32.7129 19.0651C32.7515 19.1231 33.3893 19.6835 34.1333 20.3116C34.8773 20.9397 35.5054 21.4905 35.5247 21.5388C35.5441 21.5968 35.3508 22.4568 35.0899 23.452L34.6164 25.2783L34.8193 25.5489C35.1865 26.0417 35.4184 25.974 37.1674 24.9014C38.0371 24.3603 38.8101 23.9448 38.8777 23.9738C38.9454 24.0028 39.6604 24.4376 40.4527 24.9498C41.9988 25.9257 42.3853 26.0513 42.7138 25.6938C42.9457 25.4329 42.9264 25.2107 42.4626 23.2878L42.0471 21.5581L43.5255 20.331C44.917 19.1714 45.0039 19.0845 45.0039 18.7656C45.0039 18.5627 44.9266 18.3501 44.8203 18.2438C44.6174 18.0409 44.3662 18.0119 42.1147 17.8476C41.3997 17.7993 40.8103 17.7413 40.8103 17.7317C40.8006 17.7123 40.4914 16.949 40.1339 16.0214C39.7667 15.0937 39.3898 14.2627 39.2836 14.1564C39.0516 13.9245 38.6845 13.9342 38.4042 14.1951ZM39.815 18.9202C39.9889 19.1134 40.2112 19.1618 41.5446 19.268L42.4819 19.3453L41.5157 20.1474C40.4044 21.075 40.4238 20.9977 40.7909 22.5341C40.9262 23.0655 41.0132 23.5197 40.9939 23.539C40.9745 23.5583 40.5301 23.2974 40.0083 22.9689C39.4575 22.6114 38.955 22.3601 38.8101 22.3601C38.6651 22.3601 38.1433 22.6114 37.6022 22.9496C37.0804 23.2684 36.636 23.5197 36.607 23.5003C36.5876 23.481 36.6939 22.9882 36.8389 22.4084C36.9838 21.8287 37.0804 21.2489 37.0611 21.1233C37.0418 20.9784 36.7036 20.6208 36.1335 20.128C35.6503 19.7125 35.2638 19.3453 35.2832 19.326C35.3025 19.297 35.8339 19.2487 36.4524 19.2004C37.8148 19.1134 37.8631 19.0748 38.3366 17.8476C38.8584 16.5045 38.7908 16.5142 39.2546 17.693C39.4865 18.2728 39.7377 18.8236 39.815 18.9202Z" fill="black"/>
<path d="M23.9391 22.0606C23.0114 22.3022 22.3834 22.679 21.6683 23.3941C21.2915 23.7709 20.876 24.3024 20.731 24.5729C19.987 25.9644 19.987 27.8969 20.731 29.2884C21.0885 29.9744 22.2287 31.0953 22.8762 31.4045C25.688 32.7573 28.8671 31.4625 29.9107 28.5443C30.1136 27.9839 30.1619 27.6747 30.1619 26.9306C30.1619 25.8001 29.8817 24.9208 29.2246 24.0028C28.0361 22.3505 25.8716 21.5485 23.9391 22.0606ZM26.664 23.6646C27.3307 23.9738 28.0651 24.6792 28.3646 25.3073C29.0603 26.7277 28.7898 28.3704 27.6882 29.472C26.4514 30.7088 24.4222 30.8537 23.0404 29.8198C20.7503 28.0998 21.2625 24.5439 23.9487 23.5487C24.7024 23.2685 25.9103 23.3168 26.664 23.6646Z" fill="black"/>
<path d="M23.8038 34.4772C22.9631 34.5932 21.5427 35.0667 20.8663 35.4532C20.0256 35.9266 19.156 36.8156 18.7985 37.5403L18.4796 38.1877L18.4506 41.3958C18.4216 44.5169 18.4313 44.6135 18.6245 44.8067C18.8178 45 18.8951 45 25.1759 45C31.5243 45 31.5437 45 31.7273 44.7971C31.9012 44.6038 31.9109 44.3912 31.9398 41.8499C31.9592 40.2169 31.9302 38.8738 31.8625 38.5453C31.6113 37.1442 30.5581 35.9556 28.8961 35.1729C27.5433 34.5449 25.4078 34.255 23.8038 34.4772ZM27.1761 36.0619C28.5869 36.4484 29.8334 37.2988 30.2682 38.1877C30.4421 38.5356 30.4614 38.8158 30.4904 41.1156L30.5194 43.6472L25.1759 43.6279L19.8324 43.5989V41.1832C19.8324 38.4486 19.871 38.265 20.4991 37.579C21.2528 36.7576 22.2867 36.2262 23.6975 35.9556C24.5478 35.7914 26.3741 35.8493 27.1761 36.0619Z" fill="black"/>
</svg>
