<svg width="50" height="50" viewBox="0 0 50 50" fill="none" xmlns="http://www.w3.org/2000/svg">
<path d="M8.04149 8.04149L5 11.0738V25.9433V40.8128L5.22834 41.032L5.44755 41.2604H19.4128H33.3781L33.6247 41.0686C33.8622 40.8859 33.8622 40.8768 33.8713 39.5889V38.292L34.6385 37.9175L35.4149 37.5521L35.9172 38.0636C36.3191 38.4746 36.4196 38.6299 36.4196 38.8765C36.4196 39.0409 36.4835 39.3058 36.5566 39.4702C36.6296 39.6255 37.8353 40.895 39.2327 42.2833C42.0367 45.0782 42.1372 45.1513 42.9227 44.9138C43.4707 44.7585 44.7585 43.4707 44.9138 42.9227C45.1513 42.1372 45.0782 42.0367 42.2833 39.2144C40.8859 37.817 39.6255 36.6205 39.4611 36.5474C39.2966 36.4744 39.0318 36.4196 38.8674 36.4196C38.6299 36.4196 38.4655 36.3191 38.0545 35.9081L37.5339 35.3966L37.8809 34.739C38.4655 33.6612 38.6573 32.8392 38.6573 31.3961C38.6573 29.6424 38.2737 28.4368 37.2873 27.0576C36.5931 26.0803 35.1865 24.9752 34.2092 24.6281L33.8622 24.5094V14.9465V5.37448L33.6247 5.19181C33.3781 5 33.3689 5 22.226 5H11.0738L8.04149 8.04149ZM32.6748 15.1566V24.1349H31.3048H29.9347V19.7782C29.9347 15.942 29.9164 15.4123 29.7886 15.2844C29.6698 15.1566 29.3593 15.1383 27.834 15.1383C26.0621 15.1383 26.0164 15.1474 25.8794 15.3392C25.7515 15.5219 25.7333 16.2161 25.7333 21.1025V26.6649L25.3131 27.3042C25.0756 27.6513 24.7742 28.2085 24.6281 28.5464L24.3724 29.1584L24.3632 23.733C24.3632 18.81 24.345 18.2894 24.2079 18.1341C24.0709 17.988 23.8883 17.9697 22.2168 17.9697C20.9107 17.9697 20.3536 17.9971 20.2714 18.0793C20.1892 18.1615 20.1618 19.7142 20.1618 24.4911C20.1618 30.2179 20.1709 30.8024 20.317 30.9577C20.454 31.1038 20.6367 31.1221 22.2808 31.1221H24.0892V31.734C24.0892 32.9214 24.555 34.3554 25.2948 35.4514C26.0895 36.6114 27.0211 37.4151 28.2998 38.0088C29.3958 38.5294 29.9986 38.6573 31.4235 38.6573H32.6748V39.3606V40.073H19.4311H6.18737V25.9616V11.8502H8.83611C11.3661 11.8502 11.494 11.8411 11.6675 11.6675C11.8411 11.494 11.8502 11.3661 11.8502 8.83611V6.18737H22.2625H32.6748V15.1566ZM10.7176 10.6354C10.6811 10.7268 10.2335 10.7542 8.81784 10.7542H6.96372L8.83611 8.88178L10.7085 7.00939L10.7359 8.76304C10.745 9.7312 10.7359 10.5715 10.7176 10.6354ZM28.8387 20.381V24.5276L28.5373 24.6281C28.3637 24.6829 27.9345 24.9204 27.5691 25.1396C27.2038 25.3679 26.8841 25.5506 26.8658 25.5506C26.8019 25.5506 26.8293 16.3622 26.8932 16.2983C26.9206 16.2617 27.3773 16.2343 27.8979 16.2343H28.8387V20.381ZM23.2489 24.5185L23.2215 29.9804L22.2442 30.0078L21.2578 30.0352V24.5459V19.0657H22.2625H23.2672L23.2489 24.5185ZM33.1771 25.4593C34.2549 25.7972 34.8486 26.1625 35.7345 27.0576C37.0315 28.3546 37.5521 29.5876 37.5521 31.3961C37.543 33.1497 36.9858 34.4924 35.7345 35.7345C34.4924 36.9858 33.1497 37.543 31.3961 37.5521C29.679 37.5521 28.4094 37.0406 27.1581 35.8624C25.9525 34.7207 25.3222 33.3872 25.2126 31.7614C25.0117 28.7656 27.1216 25.9799 30.0717 25.3314C30.9394 25.1396 32.3277 25.1944 33.1771 25.4593ZM37.3055 37.3055L37.0589 37.5521L36.6936 37.1959L36.3282 36.8397L36.5748 36.584L36.8214 36.3282L37.1868 36.6936L37.5613 37.0589L37.3055 37.3055ZM41.37 39.9543C42.7217 41.306 43.8178 42.466 43.8178 42.5391C43.8178 42.7126 42.7217 43.8178 42.5391 43.8178C42.3929 43.8178 37.5156 38.9952 37.5156 38.84C37.5156 38.7212 38.7212 37.5156 38.84 37.5156C38.8856 37.5156 40.0273 38.6116 41.37 39.9543Z" fill="black"/>
<path d="M14.7364 20.9016L14.499 21.0843V25.9251C14.499 30.638 14.5081 30.7659 14.6816 30.9394C14.8552 31.113 14.983 31.1221 16.6362 31.1221C18.5451 31.1221 18.6365 31.1038 18.7461 30.638C18.7735 30.5284 18.7826 28.3272 18.7735 25.7515L18.7461 21.0569L18.5269 20.8833C18.3351 20.7281 18.1524 20.7098 16.6454 20.7098C15.1018 20.7098 14.9648 20.7189 14.7364 20.9016ZM17.6044 25.9616V30.0261H16.6454H15.6863V25.9616V21.8972H16.6454H17.6044V25.9616Z" fill="black"/>
<path d="M9.12843 23.6874L8.92749 23.8244V27.3225C8.92749 30.5924 8.93662 30.8298 9.09189 30.9668C9.23803 31.1038 9.51204 31.1221 11.0465 31.1221C12.654 31.1221 12.8367 31.1038 12.9737 30.9577C13.1107 30.8024 13.1289 30.4188 13.1289 27.3499C13.1289 24.0253 13.1198 23.8974 12.9463 23.7239C12.7727 23.5504 12.6449 23.5412 11.0465 23.5412C9.63991 23.5412 9.29283 23.5686 9.12843 23.6874ZM12.0146 27.3499L12.0329 30.0261H11.0282H10.0235V27.3317V24.6281L11.0099 24.6555L11.9872 24.6829L12.0146 27.3499Z" fill="black"/>
<path d="M30.6015 25.9159C28.519 26.1991 26.6649 27.8523 26.0529 29.9804C25.8429 30.6837 25.8429 31.9898 26.0438 32.757C26.5462 34.6933 28.1445 36.2552 30.1174 36.7484C30.9211 36.9493 32.4099 36.8854 33.1954 36.6022C34.7207 36.0725 36.0725 34.7207 36.6022 33.1954C36.8854 32.4099 36.9493 30.9211 36.7484 30.1174C36.0542 27.3499 33.4055 25.5415 30.6015 25.9159ZM32.4465 27.1398C34.1818 27.6056 35.4605 29.0396 35.7163 30.7841C35.9172 32.1542 35.4697 33.4603 34.465 34.465C32.0628 36.8671 28.0258 35.7619 27.1398 32.4465C26.6466 30.6197 27.5417 28.5373 29.2314 27.5691C30.1539 27.0394 31.4509 26.8658 32.4465 27.1398Z" fill="black"/>
</svg>
