<svg width="147" height="22" viewBox="0 0 147 22" fill="none" xmlns="http://www.w3.org/2000/svg">
<g clip-path="url(#clip0_2204_12649)">
<path d="M70.1631 22H67.5972L65.1515 16.2263H53.5848L51.1191 22H48.6133L58.2756 0H60.5108L70.1631 22ZM59.3682 2.90235L54.5169 14.0366H64.1492L59.3682 2.90235Z" fill="#070116"/>
<path d="M91.744 22H89.2081L86.7224 16.2263H75.1757L72.6398 22H70.1641L79.8465 0H82.0917L91.744 22ZM80.939 2.90235L76.0978 14.0366H85.7501L80.939 2.90235Z" fill="#070116"/>
<path d="M113.322 22H110.746L108.25 16.2263H96.7232L94.2174 22H91.7617L101.424 0H103.659L113.322 22ZM102.507 2.90235L97.6654 14.0366H107.328L102.507 2.90235Z" fill="#070116"/>
<path d="M119.276 4.49232V9.20218H129.299V13.5402H119.276V21.9994H114.605V0.154297H130.703V4.49232H119.276Z" fill="#070116"/>
<path d="M142.057 21.9991L138.79 16.7832L135.522 21.9991H130.711L136.394 13.509L130.921 5.24609H135.853L138.86 10.1212L141.917 5.24609H146.738L141.325 13.4264L147.049 22.0095L142.057 21.9991Z" fill="#070116"/>
<path d="M34.0989 17.9609H0V21.9891H34.0989V17.9609Z" fill="#71C8F0"/>
<path d="M30.8727 11.9805H3.21875V16.0086H30.8727V11.9805Z" fill="#71C8F0"/>
<path d="M26.6808 5.99023H7.40625V10.0184H26.6808V5.99023Z" fill="#71C8F0"/>
<path d="M23.0446 0H11.0469V4.02817H23.0446V0Z" fill="#71C8F0"/>
</g>
<defs>
<clipPath id="clip0_2204_12649">
<rect width="147" height="22" fill="white"/>
</clipPath>
</defs>
</svg>
